<?xml version="1.0" encoding="utf-8"?>
<!-- Generator: Adobe Illustrator 25.4.1, SVG Export Plug-In . SVG Version: 6.00 Build 0)  -->
<svg version="1.1" id="Layer_1" xmlns="http://www.w3.org/2000/svg" xmlns:xlink="http://www.w3.org/1999/xlink" x="0px" y="0px"
	 viewBox="0 0 432 432" style="enable-background:new 0 0 432 432;" xml:space="preserve">
<style type="text/css">
	.st0{fill:none;stroke:#FFFFFF;stroke-width:0.8567;stroke-miterlimit:10;}
	.st1{fill:#FFFFFF;stroke:#FFFFFF;stroke-width:0.6701;stroke-miterlimit:10;}
	.st2{fill:#FFFFFF;}
</style>
<path class="st0" d="M216.6,201.7c-0.8-0.1-1.6-0.1-2.4-0.1c-1.7-0.1-3.5-0.1-5.2-0.1s-3.3,0-5,0c-0.4,0-0.8,0.2-1.2,0.2
	s-0.8,0.1-1.2,0c-1.4-0.4-2.9-0.3-4.3-0.3c-0.9,0-1.9,0.1-2.7-0.2c-2.5-0.8-5.2-0.9-7.7-1.6c-1.3-0.4-2.7-0.5-4.1-0.7
	c-1.1-0.2-2.1-0.5-3.2-0.7c-0.2,0-0.5-0.2-0.7-0.1c-0.8,0.1-1.5-0.2-2.2-0.5c-1.4-0.5-2.7-0.9-4.2-1.1c-1.4-0.2-2.7-0.7-4-1
	c-0.6-0.2-1.2-0.3-1.9-0.4c-1.8-0.3-3.5-0.4-5.3-0.9c-1.1-0.3-2.2-0.8-3.3-1.2c-0.5-0.7-1.1-1.4-1.6-2.2c-0.2-0.4-0.4-0.8-0.5-1.3
	c-0.2-1.2-0.6-2.4-0.2-3.6c0.1-0.2,0-0.3,0-0.5c0-1.4,0.3-2.7,1.1-4.1c0.3-0.3,0.7-0.7,1.1-1.1c1.8-0.6,3.6-1.2,5.6-1.2
	c0.2,0,0.5,0,0.7-0.1c0.8-0.3,1.6-0.6,2.5-0.8c0.8-0.2,1.7-0.2,2.5-0.6c0.7-0.3,1.4-0.4,2.2-0.5c0.9-0.2,1.8-0.4,2.7-0.7
	c1-0.3,2-0.5,3-0.7c1.1-0.2,2.1-0.5,3.1-0.8c1.1-0.3,2.2-0.5,3.4-0.6c0.7,0,1.5-0.2,2.2-0.5c1.7-0.6,3.5-0.7,5.2-1.1
	c0.6-0.1,1.2-0.2,1.9-0.3c2.2-0.3,4.4-0.6,6.7-0.7c0.8,0,1.7-0.3,2.8-0.5c1.3,0.3,2.8,0.2,4.4,0.2c0.6,0,1.3,0,1.9,0
	c1,0.1,2,0.1,2.9,0.1c1,0,2,0,2.9,0.2c0.3,0.1,0.6,0,0.8,0c1.3-0.1,2.5-0.1,3.8,0.2c1,0.3,2.2,0.3,3.2,0.5c1.1,0.1,2.3,0.3,3.4,0.4
	c0.2,0,0.3,0.1,0.5,0.1c1-0.1,2.1,0.1,3.1,0.3c1.2,0.3,2.4,0.4,3.5,0.7c2,0.4,4,1,6,1.4c1.4,0.3,2.8,0.5,4.3,0.7
	c1.9,1.1,3.5,2.6,5.1,4c0.2,0.2,0.4,0.4,0.6,0.7c0.7,1.2,1.7,2,2.6,3c0.5,0.5,1.1,1,1.5,1.6c1.4,1.9,2.9,3.7,4.1,5.8
	c0.2,0.3,0.4,0.6,0.6,0.8c0.5,0.4,0.8,1,1.1,1.5c0.2,0.4,0.5,0.8,0.8,1.1c0.3,0.4,0.6,0.8,0.6,1.5c-0.1,0.1-0.2,0.3-0.4,0.5
	c-1.5,0-3,0-4.5,0c-1.2,0-2.4,0.1-3.6,0.1c-1.5,0.6-3.1,0.2-4.6,0.4c-1.6,0.2-3.2,0.5-4.8,0.7c-2.1,0.3-4.1,0.9-6.2,1.4
	c-2.6,0.6-5.3,1.2-8,1.3c-0.5,0-1,0.1-1.5,0.2c-1.8,0.3-3.5,0.5-5.3,0.7C219.7,201.4,218.1,201.6,216.6,201.7z"/>
<path class="st1" d="M290.3,315c-0.2-0.6-0.4-1.2-0.7-1.8c0.2-0.7,0.3-1.5,0.6-2.3c0.5-1.5,0.5-3.1-0.2-4.6c0-0.1,0-0.2-0.1-0.4
	c0.3-0.6,0.4-1.3,0.2-2.1c-0.2-0.5-0.1-1,0-1.5c0.3-0.9,0.3-1.8-0.1-2.7c-0.2-0.5-0.2-1-0.1-1.5c0-0.6,0.1-1.3-0.1-1.9
	c-0.3-1.1-0.2-2.2,0.1-3.2c0.5-1.6,0.4-3.2,0.3-4.8c0-0.2-0.1-0.3-0.2-0.6c-0.7,0.2-1.4,0.4-2.3,0.6c-1-0.4-2.2-0.5-3.4-0.1
	c-0.3,0.1-0.6,0.1-0.8,0.2c-0.8,0.3-1.6,0.3-2.4,0c-0.8-0.2-1.7-0.4-2.5-0.6c-0.4,0.1-0.7,0.2-1.1,0.3c-0.4-0.1-0.8-0.3-1.3-0.5
	c-0.3,0.2-0.7,0.4-1,0.6c-0.1,0-0.2,0-0.3,0c-0.7-0.3-1.5-0.2-2.2-0.2c-1.4,0.1-2.8,0.2-4.1-0.3c-0.3-0.1-0.6-0.1-0.9,0
	c-0.7,0.1-1.4,0.2-2,0.3c-0.7,0.2-1.3,0.5-1.7,1.3c-0.1,1.2-0.2,2.5-0.4,4.1c0.3,0.6,0.4,1.4,0.4,2.3c0,0.3,0.1,0.7,0.1,1
	c0.2,1.5,0.3,3-0.6,4.3c0.2,0.7,0.3,1.2,0.5,1.8c0.1,0.3,0.2,0.7,0.1,1c-0.1,0.6,0,1.1,0.1,1.7c0.1,0.5,0,1-0.3,1.5
	c0.4,0.7,0.4,1.5,0.3,2.3c-0.2,1.5-0.3,3.1,0,4.6c0.1,0.8,0,1.6-0.6,2.3c-0.3-0.1-0.7-0.2-1-0.2s-0.6,0-0.9,0
	c-1.2,0.1-2.4,0.1-3.5-0.3c-1.2,0.2-2.3,0.3-3.5,0.5c-0.8-0.2-1.7-0.4-2.7-0.7c-0.1-0.7-0.1-1.4-0.1-2.1c0.1-1.5,0.2-3,0.3-4.5
	c0.2-2.4-0.2-4.7-0.1-7.1c0-0.3-0.1-0.7-0.2-1c0.2-0.8,0.3-1.7,0.5-2.4c-0.1-1.3-0.2-2.4-0.4-3.8c0.1-0.9,0.2-2.1,0.3-3.3
	c-0.2-0.4-0.3-0.8-0.5-1.1c0-0.2,0-0.3,0-0.4c0.3-0.5,0.3-1.1,0.3-1.7c0-2.4,0-4.8,0-7.3c0-0.6,0-1.3-0.1-1.9
	c-0.2-0.8-0.1-1.6,0.1-2.4c0.1-0.4,0.2-0.8,0.3-1.2c-0.2-0.4-0.3-0.8-0.5-1.3c0.5-0.6,0.3-1.4-0.1-2c0.5-2.1,0.5-4.3,0.4-6.4
	c0-0.7-0.3-1.2-0.6-1.7c0.1-1.1,0.1-2.2,0.2-3.2c0-0.3,0-0.7,0-1c0.2-1.3,0-2.5-0.2-3.5c0.1-1.4,0.2-2.6,0.3-3.9
	c0.3-0.4,0.8-0.9,1.2-1.4c0.4,0,0.8-0.1,1.2,0c1.2,0,2.4,0,3.6-0.3c0.6-0.1,1.1-0.1,1.6-0.1c0.6,0.2,1.2,0.4,1.8,0.6
	c0.5-0.2,1-0.4,1.6-0.6c0.6,0.2,0.9,0.7,1,1.3c0.1,1.6,0.6,3.2,0.1,4.8c0,0.2,0,0.3,0,0.5c0.1,1.3,0.1,2.6,0.2,3.8
	c-0.3,0.6-0.5,1.1-0.7,1.7c0.1,0.8,0.3,1.7,0.5,2.6c0.1,0.6,0.2,1.2,0,1.9c-0.2,1-0.2,1.9,0,2.9c0.2,0.7,0,1.4,0,2.1
	c0,0.9-0.1,1.7-0.1,2.6c0,0.4,0.2,0.8,0.3,1.2c0.4,0,0.8,0.2,1.2,0.1c1.6-0.1,3.2-0.1,4.8,0c1.6,0,3.2,0,4.8-0.1
	c0.9,0,1.7,0,2.5,0.3c0.6,0.2,1.3,0.2,1.9,0.1c2.2-0.6,4.4-0.4,6.5-0.1c1.4,0.1,2.6-0.1,4-0.2c0-0.3,0.1-0.5,0-0.7
	c-0.2-0.6-0.3-1.2,0-1.8c-0.1-1.2,0.3-2.4-0.1-3.6c-0.2-0.6-0.3-1.3-0.4-2c0.3-0.4,0.5-0.7,0.7-1c0-0.9,0-1.8,0.3-2.7
	c0.2-0.8,0.2-1.6-0.2-2.4c-0.5-1-0.5-1.9-0.2-3s0.2-2.3,0-3.4c-0.3-1.3-0.3-2.6,0.2-4c0.3-0.1,0.6-0.1,1-0.2
	c1.1-0.2,2.1-0.4,3.2-0.6c0.6-0.1,1.2-0.3,1.7-0.1c0.9,0.3,1.8,0,2.7,0.2c0.3,0.1,0.6-0.1,0.8-0.1c0.6,0,1.3-0.1,1.8-0.1
	c0.5,0.3,0.7,0.7,0.7,1.1c0.1,1,0.1,2,0.1,2.9c0,0.7-0.2,1.5,0.4,2.1c-0.3,0.5-0.6,0.9-0.8,1.3c0.2,1.2,0.3,2.5,0.5,3.7
	c0.2,1.1,0.3,2.2,0.2,3.3c-0.1,1.5-0.2,3-0.5,4.7c0.5,1.1,0.1,2.3-0.4,3.5c0.5,0.7,0.7,1.5,0.6,2.4c-0.2,1.5,0.1,3-0.2,4.5
	c0,0.1,0,0.2,0,0.3c0.4,1.6,0.2,3.2,0.2,4.8c-0.1,1.8,0,3.6,0,5.4c0,0.2,0,0.4,0,0.5c0.4,1.3,0.3,2.6,0.1,3.9
	c-0.1,1.2-0.2,2.4,0.2,3.6c0.2,0.8,0.1,1.7-0.4,2.5c-0.1,0.2-0.2,0.4-0.3,0.6c0,0.3,0,0.5,0.1,0.7c0.5,1.6,0.5,3.3,0.1,4.9
	c-0.2,0.7-0.2,1.5,0,2.2c0.1,0.6,0.2,1.3,0.1,1.9c-0.1,1-0.2,2.1-0.4,3.1c-0.3,0.4-0.7,0.6-1.1,0.7c-2.1,0.6-4.3,0.9-6.5,0.3
	c-0.2-0.1-0.5-0.1-0.7-0.1C292.4,315.6,291.4,315.3,290.3,315z M299.5,253.4c-1.6-0.1-3.2-0.2-4.7-0.1c-0.7,0-1.3,0.3-1.8,1
	c0,1,0.1,2-0.3,3c0.1,1.6,0.1,3.2,0.2,4.8c0.1,0.9,0.1,1.8-0.2,2.7c-0.3,1-0.2,2.1,0.3,3c0.1,0.3,0.2,0.5,0.4,0.9
	c-0.3,1.7-0.5,3.5-0.8,5.2c0.5,1.7,0.6,3.9,0.1,4.6c-0.3,0.2-0.7,0.4-1.1,0.6c-1.5-0.6-3.1-0.4-4.7-0.1c-1.8-1.1-3.8-1.1-5.8-0.4
	c-1.3,0.4-2.6,0.3-3.9,0c-0.7-0.2-1.5-0.3-2.2-0.2c-1.4,0.1-2.7,0.3-4,0.7c-3.1-0.7-6.1-0.6-9.2-0.1c-0.2-0.2-0.4-0.3-0.7-0.5
	c0.2-1,0.4-1.9,0.6-2.8c-0.2-0.6-0.4-1.1-0.4-1.3c0-1.3,0-2.4,0-3.5c0-0.5,0.1-0.9,0.1-1.4c0-0.4,0-0.8-0.1-1.2
	c-0.1-1.3-0.2-2.5,0.1-3.8c0.3-1.1,0.4-2.3,0-3.4c-0.1-0.3-0.2-0.7-0.3-0.9c0.5-2.6,0.5-4.6,0.1-6.7c-0.3-0.1-0.6-0.3-0.9-0.3
	c-1.7-0.2-3.4,0-5.2,0c-0.1,0.3-0.3,0.6-0.3,0.9c-0.2,1.9-0.5,3.8-0.4,5.7c0,1,0.1,2.1,0.1,3.1s-0.1,2,0.2,2.9c0.1,0.2,0,0.6,0,0.9
	c0,0.9,0,1.8,0,2.7c-0.2,0.6-0.4,1.1-0.6,1.6c0.2,1,0.3,2.1,0.5,3.1c0.2,1.2,0.3,2.3,0,3.2c0.1,2.3,0.3,4.4,0.4,6.6
	c-0.2,0.4-0.4,0.8-0.6,1.2c0,0.3,0,0.6,0,0.9c0,1.7-0.1,3.3,0.3,5c0.2,0.7,0,1.5-0.1,2.2c-0.1,1-0.2,3.5,0,4.4
	c0.2,0.8,0.2,1.5,0,2.2c-0.2,1-0.3,2-0.1,2.9c0.3,1.1,0.3,2.2-0.2,3.2c0.5,0.9,0.4,1.9,0.4,2.9c0,0.5,0,0.9,0,1.4s0,1,0,1.6
	c0,0.4,0,0.9,0,1.4c0.4,0.2,0.8,0.1,1.2,0c1.3-0.3,2.5-0.3,3.8,0c0.4,0.1,0.9,0.2,1.3-0.2c0.4-1.3,0.6-2.7,0.3-4
	c-0.4-1.5-0.4-3-0.1-4.4c0.1-0.6,0.2-1.2,0-1.7c-0.3-1-0.2-2.1-0.1-3.1s0.1-2,0.3-2.9c0.1-0.8-0.1-1.6-0.3-2.1c0-0.9-0.1-1.6,0-2.2
	c0.4-1.8,0.5-3.5,0.2-5.3c-0.1-0.5,0-1,0.5-1.5c0.2,0,0.4-0.1,0.6-0.1c1,0,2-0.1,2.9,0c2.1,0.2,4.1-0.1,6.2-0.1
	c1.1-0.5,2.3-0.3,3.4-0.2c0.3,0,0.7,0,1-0.1c1-0.2,2.1,0,3.1,0.1c0.6,0.1,1.3,0.2,1.9,0.1c2.3-0.5,4.6,0,6.9,0
	c1.4-0.5,3-0.2,4.5-0.1c0,0.4,0.1,0.7,0.1,1.1c0,1.1,0,2.2,0,3.3c0,1.6,0,3.2,0.3,4.8c0.2,1.1,0.3,2.3-0.1,3.4c-0.3,1-0.3,2,0.1,3
	c0.3,0.9,0.6,1.9,0.3,2.9c-0.3,1.1-0.2,2.2-0.3,3.3c0,1.5-0.2,3-0.5,4.4c0.1,0.4,0.2,0.8,0.3,1.2c0.4,0.2,0.7,0.3,0.9,0.4
	c0.5-0.1,0.9-0.2,1.2-0.3c1.5,0.5,2.9,0.7,4.5,0.4c0.6-1.6,0.2-3.1-0.4-4.6c0.5-0.7,0.6-1.5,0.5-2.3c0-0.7,0-1.4,0-2.1
	c0-2.5,0-5.1,0-7.6c0-0.8,0-1.6,0-2.4c0-0.9,0.2-1.8-0.2-2.7c-0.1-0.3-0.1-0.6,0-0.9c0.1-1,0.2-1.9,0-2.9c0-0.3,0-0.6,0.1-0.9
	c0.1-0.7,0.3-1.4,0.4-2.1c-0.4-1-0.7-2.1-0.6-3.2c0.2-0.7,0.5-1.4,0.4-1.9c-0.2-1.6-0.4-3.2-0.3-4.8c0-0.6-0.2-1.3-0.3-1.8
	c0.2-0.6,0.4-1,0.4-1.5c0.1-0.6,0.1-1.1,0.1-1.7c0-2.2,0-4.5,0-6.7c0-1.1,0-2.2-0.3-3.2c0.5-1.1,0.1-2.1,0-3.1
	C299.5,255.7,299.8,254.7,299.5,253.4z"/>
<path class="st1" d="M208.8,312.7c-1.1,0.2-1.7,1.2-2.7,2c-1.6,0.5-3.2,0.9-4.9,1.4c-0.1,0-0.2,0.1-0.3,0.1
	c-2.6,0.1-5.3,0.7-7.9,0.4c-0.3,0-0.6,0-0.9,0c-1.6,0.1-3.1-0.1-4.6-0.7c-0.6-0.2-1.3-0.4-2-0.4c-0.5,0-1.1-0.1-1.5-0.4
	c-0.8-0.6-1.9-0.9-2.6-1.6c-0.2-0.2-0.5-0.3-0.7-0.4c-1.1-0.4-2-1-2.6-1.8c-0.5-0.2-0.9-0.3-1.3-0.5c-0.2-0.1-0.3-0.2-0.3-0.3
	c-1.6-2.1-3.1-4.1-4.7-6.2c-0.2-0.3-0.5-0.5-0.6-0.8c-0.3-1.3-1.2-2.2-1.7-3.4c-0.9-2.2-1.8-4.4-2-6.8c-0.1-1.2-0.4-2.3-0.7-3.4
	c-0.4-1.1-0.5-2.2-0.3-3.4c0.2-1.3,0.2-2.5-0.1-3.8c-0.3-1.1-0.2-2.3,0.3-3.4c0.3-0.6,0.3-1.2,0.4-1.8c0.1-1,0.2-1.9,0.4-2.9
	c0.2-0.8,0.3-1.6,0.2-2.4s0.1-1.6,0.6-2.3c0.1-0.2,0.3-0.4,0.3-0.6c0.1-1.1,0.9-1.8,1.3-2.8c0.6-1.3,1.5-2.5,1.7-3.9
	c0.1-0.5,0.4-1,0.7-1.4c0.7-1,1.5-2,2.3-3c1.1-1.3,2.3-2.4,3.8-3.2c1-0.6,1.9-1.2,2.7-2.2c0.6-0.1,1.1-0.2,1.7-0.3
	c0.1-0.1,0.2-0.1,0.3-0.2c1.5-1.1,1.5-1.1,3.1-1.4c1.7-0.4,3.4-0.7,5.1-1c1.1-0.2,2.3-0.1,3.4-0.2c0.7,0,1.5-0.1,2.2-0.2
	c0.5-0.1,1,0,1.5,0.1c2.8,0.6,5.4,1.7,7.9,2.8c0.9,0.4,1.8,1,2.7,1.6c0.7,0.4,1.3,1,2.1,1.2c0.6,0.2,1,0.7,1.3,1.3
	c0.4,1.1,1.1,2,2,2.8c1.6,1.4,1.4,3.1,0.8,5c-0.7,0.3-1.4,0.4-1.9,0.8s-1,0.7-1.5,0.9c-1.4,1.6-3.5,2.1-5,3.4
	c-0.7-0.2-0.9-0.6-1.1-1.1c-0.1-0.6-0.3-1.1-0.4-1.6c-0.5-0.2-0.8-0.3-1.3-0.5c-0.7-0.9-1.5-1.8-2.5-2.5c-0.4-0.3-0.7-0.7-1.1-1.1
	c-1.4,0.1-2.6-0.2-3.9-0.5c-1.1-0.3-2.3-0.3-3.4-0.3c-0.6,0-1.3,0.1-1.9,0.4c-1,0.4-1.9,0.7-3,0.8c-1.1,0.1-2.1,0.6-2.9,1.3
	c-2.6,2.2-2.1,1.2-3.7,4.4c-0.6,1.2-1.2,2.4-1.5,3.6c-0.1,0.5-0.3,1-0.3,1.5c0,0.9-0.2,1.8-0.4,2.7c-0.5,1.8-0.7,3.6-0.6,5.5
	c0,0.2,0.1,0.5,0,0.7c-0.6,2,0.2,3.9,0.2,5.8c0,0.8,0.3,1.6,0.5,2.3c0.2,0.8,0.4,1.5,0.4,2.4c-0.1,1.2,0.3,2.3,1.2,3.2
	c0.2,0.2,0.4,0.4,0.5,0.7c1.1,1.6,2.2,3.2,3.3,4.8c0.3,0.1,0.7,0.3,1,0.4c0.4,0.2,0.9,0.3,1.2,0.6c1.2,0.9,2.6,1.5,4.1,1.5
	c0.3,0,0.6,0,0.8,0.1c0.8,0.4,1.7,0.3,2.5,0.2c1.4-0.2,2.8-0.5,4.2-0.8c1.1-0.2,2.2-0.7,3.1-1.4c0.5-0.4,1-0.8,1.4-1.2
	c0.9-0.9,1.8-1.8,2.7-2.8c0.2-1.4,0.5-2.9,0.7-4.3c0.1-0.8,0-0.9-0.5-1.4c-0.9,0.1-1.8,0.2-2.6,0.2c-0.9,0-1.7,0-2.6,0
	c-0.9,0.1-1.7,0.2-2.7,0.4c-0.4-0.3-0.8-0.7-1.2-1c-0.2-1.2-0.3-2.2-0.4-3.3c0-0.4,0-0.8,0-1.2c0.1-1,0.3-2,0.3-3.1
	c0-0.7,0.3-1.3,0.4-1.8c0.6-0.9,1.4-1.2,2.1-1.7c0.4,0,0.8,0,1.2,0.1c1.3,0.5,2.6,0.4,3.9,0.1c1.6-0.3,3.2-0.3,4.8,0
	c1,0.2,1.9,0.3,2.9-0.1c0.2-0.1,0.4-0.1,0.7-0.1c1.8,0,3.7,0,5.6,0c0.2,0.4,0.4,0.7,0.4,1.1c0.2,0.7,0.3,1.5,0.4,2.3
	c-0.3,0.9-0.3,1.9-0.3,2.9c0.1,0.9-0.1,1.8-0.2,3c0.1,0.3,0.2,0.9,0.3,1.5c-0.1,0.5-0.4,0.9-0.4,1.3c0,1-0.2,1.9-0.6,2.8
	c-0.1,0.2-0.1,0.3-0.1,0.5c0,2.1-0.9,3.9-1.5,5.8c-0.1,0.3-0.2,0.5-0.3,0.8c-0.6,2.2-1.9,3.9-3.5,5.5c-0.4,0.4-0.8,0.8-1.3,1.2
	C210.8,310.9,209.9,311.7,208.8,312.7z M198.3,306.9c-0.5,0.2-0.8,0.5-1.2,0.6s-1,0.3-1.3,0.1c-1.2-0.5-2.5-0.3-3.8-0.3
	c-1.4,0-2.8,0-4-0.8c-0.2-0.2-0.6-0.2-0.8-0.3c-1.3-0.7-2.6-1.5-3.9-2.3c-0.1-0.1-0.2-0.2-0.2-0.2c-0.9-1.2-1.7-2.4-2.6-3.6
	c-0.9-1.2-1.5-2.7-2.4-4c-0.8-1.3-1.1-2.8-1.2-4.3c0-0.4,0-0.8-0.1-1.2c-0.2-1.8-0.2-3.6-0.6-5.3c-0.2-0.8-0.2-1.6-0.1-2.4
	c0.1-1.4,0.4-2.7-0.1-4.1c0.6-0.6,0.4-1.4,0.5-2.1c0.2-0.4,0.5-0.7,0.5-0.7c0.3-1.5,0.4-2.7,0.7-3.9c0.3-1,0.6-2,0.6-3.1
	c0.5-0.5,1-0.9,1.4-1.5s0.7-1.3,1-1.9c0.4-0.3,0.8-0.6,1.1-0.8c0.3-0.6,0.6-1.1,0.8-1.6c0.5-0.2,1-0.4,1.4-0.5
	c1.1-1.2,2.4-1.6,3.8-2c0.4-0.1,0.8-0.1,1.1-0.3c1.5-0.9,3.2-0.8,4.8-1.3c0.2-0.1,0.5,0,0.7,0c1.5,0.3,3.1,0.5,4.6,0.8
	c0.8,0.2,1.6,0.2,2.3,0.7c0.8,0.7,1.7,1.4,2.6,2c0.5,0.4,1,0.8,1.3,1.4c0.6,1.2,1.7,1.8,3,2c1-0.4,1.7-1.1,2.5-1.6
	c0.9-0.5,1.8-1,2.7-1.5c0-0.4,0-0.7-0.1-1c-0.2-0.7-0.7-1.2-1.2-1.7c-0.7-0.6-1.3-1.3-1.6-2.2c-1.1-0.7-2.2-1.3-3.3-1.9l-0.1,0.1
	c-0.4-0.5-0.7-0.9-1-1.3c-1-0.1-1.7-0.3-2.5-0.4c-0.8-0.1-1.6-0.3-2.3-0.7c-0.5-0.2-0.9-0.5-1.3-0.7c-0.2,0-0.3-0.1-0.4,0
	c-1.2,0.1-2.4,0.1-3.5-0.6c-0.6-0.3-1.4-0.3-2-0.1c-0.8,0.3-1.6,0.3-2.4,0.1c-0.6-0.1-1.2-0.2-2-0.1c-0.8,0.8-1.8,1-2.9,1
	c-1,0.5-1.9,1.2-3,1.1c-0.3,0.2-0.4,0.3-0.6,0.4c-1,0.4-1.9,1-2.7,1.9c-0.1,0.1-0.3,0.2-0.4,0.3c-1.4,0.9-2.4,2.1-3.4,3.4
	c-0.8,1.2-1.6,2.4-2.9,3.1c-0.1,0.4-0.2,0.7-0.3,1.1c-0.4,1.3-0.8,2.5-1.6,3.6c-0.3,0.4-0.5,1-0.7,1.6c-0.3,1.3-0.7,2.5-1.4,3.6
	c0.4,1.4-0.1,2.7,0,4c-0.4,0.9-0.3,1.8-0.3,2.7c0,0.5-0.1,0.9-0.2,1.4c0.1,0.3,0.3,0.7,0.2,1.1c-0.2,1.1-0.4,2.1-0.6,3.1
	c0.3,1.6,0.9,3.2,0.6,4.7c0.2,0.4,0.4,0.8,0.5,1.2c0.1,0.4,0.1,0.8,0.1,1.2c0.1,0.7,0.2,1.4,0.5,2c0.6,1.2,1,2.6,1.4,3.9
	c0.2,0.8,0.6,1.5,1.2,2.1c0.8,0.8,1.3,1.7,1.7,2.8c0.4,1,0.8,2,1.6,2.8c0.3,0.3,0.5,0.6,0.7,1c0.4,0.7,1,1.2,1.7,1.7
	c1.9,1.1,3.8,2.2,5.6,3.3c0.2,0.1,0.5,0.3,0.8,0.4c0.8,0.4,1.7,0.6,2.7,0.7c1.4,0.1,2.8,0.2,4.2,0.3c1.2,0.9,2.4,0.9,3.8,0.5
	c0.9-0.3,1.9-0.4,2.9-0.4c2.3-0.2,4.4-0.7,6.2-2.1c0.3-0.1,0.5-0.2,0.7-0.2c0.9-0.1,1.4-0.6,2-1.2c0.4-0.5,1-1,1.5-1.4
	c1.5-1,2.6-2.5,3.7-3.8c0.3-0.3,0.4-0.8,0.6-1.2c0.2-0.5,0.3-1,0.4-1.6c1.1-1.1,1.4-2.5,1.1-4.1c1.1-0.8,1.3-1.9,1.2-3.1
	c-0.1-0.7,0-1.5,0.2-2.2c0.1-0.4,0.2-0.9,0-1.3c-0.2-0.7-0.1-1.4,0-2c0.2-1.7,0.3-3.3,0.1-5.1c-0.4-0.3-0.8-0.6-1.1-0.9
	c-1.2,0.6-1.2,0.6-2,0.5c-2-0.1-4,0-6,0.3c-1.2,0.2-2.3,0.1-3.4-0.2c-1.4-0.4-2.9-0.3-4.1,0.6c-0.2,1.4-0.2,4,0,5.4
	c1.1,0.6,2.2,0.7,3.4,0.4c0.9-0.2,1.7-0.2,2.5,0.1c1.1-0.6,2.3-0.3,3.4-0.3c0.2,0,0.5,0.2,0.7,0.3c0.3,0.7,0.2,1.2,0,1.8
	c-0.1,0.6-0.3,1.2-0.5,1.8c-0.3,1.3-0.7,2.7-0.8,4c-0.2,1.5-0.7,3-2.2,3.9c-0.5,0.3-0.8,0.8-1.1,1.3c-0.5,0.7-1.1,1.2-1.8,1.6
	c-0.9,0.5-1.9,0.7-2.8,1.4c-0.2,0.2-0.6,0.2-1,0.2C199.2,306.9,198.7,306.9,198.3,306.9z"/>
<path class="st1" d="M222.3,121.6c0.3,0.2,0.6,0.4,0.9,0.6c0.5,0.3,0.8,0.7,0.9,1.2c0.1,0.7,0.4,1.3,0.8,1.9
	c0.1,0.1,0.2,0.3,0.3,0.5c0.3,0.6,0.5,1.3,0.3,2c-0.2,0.8-0.5,1.5-1.6,1.9c-1.2-0.1-2.5,0.3-4,0.2c-0.4,0.2-0.9,0.4-1.5,0.6
	c-0.6-0.1-1.2-0.2-1.9-0.4c-0.9,0.1-1.7,0.2-2.6,0.2c-0.4,0-0.8-0.1-1.2-0.2c-0.2-0.3-0.4-0.7-0.6-1c-0.1-0.3-0.2-0.5-0.3-0.8
	c-0.6-1.4-1.3-2.6-2.6-3.2c-1.3-2.2-2-4.5-3.4-6.5c-0.4-0.3-0.8-0.6-1.3-0.9c-0.1-0.3-0.2-0.7-0.4-1.1s-0.4-0.9-0.7-1.1
	c-1-0.7-1.4-1.8-2.1-2.7c-0.3-0.5-0.4-1.2-0.7-1.9c-1-0.5-1.1-1.9-2-2.7c-0.8-0.8-1.3-1.9-1.9-2.8c-0.6-0.4-1.2-0.5-1.8-0.4
	c-0.4,0.1-0.9,0.1-1.4,0.1c-0.8,0-1.6,0.1-2.4,0.4c-0.5,0.2-1.1,0.3-1.7,0.3c-1.1,0-2.2,0-3.3,0s-2,0.3-3.1,0.5
	c-0.1,0-0.2,0.2-0.4,0.4c0.1,0.4,0.3,0.8,0.4,1.3c0.1,1,0.3,1.9,0.3,2.9c0.1,1,0,2,0.3,2.9c0.1,0.2,0.1,0.3,0.1,0.5
	c-0.3,1.4,0.2,2.6,0.7,3.9c-0.3,1-0.5,2-0.2,3c0.2,0.6,0.2,1.2,0.3,1.9c0.1,0.6,0.1,1.1,0.2,1.7c0.1,1.2,0,2.4,0.7,3.4
	c-0.1,1.2-0.3,2.3-0.4,3.5c-0.5,0.9-0.5,0.9-1.9,1.7c-0.2,0-0.4,0-0.6,0c-0.2,0-0.5,0-0.7,0c-0.5,0.2-0.9,0.4-1.4,0.7
	c-0.9,0.4-1.8,0.6-2.5-0.2c-1.3,0.2-2.5,0.5-3.8,0.7c-0.4-0.3-0.9-0.6-1.4-0.9c-0.1-0.4-0.1-0.8-0.3-1.2c-0.3-0.7-0.3-1.5-0.1-2.2
	c0.3-1.2,0.2-2.3,0-3.4c-0.3-1.3-0.5-2.6-1.1-3.9c0.4-1.1,0.3-2.2,0.1-3.3c-0.3-1.9-0.6-3.9-0.5-5.8c0.1-0.9,0-1.9-0.4-2.7
	c-0.5-1.1-0.4-2.1-0.2-3.2c0.1-0.4,0.3-0.8,0.2-1.2c-0.2-0.9,0.1-1.8-0.2-2.7c-0.3-0.8-0.4-1.7-0.5-2.5c-0.1-0.6-0.3-1.2-0.3-1.9
	c0-0.9-0.2-1.7-0.4-2.6s-0.7-1.7-0.4-2.7c0.1-0.2-0.1-0.4-0.2-0.7c-0.1-0.6-0.4-1.2-0.2-1.9c0-0.1,0-0.4-0.1-0.5
	c-0.7-1.4-0.4-2.9-0.4-4.4c0-0.5,0.1-1,0.1-1.5c0.1-1-0.1-1.9-0.7-2.8c0.1-0.8,0.3-1.6-0.2-2.4c-0.1-0.2-0.1-0.4-0.1-0.7
	c0.1-0.6,0-1.3-0.2-1.9c-0.2-0.7-0.2-1.4,0-2c0.1-0.3,0.2-0.7,0.2-1c-0.1-1.3-0.3-2.6-0.4-3.9c0-0.3-0.3-0.6-0.3-0.7
	c-0.2-1.1-0.2-2-0.4-2.8c-0.3-1.3,0-2.4,1-3.2c0.5-0.4,1-0.8,1.5-1.2c0.8-0.1,1.7-0.3,2.7-0.5c0.2,0,0.6,0.1,1,0.1
	c0.4-0.2,0.9-0.3,1.4-0.5c0.9,0,1.8,0,2.7,0c1.2,0,2.3-0.1,3.3-0.7c1.2,0,2.3,0.1,3.9,0.1c0.8-0.3,2-0.5,3.3-0.5
	c0.7,0,1.5-0.2,2.2-0.5c0.7-0.2,1.4-0.3,2.2-0.2c1,0.1,1.9,0,2.9,0c0.3-0.1,0.6-0.3,1-0.4c0.7-0.3,1.4-0.4,2.2-0.2
	c1,0.2,1.9,0.2,2.9,0c0.5-0.2,1.2-0.2,1.7-0.1c0.9,0.2,1.7,0.2,2.6,0.3c0.5,0,0.9,0.2,1.3,0.3c1.6,0.4,3.1,0.8,4.8,1.2
	c0.6,0.7,1.4,1.1,2.4,1c0.2,0.1,0.3,0.2,0.4,0.2c1.1,1.2,2.3,2.3,3.7,3.1c0.3,0.2,0.7,0.5,0.9,0.8c0.8,1.2,1.9,2.2,2.4,3.6
	c0.1,0.2,0.1,0.5,0.3,0.6c0.7,0.6,0.9,1.5,1.1,2.3c0.4,1.4,0.8,2.7,0.9,4.2c0,1.1,0.5,2.1,0.8,3.4c-0.1,0.4-0.2,1-0.3,1.6
	c0.3,0.6,0.5,1.2,0.8,1.8c-0.2,0.5-0.4,1-0.6,1.5c0.4,1.1,0.2,2.1-0.3,3.1s-0.8,2.2-1.8,2.9c0.1,1.6-0.9,2.8-1.6,4
	c-0.1,0.1-0.2,0.3-0.3,0.4c-1.5,0.9-2.4,2.4-3.8,3.2c-0.6,0.4-1,0.9-1.6,1.5c-1.1,0.3-2.3,0.8-2.9,2.1c0.2,0.2,0.3,0.5,0.5,0.7
	c0.5,0.5,0.9,1,1,1.7c0.1,0.4,0.4,0.7,0.6,1c0.8,1,1.6,1.9,2.2,3.1c0.3,0.6,0.9,1.1,1.5,1.8c-0.1-0.1,0,0,0,0.1
	c0.4,1.6,1.2,3,2.2,4.3c0.8,1,1.3,2.2,2.1,3.4c0.1,0.1,0.4,0.3,0.8,0.6C221.7,120.1,222,120.8,222.3,121.6z M219.5,88.2
	c0.2-0.5,0.5-1.1,0.6-1.6c0.1-0.4,0.3-0.9,0.3-1.3c0-1.2,0.2-2.5-0.1-3.6c-0.3-1.3-0.1-2.5-0.3-3.8c-0.1-0.5-0.3-1-0.4-1.5
	c-0.1-0.3-0.3-0.5-0.3-0.8c0-1.5-0.8-2.6-1.3-3.9c-0.1-0.2-0.2-0.3-0.2-0.5c-0.4-0.3-0.7-0.6-0.9-0.8c-1.7-3.4-4.6-5.2-7.5-6.9
	c-2.1-0.3-4.1-0.5-6-0.7c-1.5-0.2-3.1-0.4-4.6-0.3c-1.8,0-3.5,0.6-5.3,0.4c-1.6,0.5-3.1,0.6-4.8,0.6c-0.4,0-0.8,0.2-1.2,0.3
	c-0.2,0-0.3,0.1-0.5,0.1c-0.5-0.1-0.9-0.2-1.4-0.3c-1.4,0.3-2.9,0.6-4.3,0.9c-0.5,0.1-0.9,0.2-1.4,0.1c-2.4-0.2-4.8,0-7.2,0.2
	c-1.4,0.1-2.8,0.4-4.2,1c0.1,0.9-0.2,1.8,0.1,2.6c0.2,0.6,0.2,1.1,0.2,1.7c0,0.9,0,1.7,0.3,2.6c0.1,0.4,0.1,0.9,0.2,1.4
	c0,0.7,0,1.5,0,2.2c0,0.9,0.1,1.8,0.4,2.7c0.6,1.8,0.9,3.7,0.4,5.5c0.6,1.4,0.6,1.4,0.5,2.9c-0.1,2.2,0,4.4,0.7,6.5
	c0.3,0.9,0.5,1.9,0.7,2.8c-0.4,1.9-0.3,3.7-0.3,5.6c0.7,0.9,1,2,1.2,3c-0.2,1.1-0.4,2.2-0.5,3.4c0.4,1.9,0.9,3.8,1.3,5.6
	c-0.1,0.4-0.3,0.8-0.2,1.1c0.2,1.4,0.1,2.7,0.5,4.1c0.4,1.6,0.7,3.3,0.4,5c-0.1,0.5,0,1,0.1,1.5c0.6,2.6,0.6,2.6,0.6,5.3
	c0,0.5-0.1,0.9,0.3,1.4c1,0.2,2.1-0.5,3.2-0.2c1.2-0.6,2.5-0.8,3.4-1.7c0.1-0.6,0.3-1.2,0.3-1.7c0.1-0.6,0.2-1.3,0-1.9
	c-0.2-0.7-0.2-1.5-0.4-2.2c-0.1-0.8-0.4-1.7-0.6-2.7c0.5-1.4,0.5-3-0.1-4.6c-0.2-0.6-0.2-1.2-0.2-1.9c0-0.6,0-1.3,0-1.8
	c-0.2-0.6-0.4-1.1-0.7-1.7c0.7-2,0.3-3.8-0.6-5.5c0.3-1.1,0.2-2.1,0.8-3.1c0.8-0.1,1.6-0.1,2.4-0.1c1.9,0,3.8-0.2,5.6-0.7
	c1.1-0.3,2.1-0.5,3.1-0.1c2-0.6,2-0.6,3.9-0.3c0.7-0.2,1.5-0.6,2.1-0.2c1.1,1.9,2,3.6,3.1,5.2c0.7,1,1.6,2,2,3.2
	c1.1,0.6,1.5,1.6,1.6,2.8c1.3,0.8,2,2,2.6,3.3c0.2,0.5,0.5,0.9,0.9,1.2c0.6,0.4,0.9,1,1.2,1.6c0.5,0.9,1,1.8,1.6,2.6
	c0.7,0.9,1.2,1.8,1.4,2.9c0,0.1,0.1,0.2,0.2,0.3c0.4,0.3,0.8,0.6,1.2,0.8c0.1,0.3,0.2,0.6,0.3,0.9s0.2,0.5,0.3,0.8
	c0.3,0.1,0.5,0.2,0.8,0.4c0.5-0.2,0.9-0.5,1.3-0.5c0.5-0.1,1,0,1.6,0c1.2-0.6,2.4-1,3.7-0.6c0.5-0.2,1.2-0.1,1.3-0.8
	c-0.5-0.8-1.1-1.5-1.4-2.3c-0.6-1.5-1.6-2.8-2.6-4c-0.3-0.3-0.5-0.7-0.8-1.1c-1-1.5-1.5-3.2-2.7-4.6c-0.2-0.2-0.3-0.6-0.4-0.9
	c-0.2-0.7-0.6-1.3-1.1-1.7c-0.9-0.9-1.6-1.9-2.2-3.1c-0.2-0.4-0.3-0.7-0.6-1c-0.4-0.4-0.7-0.9-0.8-1.5c-0.1-0.3-0.3-0.6-0.4-0.9
	c-0.7-1.1-1.5-2.2-2.2-3.3c-0.2-0.3-0.5-0.5-0.3-1c0.3-0.2,0.7-0.4,1-0.6c1.5-0.9,3-1.7,4.5-2.6c0.5-0.3,1.1-0.7,1.5-1.1
	c0.8-0.9,1.7-1.6,2.7-2c0.5-0.8,1.1-1.4,1.5-2.2c0.3-0.4,0.5-0.9,0.7-1.4c0.3-0.7,0.4-1.4,0.7-2.2C219.6,88.7,219.5,88.4,219.5,88.2
	z"/>
<path class="st1" d="M29.8,164.3c1.1-0.6,1.6-1.5,2.1-2.5c0.4-0.8,0.8-1.5,1.4-2.2c0.3-0.3,0.5-0.8,0.7-1.2c0.4-0.7,0.7-1.4,1.1-2.2
	c0.3-0.7,0.7-1.3,1.3-1.8c0.9-0.7,1.6-1.7,2.1-2.7c0.4-0.9,1-1.7,1.6-2.5c1.3-1.7,2.3-3.6,3.3-5.5c0.5-1,1.1-1.9,2-2.6
	c0.2-1.4,1.5-2.1,2-3.2c1.6-0.8,1.6-0.8,2.8-0.8c1.1,0.5,2.1,0.9,3.3,1.5c0.6,1.4,2.2,1.5,3.4,2.4c0.2,0.3,0.4,0.7,0.5,1
	c0.1,1,0.2,2,0.3,3.1c-0.7,1-1.4,2.1-2.3,3.4c-0.1,0.3-0.3,0.9-0.5,1.6c-0.4,0.4-0.8,0.9-1.3,1.3c-0.5,0.5-0.9,1-1.1,1.7
	c-0.3,1.2-1,2.3-1.4,3.5c-0.2,0.7-0.7,1.2-1.3,1.5c-0.9,0.5-1.5,1.3-2,2.3c-0.7,1.4-1.6,2.8-2.5,4.4c-0.8,0.6-1.4,1.5-1.9,2.6
	c-0.3,0.7-0.8,1.3-1.2,1.9c-0.4,0.6-0.7,1.3-1,2c-0.1,0.2,0,0.4,0,0.7c1.2,0.6,2.2,1.2,3.4,1.7c0.7,0.3,1.3,0.6,1.7,1.1
	c1.2,1.4,2.6,2.3,4.2,2.7c1.2,1.2,1.4,1.3,3.4,2.1c0.6-1,1.3-1.9,2.3-2.4c0.1-0.3,0.2-0.5,0.2-0.7c0.2-1.1,0.7-2.1,1.5-2.8
	c0.1-0.1,0.3-0.2,0.3-0.4c0.4-0.6,0.7-1.2,1.1-1.8c0.3-0.5,0.8-1,1.1-1.5c0.1-0.2,0.2-0.4,0.4-0.6c0.6-0.5,0.9-1.2,1.2-1.9
	c0.3-0.6,0.6-1.1,0.9-1.7c0.3-0.6,0.8-1.1,1.5-1.4c1.2-0.1,2.3,0,3.4,0.8c0.7,0.5,1.5,0.8,2.6,1.3c0.1,0.1,0.4,0.4,0.8,0.8
	c0.4,0.1,0.8,0.2,1.2,0.3c0.7,0.6,1.3,1.2,2.1,1.9c0.1,0.3,0.3,0.9,0.5,1.5c-0.8,1.3-1.5,2.7-2.8,3.6c-0.7,0.5-1.1,1.2-1.3,2
	c-0.1,0.4-0.1,0.8-0.2,1.2c-0.4,0.3-0.9,0.7-1.2,1c-0.1,0.1-0.1,0.2-0.2,0.2c-0.3,1.5-1,2.7-1.9,3.8c-0.7,0.9-1.3,1.9-2,2.8
	c-0.2,0.3-0.4,0.6-0.5,0.8c0.4,0.3,0.8,0.6,1.1,0.9c1.6,1.7,3.6,2.8,5.8,3.7c0.8,0.3,1.5,0.7,2.1,1.4c0.4,0.4,1,0.8,1.5,1.1
	c0.8,0.4,1.5,0.8,2.3,1.2c1.1,0.5,2,1.2,3,2.1c1.3,1.2,2.7,2.2,4.5,2.5c1,1.3,2.5,1.8,3.7,2.7c0.1,0.1,0.1,0.2,0.2,0.2
	c1.1,1.4,0.9,2.7-0.2,4c-1.2,1.3-2,3-2.4,4.6c-0.7,0.7-1.3,1.3-2.1,2.1c-0.6,0-1.4,0.1-2,0.1c-1.6-0.8-2.9-1.6-4.3-2.2
	c-0.7-0.3-1.1-0.8-1.5-1.3c-1.1-0.8-2.6-1-3.3-2.3c-1.4-0.4-2.5-1.1-3.5-2.1c-0.5-0.5-1.1-0.8-1.7-1.1c-0.7-0.5-1.5-0.9-2.2-1.3
	c-0.4-0.2-0.8-0.6-1.2-0.7c-0.9-0.2-1.6-0.7-2.2-1.3c-1.3-1.1-2.7-2-4.1-2.8c-0.5-0.3-1-0.6-1.2-1.1c-0.2-0.4-0.6-0.7-1.1-0.8
	c-1.3-0.3-2.4-1.1-3.5-1.9c-0.5-0.4-1-0.8-1.5-1.1c-1.6-1.1-3.2-2.3-5-3c-1.3-0.5-2.4-1.3-3.4-2.3c-0.8-0.9-1.9-1.3-3.2-1.4
	c-1.2-1.5-2.8-2.4-4.5-3.4c-2.3-1.4-4.5-2.8-6.7-4.2c-0.9-0.6-1.8-1.1-2.4-1.9c-0.3-0.3-0.7-0.6-1-0.8c-0.1-0.2-0.1-0.2-0.1-0.3
	c0-0.9-0.2-1.9,0-2.7c0.2-0.9,0.8-1.6,1.3-2.5c0.9-0.5,1.4-1.3,1.7-2.3c0.1-0.4,0.3-0.8,0.6-1.1C29.1,166.4,29.5,165.5,29.8,164.3z
	 M49.3,139.5c-0.2,0.2-0.4,0.2-0.5,0.4c-0.2,0.2-0.3,0.5-0.4,0.7c-0.4,1-1,1.8-1.6,2.6c-0.4,0.5-0.8,1.1-1.2,1.7
	c-0.6,1.1-1.3,2.2-2,3.2c-0.8,1-1.4,2.3-2.1,3.4c-0.5,0.8-1,1.7-1.6,2.4c-0.7,0.9-1.5,1.8-1.8,2.9c-0.1,0.2-0.2,0.4-0.4,0.6
	c-0.7,0.5-0.8,1.3-1,2.1c-0.6,0.5-1.1,0.9-1.3,1.6c-0.1,0.3-0.3,0.5-0.5,0.7c-0.6,0.5-1,1.1-1.2,1.9c-0.2,0.7-0.6,1.3-1.1,1.7
	c-0.8,0.7-1.3,1.6-1.8,2.5c-0.5,1-1.1,2-1.9,2.8c-0.1,0.5-0.2,0.9-0.2,1.4c-1.1,0.7-1.8,1.6-1.5,3c1.2,1,2.4,2,4,2.1
	c0.6,0.6,0.8,1.5,1.9,1.9c0,0,0.3,0.1,0.6,0.1c0.5,0,1.1,0.2,1.4,0.6c1,1.1,2.2,1.6,3.6,2c0.2,0,0.3,0.2,0.4,0.3
	c0.1,0.3,0.2,0.7,0.2,0.9c0.8,0.8,1.6,1.4,2.7,1.6c0.9,0.2,1.6,0.7,2.3,1.2c0.6,0.4,1.2,0.9,1.8,1.4c0.9,0.7,1.8,1.3,2.9,1.5
	c0.5,0.7,1.2,1.1,1.9,1.4c1,0.5,2.1,1,2.9,1.8c1.1,1.1,2.4,1.8,3.8,2.3c1,0.4,1.9,1,2.8,1.7c1.4,1.2,3,2.2,4.6,3.1
	c1.1,0.6,2.2,1.2,3.4,1.8c0.5,1.2,1.6,1.8,2.8,2.2c0.7,0.2,1.4,0.5,2.1,0.8c0.4,0.2,0.8,0.3,1,0.6c0.7,0.7,1.6,1.2,2.3,1.6
	c0.5,0.6,0.9,1,1.2,1.5c1,0.2,1.8,0.7,2.5,1.3c0.6,0.6,1.3,1.1,2,1.6c0.3,0.2,0.7,0.4,1.1,0.6c0.2-0.2,0.4-0.4,0.4-0.6
	c0.1-0.8,0.6-1.4,1-2c0.5-0.7,1-1.4,1.4-2.2c0.4-0.7,0.9-1.4,1-2.2c-1-0.8-1.9-1.8-3-1.9c-1.6-1-2.9-1.8-4.2-2.7
	c-0.3-0.2-0.7-0.5-1-0.7c-0.9-0.9-2-1.6-3.2-2c-1.6-0.6-2.9-1.5-4.2-2.6c-0.6-0.5-1.3-1-2-1.4c-1.9-0.9-3.6-2-5.4-3
	c-0.8-0.4-1.5-1-2.2-1.5c-0.1-0.3-0.2-0.5-0.2-0.8c0.5-1,1-2.1,1.5-3.1c0.3-0.5,0.8-1,1.2-1.5c0.3-0.3,0.6-0.5,0.9-0.8
	c0.5-1.3,1.2-2.5,1.3-3.8c0.2-0.2,0.3-0.3,0.5-0.4c0.8-0.4,1.3-1.1,1.6-2c0.3-0.9,0.8-1.6,1.2-2.3c0.6-0.4,1-0.8,1.4-1.1
	c0.1-0.8,0.5-1.5,0.3-2.3c-0.6-0.5-1.2-1-1.9-1.6c-0.4,0-1-0.1-1.6-0.2c-0.6-0.8-1.2-1.6-2.4-1.8c-0.2,0.1-0.4,0.3-0.5,0.4
	c-0.6,0.7-1.2,1.4-1.8,2.1c-0.2,0.3-0.4,0.6-0.5,0.9c-0.1,0.3,0,0.7,0,1.1c-0.9,1-1.8,2.1-2.8,3.2c-0.1,1-0.5,1.8-1.1,2.5
	c-0.8,1-1.4,2.1-1.6,3.3c-0.7,0.9-1.4,1.7-2.1,2.6c-0.2,0.2-0.4,0.3-0.7,0.5c-1-1-2-1.6-3.3-2c-0.4-0.1-0.7-0.4-1-0.6
	c-0.3-0.2-0.5-0.5-0.8-0.6c-0.8-0.3-1.4-0.8-1.9-1.4c-0.5-0.6-1.2-1.1-1.8-1.2c-0.5-0.5-0.8-0.9-1.2-1.2c-0.7-0.4-1.5-0.9-2.3-1.1
	c-0.7-0.2-1.2-0.6-1.6-1.2c-0.7-0.9-1.5-1.5-2.7-1.7c-0.1,0-0.2-0.1-0.3-0.2c-0.1-0.1-0.1-0.4-0.2-0.5c0.1-0.1,0.1-0.2,0.1-0.2
	c0.9-0.8,2.1-1.5,2.3-2.8c0.7-0.4,0.9-1.2,1.2-1.8c0.1-0.3,0.3-0.7,0.5-0.9c0.9-0.9,1.4-2.1,2-3.2c0.2-0.5,0.5-0.9,0.8-1.3
	c0.2-0.3,0.5-0.7,0.6-1c0.4-1.1,1.1-1.9,1.9-2.2c0.8-1,1.5-1.8,2.2-2.7c0.5-1.2,1.1-2.5,1.7-3.8c0.2-0.4,0.4-0.8,0.8-1.1
	c0.3-0.2,0.5-0.4,0.8-0.7c0.2-1.2,0.8-2.1,1.4-3.1c0.7-1.1,1.3-2.3,2-3.4c0,0,0.1-0.1,0.1-0.2c0,0,0-0.1-0.1-0.2
	c-1.2-0.7-2.5-1.3-3.5-2.4C51.4,139.9,50.5,139.4,49.3,139.5z"/>
<path class="st1" d="M336.3,185.3c0.2-0.2,0.4-0.3,0.6-0.5c0.8-0.8,1.6-1.4,2.7-1.8c0.9-0.3,1.7-0.9,2.4-1.7
	c1.1-1.2,2.5-1.8,3.8-2.7c0.5-0.3,1.1-0.3,1.7-0.5c0.6-0.5,1.4-1.1,1.9-1.8c0.3-0.4,0.7-0.6,1.1-0.8c0.5-0.3,1.1-0.5,1.6-0.7
	c1-0.5,1.9-1,2.6-1.9c0.3-0.3,0.6-0.5,0.9-0.7c1.1-0.6,2.2-1.2,3.3-1.8c0.3-0.2,0.7-0.4,1-0.7c0.4-0.3,0.8-0.5,1.1-0.8
	c0.6-0.4,1.1-0.8,1.9-1.3c0.1,0,0.5-0.1,0.9-0.2c0.4-0.2,0.7-0.5,1-0.7c0.2,0,0.4,0,0.6-0.1c0.2,0,0.3-0.1,0.4-0.1
	c0.6-0.4,0.9-0.8,1.1-1.4c0.3-0.9,1.1-1.3,1.9-1.5c0.3-0.1,0.6-0.1,0.8-0.2c0.3-0.1,0.6-0.2,0.8-0.4c0.6-0.7,1.4-0.9,2.2-1.4
	c0.7-0.4,1.4-0.9,2-1.3c0.8-0.6,1.6-1.3,2.5-1.8c0.2-0.1,0.3-0.3,0.4-0.4c0.2-0.6,0-1-0.3-1.4c-1.2-1.7-2.5-3.3-3.6-5
	c-0.5-0.7-0.9-1.4-1.3-2.2c-0.5-1-1-2-1.7-2.8c-0.9-1-1.3-2.1-1.9-3.3c-0.3-0.6-0.4-1.3-0.2-2c0.1-0.3,0.2-0.7,0.3-1.2
	c0.9-0.8,1.9-1.6,2.9-2.6c1.6-0.4,2.8-1.5,3.9-2.7c0.6-0.2,1.1-0.1,1.5,0.2c1.8,1.3,3.5,2.6,4.5,4.7c0.8,1.8,1.9,3.4,3.1,5
	c0.9,1.1,1.7,2.4,2.3,3.7c0.8,1.8,1.8,3.3,3.4,4.5c0.1,0.4,0.3,0.8,0.4,1.2c0.3,1,0.8,1.9,1.6,2.6c0.7,0.6,1.1,1.3,1.6,2
	c0.6,1.1,1.4,2.1,1.6,3.4c0,0.2,0.2,0.4,0.3,0.6c0.6,1,1.1,2,1.8,3.1c0.3,0.2,0.7,0.5,1.1,0.9c0.1,0.3,0.3,0.6,0.5,0.9
	c0.9,1.1,1.7,2.3,2.5,3.6c0.4,0.6,0.8,1.1,1.3,1.6c0.6,0.5,1,1.1,1.3,1.8c0.4,0.9,0.8,1.8,1.3,2.7c0,0.7,0,1.5,0,2.2
	c-1.1,0.8-2,1.6-3.1,2.4c-0.5,0.3-1,0.7-1.5,0.8c-1,0.3-1.8,0.7-2.5,1.3c-1.3,0-2.5,0-3.7,0c-0.7-0.8-1.4-1.7-1.7-2.7
	c-0.5-1.6-1.4-2.7-2.8-3.4c-0.1-0.2-0.2-0.3-0.3-0.4c-0.4-1.4-1.1-2.6-2-3.8c-0.5-0.7-0.9-1.5-1.3-2.2c-0.6-0.9-1.1-1.9-1.9-2.6
	c-1.5-0.2-1.9,1.1-2.8,1.9c-0.2,0.1-0.6,0.2-1,0.4c-0.2,0.3-0.5,0.6-0.7,0.9c-0.1,0.1-0.2,0.1-0.3,0.2c-0.2,0.1-0.5,0.1-0.7,0.2
	c-0.6,0.4-1.2,0.8-1.9,1.2c-0.6,0.4-1.3,0.4-1.8,1c-0.1,0.1-0.3,0.2-0.4,0.3c-1.5,0.5-2.5,1.6-3.6,2.6c-1.3,1.3-2.9,2.3-4.8,2.7
	c-0.2,0.3-0.5,0.6-0.7,1c-0.4,0.6-1,1-1.7,1.1c-1.2,0.3-2.3,0.8-3.4,1.5c-0.9,1.7-2.5,2.3-4.4,2.5c-0.3,0.6-0.6,1.1-0.9,1.6
	c-0.2,0.1-0.4,0.2-0.5,0.2c-1,0-1.8,0.3-2.3,1.2c-0.2,0.3-0.6,0.5-1,0.7s-0.7,0.3-1.2,0.5c-0.3,0.4-0.7,0.8-1.1,1.4
	c-0.4,0.2-0.8,0.4-1.3,0.6c-1.5,0.7-2.8,1.6-4,2.7c-0.6,0.6-1.2,1-2,1.3c-0.5,0.1-1,0.4-1.4,0.7c-1.1,0.9-2.2,1.8-3.4,2.7
	c-0.2,0.1-0.4,0.3-0.6,0.4c-0.6,0-1.2,0-1.8,0c-0.6-0.4-1.2-0.9-1.4-1.5c-0.3-0.8-0.9-1.5-1.5-2.1c-0.1-0.2-0.2-0.3-0.2-0.5
	c0-0.9-0.4-1.5-1.1-2.1c-0.9-0.7-1.6-1.7-1.9-2.7c0-0.7,0-1.3,0-2c0.8-0.9,1.9-1.4,2.9-1.8c0.4-0.2,0.9-0.3,1.2-0.6
	C334.1,186.1,335.1,185.5,336.3,185.3z M372.7,140c-0.6,0.5-1.3,0.9-1.6,1.7c0.2,0.6,0.4,1.3,0.8,1.8c0.9,1.2,1.6,2.4,2.1,3.8
	c0,0.1,0.1,0.2,0.2,0.3c0.5,0.5,0.7,1.1,0.8,1.7c0.2,0.7,0.6,1.4,1.3,1.8c0.1,0.1,0.1,0.2,0.2,0.3c0.1,0.3,0.1,0.6,0.1,0.8
	c1.7,2.3,3.4,4.5,5,6.7c-0.2,0.5-0.7,0.7-1.1,0.8c-1.2,0.2-2.1,0.9-2.9,1.7c-0.4,0.4-1.1,0.7-1.6,1c-0.5,0.4-0.9,1.1-1.5,1.4
	c-1.6,0.8-3,1.9-4.8,2.3c-0.5,1-1.3,1.5-2.1,2.1c-0.8,0.2-1.4,0.4-2.1,0.6l0.1,0.1c-1.7,1.4-3.4,2.8-5.1,4.2c-0.5,0.1-1,0.3-1.5,0.4
	c-0.6,0.1-1.1,0.4-1.5,0.8c-0.6,0.7-1.3,1.3-2.3,1.4c-0.3,0-0.5,0.2-0.8,0.4c-0.7,0.4-1.3,0.9-2,1.4c-1.4,1-2.6,2.3-4.3,2.8
	c-0.2,0-0.3,0.2-0.4,0.3c-0.9,0.9-1.9,1.2-3.1,1.3c-0.1,0.4-0.2,0.7-0.4,1c-0.2,0.1-0.4,0.3-0.6,0.4c-1.2,0.9-2.5,1.6-3.6,2.6
	c-0.4,0.4-1,0.6-1.5,0.8c-0.6,0.3-1.3,0.6-1.8,1c-1,0.9-2.2,1.5-3.4,1.7c-1.3,1.1-1.3,1.1-1.7,2c0.2,1,1.4,1.2,1.9,2
	c0.3,1.5,1.1,2.8,2.1,3.9c0.6,0.1,1-0.1,1.4-0.4c0.5-0.4,0.9-0.8,1.4-1c1.2-0.5,2.2-1.3,3-2.3c0.7-0.2,1.3-0.3,2-0.5
	c0.9-1.1,2-2,3.3-2.7c0.7-0.3,1.3-0.7,2-1.1c1.1-0.6,2.3-1.1,2.9-2.1c0.5-0.3,1-0.4,1.3-0.7c0.7-0.5,1.5-0.6,2.1-1.2
	c1-0.1,1.5-0.9,2.1-1.5c0.5-0.2,1-0.4,1.5-0.6c0.4-0.2,0.8-0.5,1.1-0.8c0.7-0.6,1.4-1.3,2.2-2c0.4-0.3,0.8-0.6,1.3-0.8
	c1.2-0.3,2.1-1,2.9-1.8c0.5-0.4,1-0.8,1.2-1c0.6-0.2,0.9,0.1,1.2-0.2c0.4-1.3,1.5-1.9,2.9-2.3c0.3-0.1,0.7-0.2,1-0.3
	c0.9-0.2,1.5-0.7,2.2-1.3c1.1-1,2.2-2,3.7-2.4c0.3-0.1,0.5-0.2,0.7-0.4c0.8-0.6,1.6-1.1,2.3-1.9c1-1.1,2.2-1.6,3.5-2.1
	c0.3-0.1,0.7,0,0.9-0.1c0.2,0.2,0.3,0.3,0.4,0.5c0.8,1.3,1.7,2.6,2.7,3.8c0.7,0.8,1.3,1.8,1.7,2.8c0.8,1.8,2,3.3,3,5
	c0.1,0.1,0.2,0.3,0.3,0.4c0.9,0.7,1.5,1.7,1.7,2.7c0.4,0.5,0.8,0.7,1.3,0.7c0.7,0,1.3-0.1,1.8-0.4c0.4-0.2,0.8-0.5,1.2-0.7
	c1.3-0.5,2.1-1.4,2.7-2.6c-0.4-1.3-1-2.5-1.9-3.6c-0.5-0.6-1-1.2-1.3-1.8c-0.6-1.2-1.4-2.2-2.1-2.8c-0.7-1.1-1.1-1.8-1.6-2.5
	c-0.6-0.8-1-1.7-1.4-2.6c-0.8-0.7-1.4-1.6-1.7-2.7c-0.3-1.2-1.1-2.2-2-2.9c-0.4-0.4-0.9-0.7-1.3-1.1c0-0.5,0-0.9-0.1-1.3
	c-1.1-0.8-1.7-2-2.3-3.1c-0.3-0.5-0.6-1-0.9-1.5c-0.4-0.7-0.8-1.4-1.2-2.1c-0.4-0.8-0.9-1.5-1.5-2.1c-0.3-0.2-0.5-0.5-0.8-0.7
	c0-0.4-0.1-0.9-0.1-1.3c-0.7-1.1-1.3-2.3-2.3-3.1c-1-0.9-1.7-2-2.2-3.2c-0.2-0.6-0.4-1.2-0.9-1.6c-0.5-0.2-0.9-0.1-1.3,0.3
	c-0.4,0.4-0.9,0.9-1.3,1.3C373.9,139.6,373.4,139.8,372.7,140z"/>
<path class="st1" d="M364.9,263.1c-0.7,0.9-1.1,1.9-1.3,2.9c0.2,1.1,0.4,2.2,0.6,3.4c-0.2,0.7-0.2,1.5,0,2.4
	c0.3,1.4,0.3,2.7-0.3,4.1c0.2,0.4,0.3,0.8,0.5,1.3c-0.1,1.9-0.3,4-0.4,6c-0.1,1-0.1,2,0,2.9c0,0.5,0.1,1,0.3,1.5
	c0.3,0.7,0.4,1.5,0.2,2.2c-0.6,2.2-0.3,4.3,0.3,6.6c-0.1,0.3-0.3,0.7-0.5,1.2c0.1,0.6,0.1,1.3,0.2,2.1c-0.5,1.1-0.6,2.3-0.6,3.6
	c0,1.7-0.1,3.3,0.3,5c0.1,0.4,0,0.8-0.1,1.2c-0.2,0.6-0.2,1.2-0.1,1.9c0.1,0.4,0.2,0.8,0.2,1.2c0,0.5,0,1,0,1.6
	c-0.3,0.6-0.9,1-1.3,1.5c-1,0.5-2.1,0.6-3.2,0.3c-1-0.3-1.9-0.3-2.9,0.1c-1.1,0.4-2.3,0.3-3.3-0.2c-0.4-0.9-0.8-1.7-1.3-2.5
	c0.3-1.6-0.2-3.2-0.2-5c0.5-0.7,0.5-1.8,0.5-2.8c-0.1-1.6-0.2-3.1-0.3-4.7c0-0.3-0.1-0.7,0.1-1c0.3-0.8,0.1-1.6-0.1-2.3
	c0.2-1,0.6-1.8,0.1-2.8c-0.1-0.2,0.1-0.6,0.1-0.8c0-1.1,0.3-2.3-0.2-3.4c0.3-1,0.4-1.9,0.1-3c-0.3-1,0-2.2,0.3-3.1
	c0-0.8-0.5-1.2-0.8-1.6c0.2-0.2,0.3-0.4,0.4-0.5c0.1-1.3,0.2-2.6,0.3-3.8c0-0.3-0.1-0.7-0.1-1c-0.2-1.5-0.2-3,0.1-4.6
	c-0.4-0.9-0.2-2-0.2-3.2c0.2-0.4,0.4-0.8,0.6-1.2c-0.3-1.7-0.9-3.3-0.3-4.9c-0.4-0.9-0.4-0.9-1.1-1.3c-1.1,0.1-2.1,0.4-3.2,0.4
	c-1,0.1-2,0-2.9,0s-1.8-0.2-2.8-0.2c-0.4,0-0.8-0.1-1.2,0.1c-1.2,0.5-2.4,0.3-3.6,0.2c-0.9-0.1-1.8-0.2-2.7-0.3
	c-0.5,0-0.9-0.1-1.2-0.7c0.1-0.4,0.3-0.8,0.4-1.2c0-1.2,0-2.3,0-3.5c-0.1-0.1-0.2-0.4-0.3-0.8c0.1-1.3,0.2-2.6,0.2-3.9
	c0.1-0.7,0.5-1.1,1.3-1.5c1.2,0,2.7-0.1,4.1-0.1c0.4,0,0.9,0.2,1.4,0.3c1.8-0.7,3.9,0,5.7-0.6c1.7,0.2,3.2,0.3,5,0.5
	c0.5-0.1,1.2-0.3,2-0.3c0.7,0,1.4,0.4,2.3,0.6c2.6-0.8,5.4-0.7,8.3-0.4c0.8,0.1,1.6-0.2,2.4-0.3c0.3,0,0.5-0.2,0.9-0.3
	c0.4,0.1,0.8,0.3,1.3,0.5c1.5,0,3,0,4.6-0.3c0.9-0.2,1.8-0.1,2.8,0.3c1.1-0.4,2.2-0.4,3.4-0.1c0.4,0.1,0.9,0.1,1.4,0.2
	c1.4,0.2,2.1,1.2,1.8,2.6c-0.1,0.5-0.3,1-0.4,1.4c0.3,0.5,0.5,1,0.8,1.5c-0.1,0.3-0.2,0.7-0.4,0.9c-0.4,0.6-0.5,1.3-0.2,2
	c0.4,1.1,0.2,2-0.4,3.1c-1.3,0.5-2.7,0.7-4.2,0.4c-1.1-0.2-2.2-0.2-3.3-0.2c-1.9,0-3.8,0-5.7-0.1
	C367.1,262.5,366.5,262.5,364.9,263.1z M361.6,260.7c3-0.3,5.9-0.6,8.8-0.5c0.9,0,1.7-0.1,2.6-0.1c1.3-0.1,2.5-0.2,3.8,0.1
	c0.7,0.1,1.4,0.2,2.1,0.2c0.5,0,0.9-0.1,1.1-0.7c-0.3-1-0.3-2,0-3c0.3-0.9,0.4-1.9-0.1-2.8c-1.1-0.5-2.2-0.8-3.4-0.3
	c-0.3,0.1-0.7,0.2-1,0.1c-1.3-0.3-2.6-0.1-4-0.1c-0.8,0-1.6,0.1-2.6,0.1c-1.1-0.8-2.4,0.2-3.7,0.3c-0.2,0-0.5-0.1-0.8-0.2
	c-1.5-0.2-2.9-0.6-4.4-0.1c-0.3,0.1-0.7,0-1,0c-1.2-0.4-2.3-0.2-3.4,0.1c-0.4,0.1-0.8,0.2-1.2,0.4c-1.6-0.6-3.2-0.5-4.9-0.4
	c-1,0-2,0-2.9,0.1c-1.1,0-2.3,0.1-3.7,0.2c-0.2-0.1-0.7-0.2-1.2-0.4c-0.6-0.2-1.2-0.3-1.7-0.1c-1,0.3-1.9,0.4-2.9,0
	c-0.1,0.4-0.2,0.8-0.2,1.1c0.1,1.5,0.2,3,0.3,4.5c0,0.3,0.2,0.7,0.2,1c0.4,0,0.7,0.1,1.1,0.1c0.7,0,1.5-0.1,2.2-0.1
	c2.5,0,5-0.1,7.4-0.1c1.3,0,2.6-0.1,3.9,0.4c1-0.1,1.9-0.5,2.9,0c0.1,0.2,0.2,0.5,0.2,0.8s-0.1,0.6,0,0.8c0.4,1.1,0.2,2.1,0,3.2
	c-0.2,1.4-0.2,2.7,0.1,4.1c0.3,1.5,0.4,3-0.1,4.4c-0.1,0.4-0.1,0.8-0.1,1.2c0,3.2,0,6.3,0,9.5c0,1,0,2-0.3,2.9
	c-0.1,0.4-0.2,0.9-0.1,1.4c0.1,0.7,0.3,1.3,0.4,2s-0.3,1.4-0.1,2.2c0.2,0.7,0.2,1.5,0.3,2.3c-0.1,0.5-0.2,1-0.2,1.5s0.2,1,0.3,1.5
	c0.1,0.3,0,0.7,0,1c0,0.7,0,1.5-0.1,2.2c0,0.7-0.1,1.4-0.2,2.1c0.1,0.3,0.1,0.6,0.2,0.9c-0.5,1.7-0.9,3.4-0.4,5.1
	c0.1,0.3,0.1,0.7,0.1,1c0,0.9,0.2,1.7,0.4,2.4c0.4,0.6,0.9,0.7,1.5,0.5c0.8-0.3,1.7-0.2,2.6-0.2c0.6,0,1.1,0.2,1.7-0.1
	c0.4-0.4,0.4-0.8,0.4-1.3c0-1.6,0-3.2-0.1-4.8c0-0.7,0-1.4,0-2.1c0.1-1.1,0.2-2.2,0.2-3.3c0-1.4-0.5-2.8-0.2-4.3
	c0-0.1-0.1-0.2-0.1-0.3c0-0.5,0-1,0-1.5c0-0.3,0.1-0.6,0-0.8c-0.2-0.7-0.2-1.4,0.1-2c0.2-0.7,0.3-1.4,0.1-2c-0.4-1.4-0.2-2.7-0.2-4
	c0.2-0.4,0.4-0.8,0.5-1.1c0-0.2-0.1-0.4-0.1-0.6c-0.3-1.6-0.6-3.2-0.3-4.8c0.2-1.2,0.3-2.5-0.2-3.7c0.1-0.3,0.2-0.6,0.3-0.9
	c-0.5-2.2-0.6-4.4,0.4-6.5c-0.2-0.8-0.2-1.5-0.4-2.1c-0.3-1.1-0.3-2.2,0.4-3.1C361.5,262.8,360.8,261.8,361.6,260.7z"/>
<path class="st1" d="M45.1,260.7c0.8-3.1,0.8-3.1,0.1-5.3c0.1-1.3,0.4-2.5,1-3.7c0.7-0.3,1.3-0.6,2.1-1c0.1,0,0.4,0.1,0.6,0.1
	c2.6-0.2,5.1,0.5,7.7,0.1c0.2,0,0.3,0.1,0.6,0.1c0.5,1.1,0.8,2.2,0.3,3.5c-0.6,1.7-0.6,3.4,0,5.1c0.3,0.8,0.3,1.6,0.1,2.5
	c-0.2,0.8-0.1,1.7-0.2,2.7c-0.1,0.3-0.4,0.7-0.6,1.1c0.3,1.8,0.6,3.5,1,5.3c-0.1,0.3-0.2,0.7-0.2,1.1c-0.3,1.4-0.4,2.8-0.1,4.3
	c0.2,0.9,0.1,2,0,2.9c-0.1,1.1-0.4,2.2-0.6,3.4c0.2,0.8,0.6,1.8,0.1,2.6c0.2,0.7,0.4,1.3,0.6,1.9c-0.2,0.5-0.3,0.9-0.5,1.4
	c0.4,1,0.2,2.1,0.2,3.2c0,0.5,0.1,0.9,0.2,1.4c0.3,1.2,0.4,2.4,0,3.4c0.3,2.4,0.5,4.6-0.1,6.9c1.1,0.4,2.1,0.6,3.2,0.4
	c1.4-0.2,2.8-0.2,4.1-0.2c1.4,0,2.8,0,4.1-0.1c0.6,0,1.3,0,1.9,0.2c0.5,0.1,1,0.1,1.5,0c1-0.2,1.9-0.1,2.9,0
	c1.6,0.1,3.2,0.2,4.8,0.2c1.4,0,2.9,0,4.3-0.1c0.8,0,1.6,0,2.4-0.2s1.5,0,2.1,0.7c0,1.3,0,2.7,0,4c0,1.1,0,2.2,0.3,3.3
	c0.3,1.5-0.3,2.7-1.2,3.8c-0.8,0-1.5,0-2.2,0s-1.4,0.1-2.1,0c-0.6-0.1-1.2,0-1.9,0c-1.5,0.1-3.1,0.2-4.6-0.2
	c-1.2-0.3-1.3-0.2-2.8,0.3c-1-0.5-2.1-0.3-3.3-0.1c-1.3,0.3-2.8,0.2-4.1-0.1c-1-0.2-2.1-0.2-3.1,0c-0.6,0.1-1.3,0.2-1.9,0.2
	c-2.2,0-4.4,0-6.6,0c-1.2,0-2.3,0-3.5,0c-1.3,0-2.6,0-4,0.3c-0.7,0.2-1.4,0.2-2,0c0.1-1.3-0.3-2.5-0.5-3.9c0.3-0.8,0.3-1.6,0-2.6
	c-0.3-0.9-0.3-1.8,0-2.7c0.4-1.7,0.2-3.3-0.2-4.9c0-0.2-0.1-0.3-0.1-0.6c1.2-2,0.8-4.3,0.5-6.5c-0.1-1-0.2-2,0-3.1s0.2-2.2-0.1-3.3
	c-0.2-1.1-0.3-2.2,0-3.2c0.1-0.4,0.1-0.9,0.2-1.4c0.1-0.8,0.2-1.6,0.3-2.4c0.1-0.7,0.1-1.5-0.1-2.2c-0.6-2.4-0.6-4.9-0.4-7.4
	c0-0.3,0.1-0.6,0.1-0.9c-0.2-2.1,0.2-4.1,0.2-6.2C45.5,263.5,45.5,262.1,45.1,260.7z M48.2,253.8c-0.2,0.9-0.4,1.7-0.3,2.6
	c0.1,1.2,0.2,2.4,0.1,3.6c-0.2,1.4-0.3,2.8,0,4.3c0.2,0.9,0.2,1.7-0.1,2.6s-0.3,1.8,0,2.7c0.4,1.6,0.3,3.2,0.1,4.8
	c-0.2,1-0.2,2.1,0,3.1c0.1,0.6,0.1,1.1,0,1.7c-0.1,0.5-0.1,1-0.1,1.5c0.3,1.8,0.3,3.6,0,5.3c-0.1,0.7-0.1,1.5,0.1,2.2
	c0.2,0.9,0.2,1.7,0,2.6c-0.3,1-0.2,2.1,0.1,3c0,0.3-0.1,0.5-0.1,0.7c-0.1,0.9-0.3,1.9-0.1,2.7c0.3,1.2,0.2,2.5,0.5,3.7
	c0.3,0.9,0.2,1.9-0.2,2.9c-0.4,0.9-0.4,1.9-0.4,2.9c0,2,0.1,3.9,0.2,5.9c0,0.1,0.2,0.3,0.3,0.5c1.1,0,2.3,0.1,3.4-0.2
	c0.4-0.1,0.8-0.1,1.2-0.1c1.5,0.2,3.1,0.4,4.6,0.5c0.3,0,0.7-0.1,1-0.1c1.5-0.2,3.1-0.3,4.6,0c1.1,0.2,2.3,0.2,3.4,0
	c0.7-0.1,1.5-0.2,2.2-0.2c1.5,0.1,3,0,4.5-0.2c0.9-0.1,1.8-0.2,2.7,0.1c0.5,0.2,1,0.1,1.5,0.1c1.3,0,2.6,0,4,0c1,0,2,0,2.9-0.1
	c0.4,0,0.7-0.2,1-0.3c0.5-0.8,0.6-1.6,0.4-2.3c-0.3-1.3-0.3-2.5,0-3.8c-0.8-0.3-1.6-0.1-2.3-0.2c-0.8-0.1-1.6-0.2-2.6-0.3
	c-0.6,0.2-1.4,0.4-2.2,0.6c-0.6,0.1-1.1,0.3-1.7,0.1c-1.5-0.5-3-0.4-4.5-0.3c-0.8,0-1.7,0.1-2.4-0.1c-1.5-0.4-2.8-0.3-4.2,0.5
	c-1.3-0.1-2.6-0.2-3.9-0.3c-0.5,0-1,0.1-1.5,0.1c-1,0-2,0.2-2.9,0s-1.8-0.2-2.8,0.1c-0.1-0.4-0.2-0.7-0.2-1.1c0-1,0.1-2,0.2-2.9
	c0.1-1,0.1-1.9,0-2.9c-0.1-0.7,0-1.5,0.1-2.2c0.2-1,0.2-2,0-3.1c-0.1-0.5-0.2-1-0.1-1.5c0-1,0-2.1-0.2-3.1c-0.1-0.5-0.1-1,0-1.5
	c0.3-1.1,0.2-2.2,0-3.3c-0.1-0.4-0.1-0.8-0.1-1.2c0-2,0-4,0-6c0-0.4,0.2-0.8,0.3-1.2c0.1-0.6,0.2-1.1,0.1-1.7
	c-0.1-1.6-0.1-3.2-0.1-4.8c0-1.5,0-3,0-4.5c0-0.4-0.1-0.8-0.2-1.2c-0.3-1-0.3-1.9-0.1-2.9s0.2-1.9,0.2-2.9c-0.1-1.3-0.1-2.7,0.2-4
	c0.1-0.5,0-0.9-0.3-1.4c-0.4-0.1-0.8-0.3-1.3-0.4C51.8,253.8,50,253.7,48.2,253.8z"/>
<path class="st1" d="M121.3,253c0.4-0.5,0.7-0.9,1.1-1.3c0.3,0,0.7-0.1,1-0.1c1.8-0.2,3.5-0.4,5.3-0.6c0.3,0,0.5-0.2,0.8-0.2
	c0.8-0.2,1.5-0.1,2.3,0.3c0.4,0.4,0.9,0.9,1.4,1.5c0.3,1.3,0.2,2.6,0,3.9c-0.2,1.4-0.3,2.7,0,4.1c0.1,0.8,0.2,1.6-0.1,2.4
	c-0.3,0.9-0.2,1.8,0,2.7c0.2,0.9,0.3,1.8,0.2,2.7c-0.1,1.2-0.1,2.3,0.2,3.4c0.1,0.5,0.2,1.2,0.1,1.7c-0.3,0.9-0.2,1.8-0.2,2.7
	c0,0.5-0.1,1-0.2,1.5c-0.3,1-0.2,2,0,3.1c0.3,1.2,0.6,2.3,0.2,3.6c-0.1,0.5-0.1,1.1,0,1.7c0,0.7-0.1,1.3-0.5,1.8
	c0.1,0.5,0.2,1,0.2,1.6c-0.1,1.7,0,3.3,0.2,5c0.1,1.1,0.2,2.2-0.2,3.3c-0.1,0.3-0.1,0.6,0,0.9c0.3,1-0.1,2.1-0.1,3.1
	c0,1.2,0,2.4,0.2,3.6c0.2,1.7,0.2,3.3,0.2,5c0,1.1,0.1,2.3,0.1,3.6c-0.2,0.2-0.6,0.5-1,0.6c-1.1,0.4-2.3,0.8-3.4,1.1
	c-1.2,0.4-2.4,0.4-3.6,0.2c-0.8-0.2-1.6-0.2-2.3,0.1c-0.5-0.2-1-0.3-1.4-0.4c-0.1,0-0.2-0.1-0.3-0.2c-0.3-0.8,0.2-1.5,0.1-2.4
	c-0.1-0.4-0.3-0.9-0.5-1.5c0.1-0.5,0.2-1,0.4-1.5c0.2-0.7,0.2-1.4,0.1-2.1c-0.1-1.1-0.2-2.2-0.3-3.3c0-0.5,0-0.9-0.1-1.4
	c-0.2-1.1-0.1-2.2-0.1-3.3c0.1-1.4,0.2-2.8,0.3-4.1c0-0.3,0-0.6-0.1-0.9c-0.4-0.8-0.3-1.7-0.1-2.5c0.1-0.5,0.1-1,0.1-1.5
	c-0.1-1.1,0-2.2,0.2-3.3c0.2-0.7,0.1-1.5,0.1-2.2c-0.1-0.9-0.2-1.8-0.2-2.8c0-0.6,0-1.1-0.2-1.7c-0.3-1-0.1-2.1,0-3.1
	c0.1-0.7,0-1.5,0-2.2c-0.1-2.1-0.2-4.1,0.2-6.2c0.1-0.7,0.2-1.5,0.3-2.2c0.1-0.8,0.1-1.6-0.1-2.4c-0.2-0.7-0.3-1.4,0-2
	c0.2-0.7,0.2-1.4,0.1-2c-0.1-0.9-0.1-1.7,0-2.6c0.1-1,0.1-2.1-0.1-3.1C121.2,254.3,121.3,253.7,121.3,253z M130.3,313.2
	c0.6-1.3,0.8-1.8,0.5-2.8c-0.5-1.7-0.3-3.4-0.1-5.1c0.1-0.7,0.1-1.5,0-2.2c-0.2-1-0.2-2.1,0-3.1c0.1-0.4,0-0.8,0-1.2
	c0-0.5,0-0.9,0-1.4c0-1.1,0.2-2.2,0-3.3c-0.2-1-0.3-2-0.2-3.1c0-0.7,0.1-1.4-0.1-2.1c-0.2-0.8-0.2-1.5-0.1-2.2
	c0.2-1.3,0.3-2.6,0-3.9c-0.1-0.7-0.1-1.4,0-2.1c0.2-1.6,0.5-3.2,0.2-4.8c0-0.3,0-0.6,0-0.9c-0.1-0.9-0.2-1.8-0.3-3
	c0.5-1.6,0.3-3.6,0.1-5.5c-0.1-0.9-0.2-1.7-0.1-2.6c0.2-0.9,0.2-1.7,0.2-2.6c0-0.6,0.1-1.1,0.2-1.7c0.3-2,0.1-3.9-0.3-5.8
	c0-0.2-0.3-0.3-0.5-0.4c-0.5,0.2-0.9,0.3-1.4,0.5c-1.1-0.4-2.2-0.3-3.4-0.3c-0.5,0-0.9,0.1-1.2,0.5c-0.4,0.9,0,1.7,0.2,2.5
	c-0.2,0.5-0.4,0.9-0.6,1.3c0.4,1.4,0.4,1.7,0.1,3.2c-0.1,0.4-0.1,0.9-0.2,1.2c0.3,0.6,0.5,1.1,0.7,1.6c-0.4,1.2-0.3,2.4-0.3,3.6
	c0,0.9,0,1.8-0.2,2.7c-0.1,0.4-0.2,0.8-0.1,1.2c0.3,1.3,0.2,2.6,0.2,4c0,1.5-0.1,3,0.3,4.5c0.1,0.4,0,0.8,0,1.2
	c-0.2,2.7-0.4,5.4-0.6,8.1c-0.1,0.8,0,1.6,0.4,2.3c0.1,0.2,0.2,0.5,0.4,0.8c-0.1,0.5,0,1-0.2,1.5c-0.4,1.3-0.4,2.6-0.1,3.9
	c0.1,0.6,0.1,1.1,0,1.7c-0.1,0.9-0.3,1.8-0.3,2.7c0,2,0.1,4,0.2,6c0.1,1.2,0,2.4-0.5,3.6c-0.1,0.2-0.1,0.4-0.1,0.6
	c0.2,0.5,0.6,0.7,1,0.7c0.7,0,1.5,0.1,2.2-0.1c1-0.2,1.9-0.4,2.9,0.1C129.6,313.3,129.9,313.2,130.3,313.2z"/>
<path class="st2" d="M374,360.2c0.5,0,1.1-0.1,1.6,0c1.4,0.2,2.7,0.1,4.1-0.2c0.9-0.2,1.8-0.1,2.7-0.2c1.2,0,2.4,0.1,3.6,0
	c1.5-0.1,3,0.2,4.4,0.4c0.5,0.1,1,0.3,1.4,0.6c1.2,0.8,2.1,1.7,2.6,3.2c0.1,1.5-0.4,2.9-1.6,4.1c0.3,0.2,0.6,0.3,0.8,0.4
	c0.6,0.3,1.2,0.5,1.7,0.7c1.1,0.5,2,1.4,2.5,2.6c0.1,0.3,0.3,0.6,0.4,0.8c0,0.8,0,1.5,0,2.1c-0.3,0.3-0.6,0.6-0.8,0.9
	c-0.6,1.1-1.6,1.6-2.7,2c-1.2,0.4-2.5,0.7-3.9,0.7c-2.9,0-5.9,0-8.8,0c-0.6,0-1.3,0.1-1.9,0.1c-1.7,0-3.3,0-5-0.1
	c-0.6,0-1.1-0.2-1.7-0.4c-0.2-0.3-0.5-0.7-0.6-1c-0.1-0.9-0.4-1.8-0.2-2.7c0.1-0.8,0-1.7,0-2.6c0-0.5-0.1-0.9-0.1-1.4
	c0.2-1.5,0-3,0-4.5c0-1.4,0.2-2.7,0.3-4.1C373,361.2,373.3,360.7,374,360.2z M377.4,375c0.3,0,0.6,0.1,0.9,0.1c0.7,0,1.4,0,2.1,0
	c1.7,0,3.3,0,5-0.1c1.4-0.1,2.7-0.2,4.1-0.2c1.2,0,2.4-0.3,3.3-0.9c0.4-0.5,0.5-0.9,0.4-1.4s-0.4-0.8-0.8-1.1
	c-0.5-0.2-0.9-0.4-1.4-0.6c-1-0.4-2-0.4-3.1-0.4c-1.7,0-3.4-0.1-5.2-0.1c-1.3,0-2.5,0.1-3.8,0.2c-0.6,0-1.3,0.1-1.8,0.6
	C377.1,372.4,376.9,373.7,377.4,375z M389.7,364.3c-0.9-0.1-1.6-0.3-2.3-0.3c-1.4-0.1-2.8-0.1-4.1-0.1c-1,0-1.9-0.1-2.9-0.1
	c-1.1,0-2.2,0-3.1,0.6c-0.2,1-0.2,1.9,0.5,2.8c1.2,0.5,2.5,0.5,3.8,0.2c0.6-0.1,1.2-0.2,1.9,0c1.3,0.3,2.5,0.2,3.8,0.1
	c0.9-0.1,1.8-0.2,2.6-0.6C390,365.9,389.8,365.2,389.7,364.3z"/>
<path class="st2" d="M233.1,373.8c0.1-0.4,0.3-0.8,0.5-1.2c-0.2-0.2-0.3-0.3-0.4-0.4c-1.1-0.5-2.3-0.8-3.5-0.6c-0.3,0-0.6,0.1-0.9,0
	c-0.8-0.1-1.6,0-2.3,0.3c-0.8-0.2-1.5-0.3-2.2-0.4c-1.1-0.7-0.8-1.7-0.9-2.7c0.2-0.3,0.4-0.5,0.5-0.8c0.2,0,0.3-0.1,0.4-0.1
	c0.3,0.1,0.6,0.2,1,0.1c0.3-0.1,0.6-0.1,0.8,0c1.7,0.5,3.4,0.1,5.2,0.3c0.6,0.1,1.3,0,1.9,0c0.9,0,1.7-0.1,2.6,0.2
	c0.4,0.1,0.9,0.1,1.4,0.1c0.3,0.2,0.6,0.4,0.9,0.6c0.8,2,0.8,2.3,0.2,4.9c-1.3,2.2-3.4,3.3-5.9,4c-1.2,0.3-2.5,0.6-3.7,0.6
	c-0.9,0-1.8,0.3-2.7,0.5c-1.2,0.2-2.4,0.1-3.6-0.1c-1-0.1-1.9-0.4-2.9-0.5c-0.8-0.1-1.6-0.4-2.3-0.7c-0.5-0.2-1-0.3-1.7-0.6
	c-0.3-0.2-0.8-0.5-1.3-0.9c-1.1-1-2-2.3-2.4-3.7c-0.5-2-1-4-0.7-6c0.5-0.9,0.9-1.6,1.4-2.6c0.5-0.5,1.3-1.1,2-1.7
	c0.3-0.2,0.6-0.4,0.9-0.5c1.3-0.5,2.6-1,3.8-1.5c0.2-0.1,0.4-0.2,0.7-0.2c2.9-0.3,5.7-0.5,8.6-0.4c0.3,0,0.7,0.1,1,0.1
	c1.1,0.2,2.3,0.4,3.4,0.5c1.7,0.2,3.1,0.8,4.2,2c0.1,0.9,0.1,0.9-0.4,1.8c-0.6,0.3-1.2,0.2-1.8,0.2c-0.5,0-1-0.1-1.6,0
	c-1.6,0.1-3.2-0.2-4.8-0.5c-0.3-0.1-0.6-0.1-0.8-0.2c-1.6-0.4-3.2-0.2-4.8,0.1c-0.9,0.1-1.7,0.2-2.6,0.2c-1.7-0.1-3,0.6-3.9,2.1
	c-0.4,0.6-0.6,1.2-1,1.9c0,1.5,0.4,2.9,0.9,4.4c0.2,0.6,0.6,1.1,1.2,1.4c0.7,0.4,1.4,0.8,2.2,0.9c1.2,0.2,2.5,0.6,3.7,0.8
	c1.1,0.1,2.2,0,3.3-0.1c0.9-0.1,1.8-0.3,2.7-0.1c0.5,0.1,1,0,1.5-0.3C231.7,374.5,232.3,374.2,233.1,373.8z"/>
<path class="st2" d="M82.4,375.6c0.5-0.4,0.8-0.8,1.2-1.2c1.1-0.1,2.2-0.2,3.5-0.3c0.2,0.1,0.6,0.2,1,0.3c0.3,0.1,0.7,0.3,1,0.3
	c1.1,0,2,0.4,3.1,0.5c2.9,0.3,5.9,0.4,8.6-1.2c0.3-0.2,0.6-0.4,0.8-0.6c0.1-0.6-0.1-1.1-0.5-1.5c-0.1-0.1-0.3-0.2-0.4-0.2
	c-1.8-0.4-3.6-0.4-5.4-0.8c-0.1,0-0.2,0-0.3,0c-1.5,0.4-3.1,0-4.6,0c-1.7,0-3.4-0.5-5.1-0.9c-0.4-0.1-0.7-0.3-1.1-0.6
	c-0.5-0.4-1-0.8-1.6-1.3c-0.7-1.3-0.4-2.9-0.3-4.4c0.5-0.6,0.8-1.3,1.4-1.7c1-0.9,2-1.9,3.5-2c0.9,0,1.8-0.2,2.7-0.3
	c0.2,0,0.5,0,0.7,0c1.9-0.5,3.9-0.2,5.9-0.2c0.9,0,1.7,0.1,2.6,0.3c1.7,0.4,3.3,0.9,5.1,1.4c0,0.5,0.1,0.9,0.1,1.3
	c-0.5,0.6-0.8,1.2-1.6,1.6c-0.8,0.1-1.7,0.1-2.6-0.1c-1-0.2-2-0.3-3.1-0.4c-0.5-0.1-1-0.2-1.5-0.3c-0.2,0-0.3-0.1-0.5-0.1
	c-2.6-0.1-5.2,0-7.7,0.9c-0.2,0.3-0.4,0.7-0.6,1.1c0.3,0.4,0.5,0.7,0.7,1c0.3,0.1,0.4,0.2,0.5,0.2c1,0.1,1.9,0.2,2.9,0.5
	c0.9,0.2,1.8,0.3,2.7,0.3c0.2,0,0.5,0,0.7,0c1.2,0.5,2.5,0.4,3.8,0.3c1.5-0.1,2.8,0.3,4.2,0.6c1.2,0.3,2.1,1,3,1.6
	c0.2,0.1,0.4,0.3,0.5,0.5c0.6,1,0.6,2.1,0.7,3.2c0,0.8-0.4,1.4-0.8,2c-1.2,1.6-2.8,2.5-4.8,2.8c-0.7,0.1-1.5,0.3-2.2,0.5
	c-2.3,0.8-4.5,0.6-6.8,0.4c-0.6-0.1-1.2-0.2-1.9-0.2c-0.9-0.1-1.8-0.2-2.7-0.6c-0.4-0.2-0.8-0.2-1.2-0.3c-0.9-0.2-1.8-0.4-2.6-0.6
	c-0.2-0.1-0.4-0.2-0.6-0.4C82.5,376.5,82.4,376.1,82.4,375.6z"/>
<path class="st2" d="M173.8,361.7c0.4-0.4,0.7-0.7,1.2-1.1c1.2-0.1,2.4-0.1,3.6,0.1c0.5,0.1,1.1,0.2,1.4,0.5c1.3,1,2.7,1.7,3.9,2.9
	c0.1,0.1,0.3,0.2,0.4,0.4c1.1,1.4,2.5,2.4,4,3.3c0.5,1.1,1.5,1.8,2.6,2.5c0.5,0.9,1.1,1.7,2.2,2c0.7,0.2,1,0.7,1.3,1.3
	c0.2,0.3,0.3,0.7,0.7,0.7c0.3-0.5,0.2-1.1,0.2-1.7c0-1.7,0-3.5-0.1-5.2c0-0.8-0.3-1.6-0.3-2.4s0.3-1.6,0.3-2.4c0-0.7,0-1.4,0-1.9
	c0.3-0.6,0.7-0.9,1.3-0.8c0.6,0,1.3,0.1,1.9,0.2c0.5,0,0.9,0.3,1.2,0.7c0.2,0.6,0.1,1.2-0.1,1.8c-0.3,1.5-0.3,3-0.2,4.5
	c0.1,0.7,0.3,1.3,0.6,2.2c-0.3,1.1-0.6,2.5,0.1,3.8c-0.1,0.9-0.2,1.7-0.4,2.5c-0.1,0.6-0.2,1.1,0,1.7c0.2,0.5-0.1,1-0.4,1.4
	c-2,0.5-4,0.3-6.1,0.1c-0.3-0.3-0.6-0.7-1-1.2c-0.2-0.1-0.5-0.2-0.8-0.4c0-0.2-0.1-0.3-0.1-0.5c-0.1-0.7-0.5-1.2-1.1-1.4
	c-0.8-0.3-1.4-1-1.9-1.7c-0.8-1-1.7-2.1-2.9-2.7c-0.3-0.2-0.6-0.4-0.8-0.7c-0.4-0.9-1.3-1.5-1.8-2.3c-0.3-0.4-0.7-0.8-1.1-1
	c-0.6-0.4-1.3-0.8-1.8-1.3c-0.4-0.3-0.9-0.5-1.5-0.3c-0.4,0.9-0.4,1.9-0.2,2.8c0.4,1.9,0.4,2.5-0.1,4.3c0.1,0.3,0.1,0.7,0.2,1.1
	c-0.3,1.9-0.3,1.9,0.3,4.8c-0.4,0.5-1,0.6-1.7,0.6c-0.8,0-1.6,0-2.8-0.1c-0.2,0-0.6-0.3-0.8-1c0.1-0.5,0.3-1,0.5-1.6
	c-0.2-0.4-0.3-0.9-0.5-1.3c0.3-0.7,0.3-1.5,0.3-2.4c-0.1-1-0.1-2.1,0.2-3.1c0.2-0.6,0.1-1.3,0.1-1.9c0-1.1,0-2.2,0-3.3
	C173.7,363.3,173.7,362.5,173.8,361.7z"/>
<path class="st2" d="M117.7,360.5c1.6-0.6,3-0.2,4.4-0.4c0.1,0.4,0.2,0.7,0.2,0.9c-0.1,1.8-0.3,3.6-0.4,5.3c0,0.3,0.1,0.5,0.1,0.9
	c0.9,0.2,1.8,0.1,2.6,0.1c2.1-0.2,4.2-0.4,6.4,0c0.4,0.1,0.8,0.1,1.2,0c1.8-0.3,3.7-0.3,5.5,0c0.3,0.1,0.7,0,1,0
	c0.6-0.8,0.8-1.6,0.7-2.5c-0.1-0.7-0.2-1.4-0.3-2c-0.2-0.8-0.1-1.6,0.3-2.4c1.3-0.2,2.7-0.2,4-0.2c0.6,0.8,0.7,1.6,0.6,2.5
	c-0.1,1-0.3,1.9,0,2.9c0.1,0.2,0,0.5,0,0.7c-0.1,0.6-0.2,1.3-0.2,1.9s0.2,1.1,0.3,1.8c-0.5,1.5-0.4,3.2-0.3,4.9
	c0.1,1.3-0.3,2.5-0.5,3.8c0,0.1-0.2,0.3-0.3,0.4c-1,0.2-2-0.3-3-0.3c-0.6-1.3-0.8-2.6-0.4-3.7c-0.1-1.3-0.2-2.4-0.3-3.5
	c-0.5-0.5-1-0.4-1.4-0.4c-2.5,0-5,0-7.4,0c-0.7,0-1.5-0.1-2.2-0.1c-0.1,0-0.1,0-0.2,0c-1.6,0.4-3.2,0-4.8,0.2
	c-0.3,0-0.6,0.2-0.9,0.3c-0.3,0.7-0.2,1.4,0,2.1s0.2,1.5,0,2.2c-0.3,0.8,0.1,1.6,0.1,2.4c-1.3,0.4-2.7,0.6-4.1,0.5
	c-0.1-0.3-0.3-0.5-0.3-0.8c0-0.9,0-1.7,0-2.6c0-0.6,0.1-1.1-0.2-1.7c-0.1-0.1-0.1-0.4-0.1-0.5c0.2-1,0-1.9,0-2.9
	c0-0.5,0-1.1,0.1-1.5c0.3-1.1,0.3-2.3,0.2-3.4C117.5,363.8,117.7,362.2,117.7,360.5z"/>
<path class="st2" d="M357.3,377.6c-1.7,0.7-3.4,1.1-5.2,1.4c-0.5,0.1-0.9,0.2-1.4,0.2c-0.9,0-1.8-0.3-2.7-0.2
	c-0.9,0.1-1.8,0-2.7-0.1c-1.8,0-3.5-0.7-5.2-1.2s-2.7-1.7-3.8-2.8c-0.1-0.1-0.2-0.3-0.3-0.4c-0.3-1.1-0.9-2.1-0.6-3.3
	c0-0.2,0-0.4-0.1-0.7c-0.1-0.6-0.2-1.1-0.2-1.7c0-2,0.1-4,0.1-6.2c0.1-0.2,0.3-0.6,0.6-1.1c0.6-0.2,1.2-0.4,1.8-0.6
	c0.3,0.1,0.5,0.3,0.7,0.4s0.5,0.3,0.8,0.5c0.2,1.2,0.7,2.3,0.2,3.5c0,0.1,0,0.2,0,0.3c0.4,1.9,0.2,3.8,0.3,5.7
	c0.1,1.5,1.1,2.8,2.6,3c0.9,0.1,1.7,0.4,2.5,0.6c0.7,0.2,1.5,0.3,2.2,0.4c0.3-0.1,0.6-0.3,0.9-0.4c2.4,0.5,4.6-0.3,6.7-0.9
	c1.7-1.3,2.3-2.9,2.3-4.8c0-1.7,0-3.3,0-5c0-1,0.1-2,0.4-2.9c0.1-0.3,0.3-0.5,0.5-0.7c1.2-0.2,2.3-0.1,3.5,0
	c0.1,0.4,0.2,0.7,0.2,1.1c-0.1,1.6-0.1,3.2-0.3,4.8c-0.3,1.8-0.6,3.6-0.1,5.5c0.1,0.3,0,0.7,0,0.9c0,0.2-0.1,0.2-0.1,0.3
	c-0.4,0.8-0.7,1.6-1.2,2.3c-0.5,0.6-1.2,1-1.8,1.5C357.7,377.1,357.5,377.4,357.3,377.6z"/>
<path class="st2" d="M290.5,362.2c-0.5,1-1,1.7-1.6,2.3c-0.8,0.3-1.6,0.2-2.2-0.2c-0.9-0.5-1.9-0.7-3-0.6c-0.9,0.1-1.8,0-2.7,0.2
	c-0.5,0.1-1,0-1.5,0c-0.3,0-0.6-0.1-0.9-0.1s-0.6,0-0.9,0.1c-1.2,0.4-2.5,0.2-3.7,0.7c-1.5,0.7-2.6,1.8-2.8,3.4
	c-0.2,1.4-0.2,2.7,0,4.2c0.2,0.2,0.5,0.4,0.8,0.7c1.4,1.3,3,2.1,4.9,2.2c0.7,0.1,1.4,0.2,2.3,0.3c0.3-0.1,0.7-0.3,1.3-0.5
	c0.7,0.2,1.5,0.4,2.1,0.6c1.2-0.1,2.2-0.5,3.2-1c0.4-0.2,0.9-0.4,1.3-0.4c1,0.1,2-0.1,3.1-0.2c0.2,0,0.3,0,0.5,0.1
	c0.6,0.9,0.6,0.9,0.6,2.3c-0.3,0.7-0.9,1.2-1.4,1.4c-1.1,0.2-2,0.5-2.9,0.6c-1,0.1-1.9,0.1-2.9,0.1c-0.9,0-1.7,0-2.5,0.2
	c-1.2,0.3-2.5,0.3-3.8,0.4c-0.4,0-0.8-0.1-1.2-0.2c-1-0.4-2-0.6-3-0.4c-0.6-0.2-1.1-0.5-1.6-0.7c-1-0.3-1.9-0.8-2.5-1.7
	c-0.3-0.4-0.7-0.6-1.1-0.9s-0.8-0.7-1.1-0.9c-0.3-1.3-0.7-2.5-0.8-3.7c-0.2-1.8,0-3.7,1-5.3c0.6-0.9,1.1-1.7,1.5-2.4
	c1.4-1.1,2.9-1.4,4.2-2.1c0.2-0.1,0.6-0.1,0.8-0.2c0.7-0.1,1.4-0.1,2-0.3c1.2-0.3,2.4-0.3,3.6-0.1c0.8,0.2,1.7,0.1,2.6,0.1
	s1.8,0,2.7,0.3c0.6,0.2,1.2,0.1,1.9,0.1C288.3,360.5,289.6,360.8,290.5,362.2z"/>
<path class="st2" d="M36.3,371.2c-0.9,0.3-1.3,1-1.3,1.8c0,0.9,0.1,1.8,0.1,3.1c-0.1,0.3-0.3,0.9-0.5,1.4c-0.4,0.5-1,0.7-1.5,0.9
	c-0.8-0.2-1.6-0.4-2.4-0.8c-0.3-1.8-0.3-6.8,0-8.4c-0.2-1.1-0.4-2.3-0.6-3.6c0.1-0.3,0.3-0.7,0.6-1.2c-0.5-1.2-0.4-2.5-0.1-3.8
	c1.2-1.1,2.5-0.8,3.8-0.5c0.9-0.2,1.7-0.2,2.7,0c1.4,0.3,2.8,0.1,4.2-0.1c0.4,0.1,0.8,0.1,1.2,0.2c1.2,0.6,2.5,0.4,3.7,0.2
	c0.6-0.1,1.1-0.1,1.7,0c0.6,0.1,1.3,0.1,1.9,0.1c1.2,0,2.4,0.1,3.6,0.1c0.5,1.1,0.1,2.2,0.3,3.3c-1,0.7-2,0.4-2.9,0.5
	c-1,0.1-1.8-0.3-2.7-0.7c-1.8,0.2-3.6,0.4-5.4,0.6c-0.9,0.1-1.8,0.1-2.7,0c-1.3-0.2-2.7-0.2-4.1-0.2c-0.1,0-0.2,0.1-0.4,0.1
	c-0.1,0.2-0.3,0.5-0.3,0.8c0.1,0.7,0.2,1.5,0.3,2.2c0.3,0.4,0.7,0.6,1.2,0.6c1.8,0,3.6,0.2,5.3-0.1c1-0.2,2.1,0,3.1,0.4
	c0.5,0.9,0.9,1.8,0.5,3c-0.2,0.1-0.4,0.3-0.6,0.5c-1.3-0.2-2.6-0.3-3.9,0.1c-0.3,0.1-0.7,0.1-1,0C38.7,371,37.5,371.3,36.3,371.2z"
	/>
<path class="st2" d="M258.8,132.6c0.1,0.2,0.2,0.3,0.3,0.4c-0.1,0.1-0.2,0.2-0.3,0.2c-1.5,0.2-3,0.3-4.5,0.4
	c-1.7,0.2-3.4,0.5-5.1,0.7c-1.9,0.3-3.9,0.6-5.8,0.9c-1.1,0.2-2.1,0.4-3.2,0.6c-1,0.2-1.9,0.3-2.9,0.5c-2.1,0.5-4.1,0.9-6.2,1.5
	c-0.7,0.2-1.5,0.3-2.2,0.4c-0.2,0-0.3,0-0.5,0.1c-2.2,0.6-4.3,1.2-6.5,1.8c-2.1,0.6-4.2,1.3-6.3,1.9c-1.8,0.5-3.6,1-5.4,1.7
	c-0.3,0.1-0.5,0.2-0.8,0.3c-1.5,0.2-2.9,0.8-4.3,1.3c-1.6,0.6-3.2,1-4.8,1.5s-3.1,1.1-4.7,1.7c-2,0.7-3.9,1.3-5.9,2
	c-1.3,0.4-2.6,0.9-3.9,1.3c-1.6,0.5-3.2,1-4.7,1.6c-1.7,0.6-3.6,0.9-5.2,1.7c-0.3,0.1-0.5,0.2-0.8,0.3c-0.7,0-1.2,0.4-1.8,0.5
	c-2.2,0.6-4.2,1.5-6.4,1.9c-0.2,0-0.5,0.1-0.7,0.2c-2.5,0.8-5,1.3-7.5,1.9c-2.1,0.5-4.3,0.9-6.4,1.3c-0.7,0.1-1.5,0.2-2.2,0.3
	c-3.4,0.5-6.7,0.9-10.1,0.9c-1.3,0-2.5,0.2-3.8,0.2c-1.2,0.1-2.3,0-3.4-0.2c-0.3-0.1-0.7-0.1-1-0.1c-1.6,0.1-3.1-0.2-4.6-0.3
	c-2.9-0.2-5.7-0.9-8.3-2.2c-1.6-0.7-2.7-2-3.3-3.6c-0.4-1-0.5-2.2,0-3.2c0.9-2,1.8-4,3.1-5.7c1-1.3,2-2.5,3-3.9
	c0.3,0.3,0.4,0.5,0.6,0.7c-0.6,1.2-1.5,2.1-2.2,3.1c-0.9,1.2-1.7,2.5-2.5,3.7c-0.8,1.3-1,2.7-1,4.1c0,0.3,0,0.7,0.2,1
	c0.7,1.4,1.6,2.5,3.1,3.1c2.3,1,4.7,1.6,7.2,1.8c1.7,0.5,3.4,0.1,5.1,0.6c0.2,0,0.3,0,0.5,0c2.5,0,5,0,7.4,0c0.6,0,1.3-0.1,1.9-0.2
	c1.2-0.1,2.4-0.2,3.6-0.3c0.5,0,0.9,0,1.4-0.1c2.5-0.4,5-0.8,7.5-1.3c3.5-0.7,7-1.4,10.4-2.5c1.4-0.5,2.9-0.8,4.3-1.2
	c3.4-0.9,6.7-2,10-3.1c1.8-0.6,3.6-1.2,5.4-1.8c0.8-0.3,1.5-0.5,2.3-0.7c0.8-0.3,1.5-0.6,2.3-0.8c1.4-0.4,2.7-0.9,4.1-1.5
	c2.4-0.9,4.8-1.6,7.2-2.4c2.2-0.8,4.5-1.5,6.7-2.3c3.7-1.2,7.3-2.4,11-3.5c2.5-0.7,5.1-1.4,7.6-2.1c2.9-0.8,5.9-1.4,8.8-2.3
	c0.6-0.2,1.1-0.2,1.7-0.3c1.3-0.3,2.6-0.5,3.9-0.8c0.3-0.1,0.6-0.2,0.8-0.2c2.3-0.2,4.5-0.7,6.8-1c2-0.3,4.1-0.8,6.2-0.8
	c0.4,0,0.8-0.1,1.2-0.2C256.3,132.6,257.5,132.6,258.8,132.6z"/>
<path class="st2" d="M148.5,192.4c-0.2-0.6-0.4-1.1-0.6-1.6c0.2-1.3,1.2-1.7,2.3-2.2c0.7-0.9,0.8-2.1,0.9-3.4c0.3-0.3,0.8-0.7,1.2-1
	c0.8-0.2,1.4-0.6,2.3-0.3c0,0.2,0.1,0.4,0.2,0.6c-1,0.3-2.1,0.3-2.4,1.7c0.1,0.3,0.3,0.7,0.5,1.1c0.5,0.1,0.9,0.3,1.4,0.4
	c0.1,0.2,0.1,0.4,0.2,0.6c-1,0.5-1.8,0-2.8-0.2c-0.2,0.3-0.3,0.5-0.5,0.7c0.2,0.3,0.3,0.6,0.5,1c0.4,0.9,0.3,1.7-0.5,2.3
	c-0.3,0.2-0.6,0.4-0.8,0.5c-0.6,0.7-0.8,1.5-1.1,2.2c-1,2.4-2.1,4.7-3.1,7.1c-0.4,0.9-0.8,1.9-1.2,2.9c-0.2,0.5-0.3,1-0.6,1.4
	c-1.2,2.5-1.9,5.2-2,8c0,0.5-0.1,1-0.2,1.5c0.1,0.8,0.4,1.6,0.9,2.2c0.5,0.8,1.2,1.2,2.2,1.2c1.4,0,2.6-0.5,3.3-1.8
	c0.2-0.4,0.4-0.7,0.6-1.1c-0.2-0.4-0.5-0.9-0.7-1.4c1.6-1.6,2.5-3.7,3.9-5.5c0.2,0,0.3,0,0.5,0c0.3,0.5,0.2,0.9,0.1,1.4
	c-0.1,0.6-0.3,1.1-0.3,1.7c0,1.4-0.4,2.6-1,3.8c-0.7,1.4-1.4,2.9-2.6,4c-0.2,0.2-0.4,0.4-0.7,0.6c-0.7,0.1-1.4,0.2-2.1,0.3
	c-1.4-0.2-2.6-0.6-3.7-1.4c-1.1-0.8-1.3-2.1-1.7-3.4c-0.8,0.5-1,1.4-1.2,2.1c-0.3,0.7-0.4,1.6-1,2.3c-0.2,0-0.6,0.1-0.9,0.1
	c-0.1-0.2-0.3-0.4-0.3-0.6c0-0.2,0-0.3,0-0.4c0.4-1,0.8-2,1.2-3.1c0.1-0.3,0.2-0.7-0.2-1c-0.5,0.2-1,0.4-1.6,0.6
	c-0.7,0.3-1.4,0.4-2.2,0.1c-0.3-0.1-0.5-0.2-0.8-0.3c-2-0.5-3.3-2-3.5-4c-0.1-0.9,0.1-1.7,0.3-2.5c0.2-0.7,0.4-1.3,0.6-2
	c0.1-0.4,0.3-0.8,0.5-1.1c1-1.6,2-3.2,3.2-4.7c0.1-0.1,0.2-0.1,0.3-0.1c0,0.2,0.1,0.3,0,0.5c-0.4,2-0.7,4-1.1,6.1
	c-0.5,0.1-0.9,0.1-1.5,0.2c-0.2,0.4-0.4,0.8-0.6,1.2c-0.2,0.4-0.2,0.9-0.4,1.4c0.1,0.5,0.2,1,0.4,1.7c0.5,0.4,1,0.9,1.5,1.3
	c1.4,0.9,3,0.8,4.3-0.3c1.2-1.1,2.3-2.2,2.9-3.8c0.2-0.6,0.6-1.1,0.9-1.6c0.3-0.4,0.6-0.9,0.7-1.4c0.3-1.3,0.9-2.3,1.4-3.5
	c1.4-3.3,2.7-6.6,4.1-9.9C148.2,193.4,148.3,192.9,148.5,192.4z M151,190.9c-0.2-0.7-0.6-1.1-1.5-1c-0.2,0.3-0.4,0.6-0.5,0.9
	c0.1,0.6,0.4,0.9,0.9,1.1C150.3,191.8,150.8,191.6,151,190.9z"/>
<path class="st2" d="M223.8,235.6c-0.4,0.3-0.6,0.5-0.9,0.7c-0.4,0.3-0.7,0.6-1.1,0.8c-1.5,0.8-3,0.7-4.5,0
	c-1.4-0.7-2.4-1.7-2.7-3.4c-0.3-2.2,0-4.3,0.6-6.5c0.1-0.2,0.2-0.4,0.3-0.6c0.4-0.9,0.8-1.8,1.2-2.7c0.2-0.3,0.4-0.7,0.7-1.1
	c0.1,0.3,0.3,0.4,0.3,0.5c0,1-0.1,2.1,0,3.1c0.2,1,0.2,1.9,0.2,2.9c0,0.2,0,0.5,0,0.7c-0.3,0.2-0.6,0.5-1,0.8
	c-0.4,0.6-0.5,1.3-0.3,2.1c0.3,1,0.8,1.9,1.8,2.6c0.3,0.1,0.6,0.1,0.9,0.2c1.6,0.2,2.8-0.6,3.6-1.9c0.5-0.9,1.2-1.8,1.6-2.8
	c0.6-1.4,1.2-2.9,1.2-4.4c0-0.2,0.1-0.5,0.1-0.7c0.6-2,0.9-4,1-6.1c0-0.2,0-0.5,0.1-0.7c0.6-2.2,0.6-4.6,1.2-6.8
	c0.2-0.8,0.1-1.5-0.1-2.2c-0.4-1.2-0.4-1.2-0.2-2.4c0.4-0.3,0.8-0.6,1.2-0.9c0.4-0.7,0.7-1.3,0.5-2.2c-0.5-0.6-1.3-1.1-1.5-2
	c0.2-0.5,0.2-0.5,0.7-0.9c0.4,0.5,0.8,1,1.3,1.6c0.4-0.2,0.8-0.3,1.1-0.5c0.1-0.4,0.3-0.8,0.4-1.2c0.2,0,0.4,0,0.6-0.1
	c0.5,1.5-0.4,2.3-1.4,3c-0.1,0.7-0.3,1.3-0.3,1.7c0,1,0.7,1.3,1.1,2c0.4,1.4-0.7,2.1-1.5,2.9c-0.3,1.5-0.8,3.1-0.9,4.6
	c-0.1,2.2-0.6,4.3-1.1,6.4c0,0.1-0.1,0.2-0.1,0.3c-0.2,1.5-0.3,3-0.5,4.5c-0.1,1.2-0.2,2.4-0.3,3.6c-0.1,0.9-0.1,1.8,0.3,2.7
	c0.2,0.5,0.3,1,0.4,1.5c0.6,2.3,2.7,2.8,4.4,2.7c0.6,0,1.2-0.4,1.6-0.9c0.3-0.3,0.5-0.6,0.7-1c0.2-0.7,0.3-1.4,0.5-2.2
	c-0.4-0.3-0.7-0.6-1.1-0.9c0-0.3,0-0.6,0.1-0.8c0.8-1.8,1.5-3.6,2.3-5.4c0.1,0.1,0.3,0.1,0.3,0.2c0.1,1.3,0.3,2.6,0.3,3.9
	c0,2.1-0.5,4.1-1.2,6.1c-0.6,1.6-1.8,2.4-3.3,2.7c-1.8,0.4-3.3-0.2-4.7-1.2c-0.5-0.3-0.7-1-1.2-1.5c-0.1,0-0.3,0-0.5-0.1
	c-0.8,1.3-0.4,3-1.1,4.3c-0.1,0-0.2,0.2-0.3,0.2c-0.3,0-0.5,0-0.8-0.1c-0.3-0.8,0-1.4,0-2.1c0.1-0.8,0.3-1.6,0.4-2.4
	C224,236.1,223.9,235.9,223.8,235.6z M229.7,209.8c0.5-0.4,0.7-0.9,0.4-1.5c-0.3-0.5-0.7-0.7-1.3-0.5c-0.4,0.3-0.7,0.6-0.6,1.2
	c0.2,0.2,0.4,0.5,0.7,0.8C229.2,209.8,229.5,209.8,229.7,209.8z"/>
<path class="st2" d="M307.9,374.6c0.6,0.3,1,0.1,1.5,0c0.7-0.2,1.5-0.2,2.2-0.1c0.2,0,0.3,0.1,0.5,0.1c1.5-0.2,3,0.2,4.4,0.2
	c1.7,0,3.5,0,5.2,0c1,0,1.9,0.1,2.9,0.3c0.7,1.1,0.8,2.2,0.2,3.4c-2.1,0.1-4-0.3-5.7,0.3c-0.9-0.1-1.6-0.3-2.3-0.3
	c-2.9,0-5.9,0-8.8,0.1c-0.8,0-1.6,0.1-2.4,0.2c-0.7,0.1-1.5,0.1-2.2-0.4c-0.3-0.8-0.1-1.6-0.2-2.4c0-1.1-0.1-2.3-0.1-3.4
	c-0.1-1.1-0.2-2.3,0.1-3.4c0.1-0.4,0.1-0.9,0.1-1.4c0-1.7-0.1-3.4-0.1-5.2c0-0.6,0.1-1.1,0.2-1.6c0.7-0.9,1.5-0.6,2.3-0.7
	c0.7,0,1.2,0.2,1.7,0.9c0,0.5,0,1.1,0.1,1.6c0.1,2.1,0.2,4.2,0.2,6.4c0,1.1,0,2.2-0.1,3.3C307.5,373.1,307.3,373.9,307.9,374.6z"/>
<path class="st2" d="M284.7,188.3c0.7-0.7,1.7-0.7,2.4-1.5c-0.4-0.4-0.8-0.7-1.2-1.1c0.2-0.3,0.5-0.6,0.6-0.9
	c0.1-0.3,0.2-0.6,0.3-0.9c-0.5-0.5-1-0.9-1.4-1.2c0-0.4,0.2-0.5,0.4-0.5c0.8-0.1,1.5,0.3,1.9,0.9c0.3,0.4,0.4,0.8,0.7,1.2
	c0.2,0.2,0.4,0.4,0.7,0.6c0.9-0.9,1.9-1.6,3.2-2c0.3,0,0.8,0,1.2,0c0.7-0.5,1.3-0.9,1.9-1.3c1-0.5,1.8-1.2,2.6-2
	c0.7-0.7,1.6-1.3,2.4-1.9c2.4-1.9,4.4-4,6.2-6.5c0.9-1.2,1.8-2.4,2.6-3.6c0.5-0.8,0.9-1.6,1.3-2.4c0.3-0.6,0.5-1.3,0.8-1.9
	c0.8-1.7,1.3-3.5,1.5-5.4c0.1-0.7,0.3-1.5,0.5-2.6c0-0.6-0.2-1.6-0.1-2.7c0.1-0.8-0.2-1.6-0.5-2.3c-0.2-0.6-0.5-1.3-0.7-2
	c-0.1-0.4-0.3-0.9-0.6-1.3c-0.3-0.6-0.7-1.1-1-1.6c-0.6-0.9-1.3-1.7-2.1-2.5c-1.6-1.6-3.4-3.1-5.5-4.1c-1.9-0.9-3.8-1.7-5.7-2.4
	c-1.8-0.7-3.7-1.2-5.6-1.7c-1.5-0.4-3-0.8-4.6-0.9c-1.3-0.1-2.5-0.3-3.8-0.5c-0.6-0.1-1.3-0.1-1.9-0.1c-0.8,0-1.6-0.2-2.3-0.5
	c-0.1,0-0.2-0.2-0.4-0.5c0.8,0,1.5,0,2.2,0c0.4,0,0.8,0.1,1.2,0.1c1.7,0.1,3.3,0.5,5,0.6c1.1,0,2.2,0.2,3.2,0.5
	c2.5,0.6,4.9,1.1,7.3,2c2.8,1,5.4,2.2,8,3.6c0.8,0.4,1.5,1,2.2,1.7c0.2,0.2,0.5,0.5,0.8,0.7s0.7,0.4,1,0.7c0.6,0.6,1.1,1.3,1.6,2
	c0.9,1.2,1.7,2.4,2.3,3.9c0.8,2,1.3,4,1.3,6.2c0,1.3,0.1,2.5-0.3,3.8c-0.1,0.3-0.1,0.7-0.1,1c-0.1,0.4-0.1,0.8-0.2,1.2
	c-0.6,1.7-1.1,3.5-1.8,5.2c-0.1,0.2-0.2,0.4-0.4,0.6c-0.3,0.4-0.5,0.8-0.7,1.2c-1.1,2.1-2.7,3.9-4.1,5.8c-1,1.3-2.1,2.4-3.3,3.5
	c-1,1-2,2-3.2,2.9c-1.7,1.2-3.1,2.7-5,3.6c-1,0.5-1.6,1.3-2.1,2.2c-1.4,0.8-2.8,1.2-4.3,1.2c-0.8,1.3-1.7,2.4-3.3,3.1
	c-0.3-0.1-0.6-0.2-0.9-0.3C284.7,188.7,284.7,188.5,284.7,188.3z"/>
<path class="st2" d="M157.5,360.3c0.8-0.1,1.6-0.1,2.3-0.2c1.1,0.5,1.3,1.2,1.1,2c-0.1,0.3-0.2,0.7-0.2,1c0,0.5-0.2,1,0,1.4
	c0.4,1.3,0.2,2.6-0.1,4c0.1,0.5,0.3,1.1,0.5,1.9c-0.5,1.3-0.2,2.8-0.2,4.3c0,1,0,2.1,0,3.1c-0.5,0.4-1,0.8-1.4,1.2
	c-1,0.1-2,0.2-3-0.1c-0.1-0.3-0.2-0.5-0.3-0.8c-0.1-1.7-0.2-3.3,0.2-5c0.1-0.3,0.1-0.7,0.1-1c-0.1-2.4-0.1-4.8,0.2-7.2
	c0.1-0.7-0.1-1.4-0.2-2.1C156.3,361.7,156.4,361.5,157.5,360.3z"/>
<path class="st2" d="M65.1,361.4c0.5-0.8,1.2-0.9,1.9-1c1.3,0.3,1.9,1.3,2.5,2.3c0,0.8,0.1,1.6,0.1,2.4c0,0.3,0,0.7-0.1,1
	c-0.4,1-0.2,1.9-0.1,2.9c0.3,2.8,0.6,5.5,0.5,8.3c0,0.2,0,0.3-0.1,0.5c-0.3,0.6-0.8,1-1.5,1.1c-1,0.1-2,0-2.7-0.7
	c-0.4-0.7-0.5-1.5-0.4-2.4c0.1-1.7,0-3.5-0.2-5.2c0-0.3,0-0.6,0-0.8c0.2-1.4,0.2-2.7-0.1-4.1c-0.1-0.6-0.1-1.1,0-1.7
	c0.1-0.4,0.1-0.8,0.1-1.2C65.1,362.3,65.1,361.8,65.1,361.4z"/>
<path class="st2" d="M132.4,130.8c-0.3-0.4-0.5-0.7-0.7-1c0.5-2.8-0.5-4.8-3.2-5.7c-0.9-0.1-1.8-0.3-2.7-0.4
	c-2.1-0.2-4.1-0.1-6.2,0.4c-1.3,0.3-2.6,0.6-3.8,0.9c-0.6,0.2-1.2,0.5-1.8,0.7c-2.5,0.6-4.7,1.7-7,2.8c-1.5,0.7-2.8,1.6-4,2.7
	c-0.4,0.3-0.8,0.7-1.3,0.7c-0.3-0.2-0.3-0.5-0.1-0.7c0.3-0.4,0.6-0.8,1-1.1c0.8-0.6,1.6-1.1,2.5-1.6c2.4-1.4,5-2.6,7.7-3.4
	c0.3-0.1,0.5-0.2,0.8-0.3c2.2-0.9,4.6-1.1,6.8-1.7c1.4,0.1,2.7-0.4,4.1-0.1c1.1,0.2,2.2,0.1,3.3,0.1c1.9,0.1,3.4,1,4.5,2.5
	c0.6,0.8,0.9,1.7,0.9,2.7C133.2,129.1,133.2,130,132.4,130.8z"/>
<path class="st1" d="M206.9,92.2c-1.5,2-3.7,2.2-5.9,2.2c-1.3,0-2.5,0.1-3.5,0.7c-0.8,0.1-1.6,0.3-2.3,0.4s-1.5,0.2-2.2,0.2
	c-0.8,0-1.6,0.1-2.3,0.4c-1.5-0.2-3-0.4-4.5-0.1c-1,0.2-1.9,0.3-2.9,0.5c-0.4,0.1-0.8,0.2-1.2,0.2c-0.8-0.2-1.5,0-2.2,0.1
	c-0.1,0-0.2-0.1-0.4-0.1c-0.1-0.1-0.2-0.3-0.2-0.4c-0.1-0.9-0.3-1.7-0.3-2.6c-0.1-1.7-0.2-3.4-0.4-5.2c-0.2-1.9-0.4-3.8-0.6-5.7
	c0-0.2-0.1-0.5-0.1-0.7c0-1.1-0.2-2.2-0.5-3.2c-0.2-0.5-0.3-1-0.1-1.5c0.4-1.3,0.1-2.5-0.2-3.7c-0.1-0.4-0.2-0.9-0.2-1.2
	c0.5-0.9,1.1-1,1.8-1c1.3,0,2.5,0,3.8,0c1.2,0,2.3-0.1,3.4-0.6c0.3-0.1,0.7-0.3,1-0.2c1,0.2,1.9-0.1,2.9-0.3
	c0.6-0.1,1.3-0.2,1.9-0.1c1.4,0.2,2.6-0.1,3.9-0.4c0.6-0.1,1.2-0.3,1.8-0.4c1.3,0.3,2.6,0.3,4,0.2c1.1-0.1,2.1,0.1,3.1,0.7
	c0.7,0.4,1.4,0.7,2.2,1c0.9,0.4,1.7,0.9,2.4,1.6c0.4,0.5,0.9,0.8,1.5,1.3c0.1,0.7,0.4,1.4,0.9,2.1s0.7,1.4,0.6,2.3
	c-0.1,1,0,1.9,0.2,2.9c0.2,1.2,0.5,2.4,0.2,3.6c-0.1,0.8-0.4,1.6-1,2.2c-0.5,0.6-0.9,1.3-1.3,2C209.6,90.9,208.6,91.9,206.9,92.2z
	 M209.9,80.5c-0.2-0.8-0.4-1.6-0.5-2.4c-0.2-0.8-0.5-1.4-1-2c-1.1-1.2-2.4-2.3-4-3c-0.8-0.4-1.7-0.6-2.7-0.6c-1.5,0-3,0-4.5,0
	c-0.5,0-0.9,0-1.4,0.1c-2,0.6-4.1,0.3-6.2,0.6c-1.1,0.2-2.3,0.2-3.4,0.4c-1.7,0.4-3.4,0.5-5.1,0.3c-0.5,0-1-0.2-1.6,0.2
	c-0.1,0.2-0.3,0.5-0.2,0.7c0,0.6,0.1,1.3,0.3,1.9c0.8,2,0.9,4,1,6.1c0.1,1.5,0.2,3,0.3,4.5c0,1.1,0.3,2.3,0.2,3.4
	c-0.1,0.8,0.2,1.6,0.3,2.4c0.3,0.4,0.4,1,1.1,1c0.3-0.2,0.6-0.4,0.7-0.5c1,0,1.9,0,2.7,0c1,0,1.9-0.2,2.9-0.2c1.2-0.1,2.3,0,3.5-0.1
	c0.9,0,1.7-0.2,2.5-0.6c0.4-0.2,0.8-0.4,1.2-0.5c1.5,0.5,3,0.2,4.5,0.1c0.3,0,0.6-0.1,0.8-0.3c1.7-1,3.6-1.5,5.4-1.8
	c0.9-0.6,1.4-1.3,2-2.1c0.4-0.5,1.3-3.8,1.3-4.4c0-0.7-0.2-1.4-0.5-2c0-0.1,0-0.2,0-0.3C209.6,81,209.7,80.8,209.9,80.5z"/>
<path class="st1" d="M105.7,116.2c-0.2-1.4-1.1-2-2.1-2.8c0-0.6,0-1.3,0-1.8c-0.5-0.9-1-1.6-1.7-2.2c-0.8-0.7-1.4-1.5-1.9-2.4
	c-0.4-0.6-0.8-1.2-1.4-2.1c0-0.1-0.2-0.6-0.3-1c-0.4-0.4-0.8-0.8-1.2-1.2c-0.7-0.7-1.2-1.5-1.4-2.5c-0.3-1.5-0.6-3-0.4-4.6
	c0.6-0.8,1.3-1.3,2.1-1.5c0.8-0.2,1.5-0.7,2-1.2c0.8-0.9,2-1.1,3-1.5c0.4-0.1,0.9-0.1,1.3,0.1c0.7,0.3,1.5,0.7,2.2,1
	c0.8,1.6,1.7,3.3,3.3,4.5c0.1,0.5,0.2,1.1,0.4,1.8c0.6,0.5,1,1.2,1.5,2c0.8,1.5,1.5,3,2.6,4.2c0.4,0.4,0.6,0.9,1.1,1.7
	c-0.1-0.1,0,0.1,0.2,0.1c0.7,0.4,1.1,1,1.2,1.8c0.2,0.9,0.6,1.6,1.2,2.2c1,1.1,1.9,2.1,2.9,3.2c0.5,0.5,0.6,0.8,0.9,2.1
	c0.1,0.1,0.2,0.3,0.4,0.4c0.1,0.1,0.3,0.2,0.4,0.4c0.4,1.2,1,2.2,2,3c0.4,0.3,0.7,0.7,0.5,1.4c-1,0.1-2,0.1-3.1,0
	c-0.2-0.3-0.4-0.6-0.5-0.9c-0.3-0.8-0.6-1.5-1.1-2.1c-0.3-0.4-0.6-0.8-0.7-1.2c-0.3-1.2-1.1-2-2.1-2.7c-0.1-1.1-0.9-1.8-1.6-2.6
	c-0.6-0.7-1.3-1.5-1.6-2.4c-0.2-0.5-0.6-1-0.9-1.5c-1-1.5-2.1-3-2.8-4.7c-0.1-0.3-0.2-0.6-0.5-0.7c-0.8-0.6-1.3-1.5-1.9-2.2
	c-0.8-0.9-1.5-1.9-1.9-3c-0.4-1-1-1.9-1.6-2.9c-0.1-0.2-0.3-0.3-0.5-0.4c-0.2,0-0.4,0-0.5,0.1c-1.3,0.8-2.8,1.3-4.2,1.9
	c-0.6,0.2-1.1,0.6-1.6,0.9c-0.2,0.1-0.3,0.4-0.5,0.6c0.1,1,0.9,1.4,1.3,2.2c0.1,0.3,0.1,0.6,0.2,1c0.1,0.1,0.3,0.3,0.5,0.4
	c0.7,0.4,1.2,1,1.6,1.8c0.3,0.5,0.6,1,1,1.4c0.2,0.3,0.5,0.6,0.7,1c0.4,1.1,1.1,1.9,1.6,2.9c1.1,2,2.5,3.7,3.8,5.5
	c1.1,1.4,1.8,3.1,2.4,4.7c0.3,0.7,0.6,1.3,1.1,1.9c0.9,1,1.8,2,2.7,3c-0.3,0.2-0.4,0.4-0.6,0.4c-0.5,0.1-1,0.2-1.6,0.4
	c-0.2-0.2-0.4-0.5-0.6-0.7c-0.5-0.7-1-1.4-1.5-2.1c-0.4-0.7-0.9-1.3-1.2-2.1C107.7,117.8,107,116.8,105.7,116.2z"/>
<path class="st1" d="M119,136.8c0-1-0.4-1.8-1.3-2.3c-0.2-1.3-0.8-2.3-1.9-2.9c-0.1-0.4-0.2-0.7-0.3-1.2c-0.9-0.6-1.2-1.6-1.6-2.6
	c0.9-0.6,0.9-0.6,2.2-0.8c0.6,0.3,0.6,1.1,1.1,1.7c0.5,0.3,1,0.9,1.2,1.7c0.2,0.7,0.5,1.3,1.2,1.6c0.2,0.5,0.3,0.9,0.5,1.3
	c0.2,0.5,0.4,1,0.8,1.3c1.2,1.2,2,2.6,2.7,4.1c0.1,0.2,0.2,0.3,0.3,0.4c0.3,0.4,0.6,0.7,0.8,1.1c0.2,0.3,0.4,0.7,0.5,1
	c0.5,0.4,0.9,0.8,1.3,1.2c0.3,0.4,0.5,0.9,0.8,1.3c0.2,0.4,0.4,0.7,0.6,1.1c0.2,0.4,0.5,0.8,0.7,1.2s0.3,0.8,0.4,1.2
	c0.6,0.7,1.3,1.4,2,2.1c0.6,0.6,1.1,1.3,1.3,2.2c0.1,0.4,0.3,0.8,0.5,1.1c0.1,0.2,0.4,0.4,0.6,0.7c0.4-0.3,0.8-0.6,1.2-0.9
	c0.3-0.1,0.7-0.1,1.1-0.2c0.2-0.3,0.5-0.7,0.8-1.2c0.4-0.1,0.9-0.2,1.4-0.4c0.7-0.3,1.4-0.7,1.5-1.6c-0.4-1-0.8-2-1.6-2.8
	c-0.3-0.3-0.5-0.7-0.6-1c-0.1-1.1-0.7-1.9-1.6-2.5c-0.6-1.2-1.3-2.2-2-3.3c-1-1.4-1.9-2.9-2.9-4.3c-0.3-0.5-0.5-1-0.7-1.6
	c-1.1-1.2-2.1-2.4-3.2-3.6c0-0.5,0.1-0.8,0.1-1.3c-1-1.1-1.7-2.3-2.4-3.6c0.9-0.2,1.7-0.1,2.3,0c1.5,1.1,2.3,2.7,3.3,4.1
	c0.1,0.1,0.2,0.3,0.3,0.4c0.2,1.4,1.3,2.2,1.9,3.2c0.5,0.9,1.2,1.7,1.7,2.6c0.4,0.8,0.9,1.5,1.4,1.9c1,1.8,1.9,3.3,2.7,4.9
	c0.1,0.2,0.3,0.5,0.4,0.8c0.1,0.5,0.5,0.9,0.9,1.2c0.8,0.6,1.3,1.4,1.8,2.3c0.3,0.6,0.7,1.1,1.2,1.8c0,0.6,0,1.4,0,2.2
	c-1,1-2.2,1.8-3.5,2.4c-1,0.4-1.8,0.9-2.6,1.6c-0.6,0.5-1.2,0.9-1.8,1.3c-0.7,0-1.4,0-2.1,0c-0.7-0.4-1.2-1-1.6-1.7
	c-0.7-1.1-1.4-2.1-2-3.2c-0.5-0.8-0.9-1.7-1.4-2.6c-0.2-0.4-0.3-0.8-0.6-1c-0.6-0.6-1.1-1.3-1.4-2.1c-0.1-0.2-0.2-0.3-0.3-0.4
	c-1.5-1.6-2.5-3.5-3.6-5.2c-0.1-0.2-0.3-0.4-0.3-0.6C120.7,138.2,120,137.4,119,136.8z"/>
<path class="st1" d="M292.2,89.2c0.2-0.4,0.3-0.6,0.4-0.8c0.7-0.2,1.4-0.5,2.1-0.5c1.7,0,3.3,0,5-0.2c0.2,0,0.5,0,0.7,0
	c1.5,1.6,3.3,2.6,5.6,2.6c0.3,0.5,0.7,1,1.1,1.5c1,0.5,2,1.1,3.1,1.7c0.7,0.8,1.4,1.5,2.1,2.3c0.6,0.6,1.1,1.3,1.4,2.2
	c0.6,1.7,1.7,3,2.8,4.3c0.8,0.1,1.4,0,2.1-0.2c1.5-0.6,3-1.1,4.5-1.7c0.1,0,0.2-0.2,0.2-0.3c0.2-0.4,0-0.8-0.2-1.1
	c-0.7-1.2-1.3-2.4-1.6-3.8c-0.1-0.4-0.3-0.7-0.6-1c-0.3-0.4-0.6-0.7-1-1c-1-1-1.8-2.2-2.4-3.5c-1.8-1.4-3.5-3-5.6-4
	c-0.8-0.4-1.4-1-2.2-1.3c-0.5-0.2-0.8-0.6-1.2-1c-0.5-0.5-1-1.1-1.8-1.4c-0.4,0-0.9-0.1-1.3-0.1c-1-0.4-1.9-0.7-2.7-1
	c-0.3,0.1-0.6,0.1-0.8,0.2c-1,0.3-1.9,0.3-2.9,0c-0.3-0.1-0.7-0.1-1-0.3c-1.2-0.5-2.4-0.4-3.5,0.3c-0.4-0.2-0.7-0.3-1.2-0.6
	c-0.2,0.1-0.5,0.3-0.9,0.6c-0.9,0.1-1.9,0.1-2.9,0.2c-1.9,1.1-3.6,2.3-4.9,4.1c-0.2,0.1-0.4,0.2-0.7,0.3c-0.8,0.2-1.3,0.7-1.5,1.5
	c-0.3,0.9-0.7,1.8-1.4,2.6c-0.5,0.6-0.8,1.4-1,2.2c-0.2,0.5-0.4,1.1-0.7,1.9c0.1,1.1-0.9,2.5,0,3.9c-0.2,0.5-0.3,0.9-0.4,1.4
	c0.1,0.3,0.3,0.6,0.5,1c-0.2,1.4-0.1,3,0.9,4.4c2.4,2.4,4.5,5.3,6,8.6c0.3,0.1,0.7,0.3,1.1,0.4c0.5,0.8,1.3,1.3,2.1,1.8
	c1.2,0.8,2.4,1.5,3.2,2.8c0.4,0.7,1.1,1.1,1.7,1.7c1,1.1,2,2.2,3,3.4c0.5,0.7,0.9,1.4,1.6,2.4c0.1,0.1,0.4,0.3,0.7,0.5
	c0.7,0.5,1.1,1.2,1.1,2.1c0,1,0.1,2.1,0,3.1c0,1-0.5,1.9-1,2.6c-0.7,0.1-1.3-0.3-1.9-0.4c0.2-0.6,0.3-1,0.5-1.6
	c-0.1-1.6-0.5-3.1-1-4.7c-0.3-1.1-0.9-2-1.7-2.8c-1-0.9-1.8-1.9-2.8-2.8c-1.3-1.2-2.6-2.3-3.7-3.6c-0.2-0.2-0.5-0.3-0.7-0.5
	c-0.6-0.5-1.2-1-1.8-1.6c-0.6-0.6-1-1.4-1.7-2c-0.6-0.5-1.2-1.1-1.7-1.7c-0.7-0.9-1.5-1.7-2.2-2.6c-0.4,0-0.8,0-1.2,0
	c-0.1-0.1-0.2-0.2-0.2-0.3c-0.1-0.2-0.1-0.3-0.1-0.5c-0.1-1.1-0.6-2.1-1.3-2.8c-0.7-2.2-1.4-4.2-2-6.2c0.1-0.5,0.2-1,0.3-1.5
	c0-0.2-0.1-0.3-0.1-0.5c-0.3-1-0.5-2.1-0.5-3.2c0-1.2,0.3-2.4,1.1-3.4c0.4-0.5,0.8-1,1.2-1.5c0.4-0.5,0.7-0.9,0.8-1.5
	c0.1-1,0.6-1.8,1.2-2.8c1.2-0.4,1.6-1.6,2.3-2.6c0.5-0.8,1-1.4,1.9-1.6c1.4-0.3,2.6-0.9,3.7-1.9c0.3-0.2,0.6-0.4,0.9-0.5
	c1.7-0.6,3.5-1.1,5.3-1.3c1.9-0.1,3.7,0,5.5,0.2c0.9,0.1,1.8,0.1,2.8,0.1c0.3,0.2,0.6,0.4,1,0.6c0.5,0.2,0.9,0.5,1.4,0.7
	c0.8,0.3,1.7,0.6,2.5,1.1c0.5,0,1,0,1.6,0c0.7,0.4,1.4,0.8,2.1,1.3c0.6,0.4,1.2,1,1.8,1.4c0.6,0.4,1.2,0.7,2,1.1
	c0.2,0.3,0.6,0.7,1,1.2c0.6,0.8,1.2,1.4,2.1,1.8c0.8,0.4,1.4,1,1.6,1.9c0.1,0.3,0.3,0.6,0.5,0.9c0.7,0.9,1.4,1.7,2.1,2.5
	c0.7,0.9,1.3,1.7,1.9,2.6c0.2,0.6,0.4,1.2,0.6,1.8c0.3,0.6,0.6,1.1,0.9,1.8c0,0.5,0,1,0,1.6c0,0.9-0.3,1.7-1.3,2.2
	c-0.2,0-0.6,0.1-0.9,0.1c-0.6,0-1.1,0.2-1.6,0.4c-1,0.6-2,1.1-3.1,1.3c-0.8,0.1-1.5,0.6-2.2,0.9c-1.3,0-2.2-0.6-2.8-1.7
	c-0.5-0.9-0.9-1.8-1.2-2.7c-1.1-2.6-2.9-4.5-5-6.3c-0.3-0.2-0.7-0.4-1.1-0.5c-0.3-0.1-0.7-0.2-1-0.3c-0.1,0-0.2-0.1-0.4-0.2
	c-1.1-1.1-2.5-2-4.1-2.6c-0.6-0.3-1.2-0.5-2-0.5c-1,0-2-0.3-2.9-0.4c-1.1,0.6-2,1.1-3,1.6c-1.3,0.7-2.3,1.7-2.8,3.2
	c-0.2,0.7-0.4,1.4-0.6,2.1c0.4,1.4,1,2.6,1.6,3.7c0.4,0.8,0.9,1.4,1.6,2c0.6,0.5,1.2,1.1,1.6,1.8c0.2,0.3,0.4,0.6,0.6,0.8
	c1.4,1.4,2.7,2.8,4.1,4.2c0.3,0.1,0.6,0.2,1,0.3c0.3,0.3,0.5,0.8,0.9,1c1.1,0.7,1.7,1.8,2.6,2.8c0.4,0.4,0.6,1.1,1,1.8
	c0.2,0.1,0.6,0.3,0.9,0.4c0.5,0.5,1,1,1.4,1.5c0.5,0.5,0.9,1,1.2,1.7c0.3,0.7,0.8,1.3,1.3,1.8c0.8,0.9,1.4,1.9,1.4,3.2
	c0,0.4,0.2,0.9,0.4,1.3c0.2,0.4,0.4,0.8,0.7,1.3c0,1,0,2,0,3s0.1,1.9,0.1,3.4c-0.3,1.9-1.1,4.2-2.3,6.4c-0.7-0.5-1.4-1-2.1-1.5
	c0.2-0.4,0.4-0.9,0.6-1.3c0.2-0.5,0.3-1,0.5-1.4c0.2-0.5,0.5-0.9,0.7-1.3c-0.3-1.8-0.3-3.5-0.4-5.2c-0.1-2-0.6-3.9-1.9-5.4
	c-0.4-0.4-0.7-0.9-0.9-1.4c-0.4-1.2-1-2.2-2.1-2.9c-0.1-0.8-0.6-1.4-1.1-2.1c-0.6-0.7-1.1-1.4-1.6-2c-0.7-0.8-1.5-1.6-2.4-2.2
	c-0.7-0.6-1.3-1.1-1.9-1.8c-0.6-0.6-1.2-1.3-1.9-1.8c-1.3-0.9-2.3-2.1-3.1-3.4c-0.4-0.7-0.8-1.3-1.5-1.5c-0.2-0.4-0.4-0.8-0.7-1.2
	c-0.3-0.2-0.7-0.4-1-0.6c-0.1-0.1-0.1-0.2-0.1-0.3c-0.2-1.1-0.5-2.1-1.2-3c-0.5-0.7-0.8-1.6-0.6-2.5c0.1-0.9,0.3-1.8,0.7-2.7
	c0.4-1,1.1-1.9,1.7-2.8c0.3-0.5,0.8-0.9,1.4-1.2C291.4,89.7,291.7,89.5,292.2,89.2z"/>
<path class="st1" d="M261.2,125.2c-0.2,1.3,0,2.4,0.6,3.6c0.8,1.5,1.5,3,2.3,4.4c0.5,1,1.1,1.9,1.8,2.7c0.4,0.5,0.8,1.1,1.2,1.9
	c0.7,0.3,1.4,0.9,2,1.6c2.1,2.2,4.6,3.8,7.3,5.2c2,1,4,2,6,3.1c0.9,0.5,1.8,0.8,2.8,0.6c0.9-0.1,1.8,0,2.7,0.3
	c0.2,0.1,0.4,0.1,0.7,0.2c1.1,0.3,2.3,0.4,3.4,0c0.4-0.1,0.8-0.2,1.2-0.1c1.3,0.3,2.4-0.1,3.5-0.6c1.5-0.6,2.9-1.4,4.3-2.1
	c0.3-0.1,0.5-0.3,0.7-0.5c1-0.9,1.9-1.8,2.9-2.7c1,0.2,1,0.2,1.5,1.1c-0.1,0.7-0.4,1.2-1,1.5c-0.5,0.3-0.8,0.6-1.1,1.1
	c-0.9,1.2-2.1,1.9-3.4,2.5s-2.7,1-3.9,1.8c-0.3,0.2-0.7,0.4-1.1,0.4c-1.3,0.2-2.6,0.3-3.9,0.4c-0.6,0.1-1.2,0-1.9-0.2
	c-0.7-0.2-1.4-0.2-2-0.1c-1.3,0-2.6-0.1-3.9-0.7c-1.4-0.6-2.8-1-4.1-1.8c-0.2-0.1-0.4-0.2-0.6-0.2c-0.9,0-1.5-0.5-2.2-0.8
	c-1-0.5-2-1.1-3-1.7c-0.4-0.2-0.7-0.4-1.1-0.6c-0.3-0.1-0.7-0.1-1-0.2c-0.2-0.1-0.3-0.1-0.3-0.2c-0.8-1.1-1.7-2-3-2.5
	c-0.4-0.2-0.8-0.7-1.1-1.1c-0.5-0.6-0.9-1.2-1.3-1.8c-0.4-0.1-0.8-0.2-1.1-0.3c-0.5-0.3-0.7-0.8-0.8-1.2c-0.5-1.5-1.4-2.8-2.8-3.7
	c-0.2-1.5-0.8-2.7-1.7-3.9c-0.7-1.1-1.2-2.2-1.3-3.5c0-0.4-0.2-0.8-0.3-1.2c-0.1-0.4-0.1-0.8-0.2-1.2c0.5-0.6,1.1-1.1,1.6-1.7
	c1.2-0.3,2.5-0.7,3.7-1.3c0.3-0.2,0.7-0.2,1-0.2c1.1-0.2,2.1-0.5,3.4-0.8c0.1,0,0.5,0.1,0.8,0.1c0.9,0.2,1.5,0.7,1.8,1.5
	c0.3,0.7,0.6,1.4,1,2c0.1,0.1,0.2,0.2,0.2,0.3c0,1.2,0.8,1.9,1.5,2.6c0.6,0.6,0.9,1.3,1.1,2.2c1.2,1.3,2.5,2.5,3.7,3.8
	c0.3,0.3,0.7,0.6,1.1,0.8c1.2,0.4,2.1,1.1,3,1.9c0.3,0.3,0.6,0.5,1,0.8c0.4,0.1,0.8,0.1,1.2,0.2c0.3,0.2,0.7,0.5,1.2,0.9
	c1.1,0.2,2.4,0.6,3.7,0.8c0.9,0.2,1.7,0,2.5-0.4c0.4,0.1,0.8,0.1,1.2,0.2c0.7-0.3,1.4-0.6,2.1-0.9c0.8,0.3,1.7,0.6,2.5,1.1
	c-0.6,0.7-1.2,1.2-2,1.3c-0.2,0-0.4,0.1-0.6,0.3c-0.9,0.7-2,0.8-3.1,0.8c-0.8,0-1.6,0-2.4,0c-1.3,0-2.5,0.1-3.7-0.6
	c-0.2-0.1-0.6-0.1-0.8-0.2c-1.3-0.9-2.6-1.8-4-2.3c-0.2-0.1-0.4-0.1-0.5-0.2c-0.5-0.6-1.2-0.8-2-0.9c-0.6-0.1-1.1-0.4-1.4-0.9
	c-1-1.5-2.3-2.7-3.7-3.8c-0.7-0.5-1.4-1-1.5-2c-1.2-1.2-1.1-3-2.3-4.2c-0.4-0.4-0.5-1-0.7-1.6c-0.6-0.6-1.4-0.5-2.1-0.3
	c-0.9,0.2-1.7,0.6-2.7,0.7C263,124.7,262.1,125,261.2,125.2z"/>
<path class="st2" d="M259,195.9c0.8,0.2,3.5,0.4,4.3,0.5c0.6,0.1,1.3,0.2,1.9,0.3c1.1,0.2,2.2,0.4,3.2,0.8c1.7,0.6,3.4,1.3,5.1,2.1
	c0.9,0.4,1.9,0.6,2.9,0.8c0.4,0.1,0.7,0.2,1.1,0.2c0.1,0,0.3,0,0.5,0c0.1,0,0.1,0,0.2,0l0.1-0.1c0.1-0.1,0.2-0.2,0.2-0.3
	c0.7-1.4,1.5-2.9,1.8-4.6c0.2-1.1,0.6-2.2,1.1-3.4s0.8-2.3,0.9-3.4c0-0.4,0.1-0.8,0.2-1.1l0.1-0.2c0.1-0.2,0.1-0.3,0.2-0.5
	s0.2-0.4,0.2-0.6c0.4-2.1,0.7-3.9,0.9-5.7c0-0.2,0-0.5-0.1-0.8c0-0.2-0.1-0.3-0.1-0.5s0-0.4,0-0.5c0.2-0.7,0.2-1.4,0.2-2.1
	c0-0.4,0-0.8,0-1.2c0.1-1.1-0.2-2-0.6-3c-0.1-0.2-0.1-0.3-0.2-0.4H283c-0.1,0-0.1-0.1-0.2-0.1l-0.3,0.1c-1.2,0.2-2.5,0.4-3.7,0.6
	c-0.5,0.1-1.1,0.3-1.6,0.4c-0.3,0.1-0.6,0.2-1,0.3c-0.7,0.2-1.3,0.3-2,0.5l-0.5,0.1c-0.3,0.1-0.7,0.2-1,0.2l-0.8,0.2
	c-0.4,0.1-0.8,0.2-1.2,0.3c-0.2,0-0.4,0.1-0.6,0.2c-0.4,0.1-0.8,0.2-1.2,0.3c-1.2,0.2-2.4,0.4-3.6,0.6l-2.3,0.4
	c-2.4,0.4-5.2,0.9-8,0.8c-1,0-1.9,0-2.9,0l-4.2-0.4c-0.4,0-0.9,0-1.2,0.1c-0.6,0.1-1.2,0.1-1.8,0c-0.6-0.2-1.3-0.3-1.9-0.4l0.1-0.9
	c0.7,0.1,1.3,0.2,2,0.4c0.5,0.1,0.9,0.1,1.4,0s1-0.1,1.4-0.1l4.2,0.4c1,0,2,0,2.9,0c2.7,0.1,5.5-0.4,7.9-0.8l2.3-0.4
	c1.2-0.2,2.4-0.4,3.6-0.6c0.4-0.1,0.7-0.2,1.1-0.3c0.2-0.1,0.4-0.1,0.6-0.2c0.4-0.1,0.8-0.2,1.2-0.3l0.7-0.2c0.4-0.1,0.7-0.2,1-0.2
	l0.5-0.1c0.7-0.2,1.3-0.3,2-0.5c0.3-0.1,0.6-0.2,0.9-0.3c0.6-0.2,1.1-0.3,1.7-0.4c1.3-0.2,2.5-0.4,3.8-0.6l0.4-0.1
	c0.2,0,0.4,0.1,0.6,0.1c0.1,0,0.1,0.1,0.2,0.1l0.2,0.1l0.1,0.2c0.1,0.2,0.1,0.4,0.2,0.6c0.4,1,0.7,2.1,0.6,3.3c0,0.4,0,0.8,0,1.1
	c0,0.8,0,1.6-0.2,2.4c0,0,0,0.1,0,0.2c0,0.2,0,0.3,0.1,0.5c0.1,0.4,0.1,0.7,0.1,1.1c-0.3,1.8-0.6,3.6-0.9,5.7
	c-0.1,0.3-0.2,0.6-0.2,0.8c-0.1,0.1-0.1,0.3-0.2,0.4l-0.1,0.2c-0.1,0.3-0.2,0.6-0.2,0.9c-0.1,1.2-0.4,2.3-1,3.6
	c-0.5,1.1-0.8,2.2-1.1,3.2c-0.4,1.8-1.2,3.4-1.9,4.8c-0.1,0.2-0.2,0.3-0.4,0.5c-0.1,0.1-0.1,0.1-0.2,0.2l-0.1,0.1h-0.2
	c-0.1,0-0.2,0-0.3,0c-0.2,0-0.4,0.1-0.6,0.1c-0.1,0-0.2,0-0.3,0c-0.4-0.1-0.7-0.2-1.1-0.2c-1-0.2-2-0.4-3-0.9c-1.7-0.7-3.4-1.4-5-2
	c-1-0.4-2.1-0.6-3.1-0.8c-0.6-0.1-1.3-0.2-1.9-0.3c-0.8-0.1-3.1-0.5-3.9-0.6"/>
<path class="st2" d="M283.8,171.9c-0.3-0.1-0.4-0.2-0.6-0.2c-1.4,0.2-2.7,0.4-4.1,0.7c-0.9,0.2-1.7,0.5-2.6,0.7
	c-0.9,0.2-1.7,0.4-2.5,0.6c-0.4,0-0.7,0.1-1.1,0.2c-0.6,0.1-1.3,0.3-1.9,0.4c-0.6,0.1-1.2,0.3-1.8,0.4c-2,0.3-3.9,0.7-5.9,1
	c-2.6,0.5-5.2,0.9-7.9,0.8c-1,0-1.9,0-2.9,0c-0.5,0-1.1,0-1.6,0.1c-0.5,0.1-1.1,0.1-1.6,0c-0.7-0.2-1.3-0.3-2-0.4
	c-0.8-0.1-3-0.4-3.8,0.2c1.7,1.2,2.7,2,2.9,2.5c1.2,0.8,1.9,1.9,2.8,2.9c0.7,0.8,1.3,1.7,2,2.6c0.1,0.2,0.4,0.4,0.5,0.7
	c0.5,1.1,1.2,2.1,2,3c0.6,0.8,1.3,1.5,1.8,2.3c0.8,1.2,1.6,2.4,2.2,3.6c0.7,1.4,1.8,2.5,3.2,2.4c1.5,0,2.9,0.5,4.3,0.8
	c1.1,0.2,2.2,0.4,3.2,0.8c1.8,0.7,3.4,1.4,5.1,2.1c1.3,0.6,2.7,0.8,4,1.1c0.3,0.1,0.7-0.1,1-0.1c0.2-0.2,0.4-0.4,0.5-0.6
	c0.8-1.5,1.5-3,1.9-4.7c0.3-1.2,0.6-2.2,1.1-3.3c0.5-1.1,0.8-2.3,0.9-3.5c0-0.4,0.2-0.8,0.3-1.2c0.1-0.4,0.3-0.8,0.4-1.2
	c0.3-1.9,0.6-3.8,0.9-5.7c0.1-0.4-0.1-0.9-0.1-1.4c0-0.2,0-0.3,0-0.4c0.3-1.1,0.1-2.3,0.2-3.4C284.8,174.3,284.2,173.1,283.8,171.9z
	 M273.1,188.3c-0.5,1-1.1,1.9-2,2.6c-0.9,0.8-3.2,1.6-4.5,1.7c-3.2,0.3-5.1-1.4-6.6-3.9c-0.4-0.5-0.6-1.2-0.8-1.8
	c-0.4-1.9,0-3.6,0.8-5.3c0.2-0.5,0.7-0.9,1.1-1.2c0.7-0.5,1.4-0.8,2.2-1.3c0.4-0.1,0.7-0.1,1.1,0c1.6-0.5,3.1-0.1,4.5,0.3
	c2.1,0.6,3.4,2.2,4.2,4.2c0.1,0.3,0.1,0.6,0.1,0.9C273.2,185.8,273.1,187,273.1,188.3z"/>
<path class="st2" d="M265.5,182.7c0.7,0,1.2,0,1.7,0c0.5,0.4,1,0.8,1.3,1.1c0.8,1.1,0.5,2.1,0.2,3s-1,1.4-2,1.5s-1.9-0.3-2.8-0.8
	c-0.4-0.2-0.6-0.7-0.7-1.1c-0.1-1,0.1-1.9,0.9-2.6C264.6,183.3,265,183,265.5,182.7z"/>
</svg>
