<?xml version="1.0" encoding="utf-8"?>
<!-- Generator: Adobe Illustrator 25.4.1, SVG Export Plug-In . SVG Version: 6.00 Build 0)  -->
<svg version="1.1" id="Layer_1" xmlns="http://www.w3.org/2000/svg" xmlns:xlink="http://www.w3.org/1999/xlink" x="0px" y="0px"
	 viewBox="0 0 432 432" style="enable-background:new 0 0 432 432;" xml:space="preserve">
<style type="text/css">
	.st0{fill:none;stroke:#000000;stroke-width:0.8567;stroke-miterlimit:10;}
	.st1{stroke:#000000;stroke-width:0.6701;stroke-miterlimit:10;}
	.st2{stroke:#2F3A4D;stroke-width:0.6701;stroke-miterlimit:10;}
</style>
<path class="st0" d="M217.6,198.1c-0.8-0.1-1.6-0.1-2.4-0.1c-1.7-0.1-3.5-0.1-5.2-0.1s-3.3,0-5,0c-0.4,0-0.8,0.2-1.2,0.2
	s-0.8,0.1-1.2,0c-1.4-0.4-2.9-0.3-4.3-0.3c-0.9,0-1.9,0.1-2.7-0.2c-2.5-0.8-5.2-0.9-7.7-1.6c-1.3-0.4-2.7-0.5-4.1-0.7
	c-1.1-0.2-2.1-0.5-3.2-0.7c-0.2,0-0.5-0.2-0.7-0.1c-0.8,0.1-1.5-0.2-2.2-0.5c-1.4-0.5-2.7-0.9-4.2-1.1c-1.4-0.2-2.7-0.7-4-1
	c-0.6-0.2-1.2-0.3-1.9-0.4c-1.8-0.3-3.5-0.4-5.3-0.9c-1.1-0.3-2.2-0.8-3.3-1.2c-0.5-0.7-1.1-1.4-1.6-2.2c-0.2-0.4-0.4-0.8-0.5-1.3
	c-0.2-1.2-0.6-2.4-0.2-3.6c0.1-0.2,0-0.3,0-0.5c0-1.4,0.3-2.7,1.1-4.1c0.3-0.3,0.7-0.7,1.1-1.1c1.8-0.6,3.6-1.2,5.6-1.2
	c0.2,0,0.5,0,0.7-0.1c0.8-0.3,1.6-0.6,2.5-0.8c0.8-0.2,1.7-0.2,2.5-0.6c0.7-0.3,1.4-0.4,2.2-0.5c0.9-0.2,1.8-0.4,2.7-0.7
	c1-0.3,2-0.5,3-0.7c1.1-0.2,2.1-0.5,3.1-0.8c1.1-0.3,2.2-0.5,3.4-0.6c0.7,0,1.5-0.2,2.2-0.5c1.7-0.6,3.5-0.7,5.2-1.1
	c0.6-0.1,1.2-0.2,1.9-0.3c2.2-0.3,4.4-0.6,6.7-0.7c0.8,0,1.7-0.3,2.8-0.5c1.3,0.3,2.8,0.2,4.4,0.2c0.6,0,1.3,0,1.9,0
	c1,0.1,2,0.1,2.9,0.1c1,0,2,0,2.9,0.2c0.3,0.1,0.6,0,0.8,0c1.3-0.1,2.5-0.1,3.8,0.2c1,0.3,2.2,0.3,3.2,0.5c1.1,0.1,2.3,0.3,3.4,0.4
	c0.2,0,0.3,0.1,0.5,0.1c1-0.1,2.1,0.1,3.1,0.3c1.2,0.3,2.4,0.4,3.5,0.7c2,0.4,4,1,6,1.4c1.4,0.3,2.8,0.5,4.3,0.7
	c1.9,1.1,3.5,2.6,5.1,4c0.2,0.2,0.4,0.4,0.6,0.7c0.7,1.2,1.7,2,2.6,3c0.5,0.5,1.1,1,1.5,1.6c1.4,1.9,2.9,3.7,4.1,5.8
	c0.2,0.3,0.4,0.6,0.6,0.8c0.5,0.4,0.8,1,1.1,1.5c0.2,0.4,0.5,0.8,0.8,1.1c0.3,0.4,0.6,0.8,0.6,1.5c-0.1,0.1-0.2,0.3-0.4,0.5
	c-1.5,0-3,0-4.5,0c-1.2,0-2.4,0.1-3.6,0.1c-1.5,0.6-3.1,0.2-4.6,0.4c-1.6,0.2-3.2,0.5-4.8,0.7c-2.1,0.3-4.1,0.9-6.2,1.4
	c-2.6,0.6-5.3,1.2-8,1.3c-0.5,0-1,0.1-1.5,0.2c-1.8,0.3-3.5,0.5-5.3,0.7C220.7,197.8,219.1,198,217.6,198.1z"/>
<path class="st1" d="M291.3,311.4c-0.2-0.6-0.4-1.2-0.7-1.8c0.2-0.7,0.3-1.5,0.6-2.3c0.5-1.5,0.5-3.1-0.2-4.6c0-0.1,0-0.2-0.1-0.4
	c0.3-0.6,0.4-1.3,0.2-2.1c-0.2-0.5-0.1-1,0-1.5c0.3-0.9,0.3-1.8-0.1-2.7c-0.2-0.5-0.2-1-0.1-1.5c0-0.6,0.1-1.3-0.1-1.9
	c-0.3-1.1-0.2-2.2,0.1-3.2c0.5-1.6,0.4-3.2,0.3-4.8c0-0.2-0.1-0.3-0.2-0.6c-0.7,0.2-1.4,0.4-2.3,0.6c-1-0.4-2.2-0.5-3.4-0.1
	c-0.3,0.1-0.6,0.1-0.8,0.2c-0.8,0.3-1.6,0.3-2.4,0c-0.8-0.2-1.7-0.4-2.5-0.6c-0.4,0.1-0.7,0.2-1.1,0.3c-0.4-0.1-0.8-0.3-1.3-0.5
	c-0.3,0.2-0.7,0.4-1,0.6c-0.1,0-0.2,0-0.3,0c-0.7-0.3-1.5-0.2-2.2-0.2c-1.4,0.1-2.8,0.2-4.1-0.3c-0.3-0.1-0.6-0.1-0.9,0
	c-0.7,0.1-1.4,0.2-2,0.3c-0.7,0.2-1.3,0.5-1.7,1.3c-0.1,1.2-0.2,2.5-0.4,4.1c0.3,0.6,0.4,1.4,0.4,2.3c0,0.3,0.1,0.7,0.1,1
	c0.2,1.5,0.3,3-0.6,4.3c0.2,0.7,0.3,1.2,0.5,1.8c0.1,0.3,0.2,0.7,0.1,1c-0.1,0.6,0,1.1,0.1,1.7c0.1,0.5,0,1-0.3,1.5
	c0.4,0.7,0.4,1.5,0.3,2.3c-0.2,1.5-0.3,3.1,0,4.6c0.1,0.8,0,1.6-0.6,2.3c-0.3-0.1-0.7-0.2-1-0.2s-0.6,0-0.9,0
	c-1.2,0.1-2.4,0.1-3.5-0.3c-1.2,0.2-2.3,0.3-3.5,0.5c-0.8-0.2-1.7-0.4-2.7-0.7c-0.1-0.7-0.1-1.4-0.1-2.1c0.1-1.5,0.2-3,0.3-4.5
	c0.2-2.4-0.2-4.7-0.1-7.1c0-0.3-0.1-0.7-0.2-1c0.2-0.8,0.3-1.7,0.5-2.4c-0.1-1.3-0.2-2.4-0.4-3.8c0.1-0.9,0.2-2.1,0.3-3.3
	c-0.2-0.4-0.3-0.8-0.5-1.1c0-0.2,0-0.3,0-0.4c0.3-0.5,0.3-1.1,0.3-1.7c0-2.4,0-4.8,0-7.3c0-0.6,0-1.3-0.1-1.9
	c-0.2-0.8-0.1-1.6,0.1-2.4c0.1-0.4,0.2-0.8,0.3-1.2c-0.2-0.4-0.3-0.8-0.5-1.3c0.5-0.6,0.3-1.4-0.1-2c0.5-2.1,0.5-4.3,0.4-6.4
	c0-0.7-0.3-1.2-0.6-1.7c0.1-1.1,0.1-2.2,0.2-3.2c0-0.3,0-0.7,0-1c0.2-1.3,0-2.5-0.2-3.5c0.1-1.4,0.2-2.6,0.3-3.9
	c0.3-0.4,0.8-0.9,1.2-1.4c0.4,0,0.8-0.1,1.2,0c1.2,0,2.4,0,3.6-0.3c0.6-0.1,1.1-0.1,1.6-0.1c0.6,0.2,1.2,0.4,1.8,0.6
	c0.5-0.2,1-0.4,1.6-0.6c0.6,0.2,0.9,0.7,1,1.3c0.1,1.6,0.6,3.2,0.1,4.8c0,0.2,0,0.3,0,0.5c0.1,1.3,0.1,2.6,0.2,3.8
	c-0.3,0.6-0.5,1.1-0.7,1.7c0.1,0.8,0.3,1.7,0.5,2.6c0.1,0.6,0.2,1.2,0,1.9c-0.2,1-0.2,1.9,0,2.9c0.2,0.7,0,1.4,0,2.1
	c0,0.9-0.1,1.7-0.1,2.6c0,0.4,0.2,0.8,0.3,1.2c0.4,0,0.8,0.2,1.2,0.1c1.6-0.1,3.2-0.1,4.8,0c1.6,0,3.2,0,4.8-0.1
	c0.9,0,1.7,0,2.5,0.3c0.6,0.2,1.3,0.2,1.9,0.1c2.2-0.6,4.4-0.4,6.5-0.1c1.4,0.1,2.6-0.1,4-0.2c0-0.3,0.1-0.5,0-0.7
	c-0.2-0.6-0.3-1.2,0-1.8c-0.1-1.2,0.3-2.4-0.1-3.6c-0.2-0.6-0.3-1.3-0.4-2c0.3-0.4,0.5-0.7,0.7-1c0-0.9,0-1.8,0.3-2.7
	c0.2-0.8,0.2-1.6-0.2-2.4c-0.5-1-0.5-1.9-0.2-3s0.2-2.3,0-3.4c-0.3-1.3-0.3-2.6,0.2-4c0.3-0.1,0.6-0.1,1-0.2
	c1.1-0.2,2.1-0.4,3.2-0.6c0.6-0.1,1.2-0.3,1.7-0.1c0.9,0.3,1.8,0,2.7,0.2c0.3,0.1,0.6-0.1,0.8-0.1c0.6,0,1.3-0.1,1.8-0.1
	c0.5,0.3,0.7,0.7,0.7,1.1c0.1,1,0.1,2,0.1,2.9c0,0.7-0.2,1.5,0.4,2.1c-0.3,0.5-0.6,0.9-0.8,1.3c0.2,1.2,0.3,2.5,0.5,3.7
	c0.2,1.1,0.3,2.2,0.2,3.3c-0.1,1.5-0.2,3-0.5,4.7c0.5,1.1,0.1,2.3-0.4,3.5c0.5,0.7,0.7,1.5,0.6,2.4c-0.2,1.5,0.1,3-0.2,4.5
	c0,0.1,0,0.2,0,0.3c0.4,1.6,0.2,3.2,0.2,4.8c-0.1,1.8,0,3.6,0,5.4c0,0.2,0,0.4,0,0.5c0.4,1.3,0.3,2.6,0.1,3.9
	c-0.1,1.2-0.2,2.4,0.2,3.6c0.2,0.8,0.1,1.7-0.4,2.5c-0.1,0.2-0.2,0.4-0.3,0.6c0,0.3,0,0.5,0.1,0.7c0.5,1.6,0.5,3.3,0.1,4.9
	c-0.2,0.7-0.2,1.5,0,2.2c0.1,0.6,0.2,1.3,0.1,1.9c-0.1,1-0.2,2.1-0.4,3.1c-0.3,0.4-0.7,0.6-1.1,0.7c-2.1,0.6-4.3,0.9-6.5,0.3
	c-0.2-0.1-0.5-0.1-0.7-0.1C293.4,312,292.4,311.7,291.3,311.4z M300.5,249.8c-1.6-0.1-3.2-0.2-4.7-0.1c-0.7,0-1.3,0.3-1.8,1
	c0,1,0.1,2-0.3,3c0.1,1.6,0.1,3.2,0.2,4.8c0.1,0.9,0.1,1.8-0.2,2.7c-0.3,1-0.2,2.1,0.3,3c0.1,0.3,0.2,0.5,0.4,0.9
	c-0.3,1.7-0.5,3.5-0.8,5.2c0.5,1.7,0.6,3.9,0.1,4.6c-0.3,0.2-0.7,0.4-1.1,0.6c-1.5-0.6-3.1-0.4-4.7-0.1c-1.8-1.1-3.8-1.1-5.8-0.4
	c-1.3,0.4-2.6,0.3-3.9,0c-0.7-0.2-1.5-0.3-2.2-0.2c-1.4,0.1-2.7,0.3-4,0.7c-3.1-0.7-6.1-0.6-9.2-0.1c-0.2-0.2-0.4-0.3-0.7-0.5
	c0.2-1,0.4-1.9,0.6-2.8c-0.2-0.6-0.4-1.1-0.4-1.3c0-1.3,0-2.4,0-3.5c0-0.5,0.1-0.9,0.1-1.4c0-0.4,0-0.8-0.1-1.2
	c-0.1-1.3-0.2-2.5,0.1-3.8c0.3-1.1,0.4-2.3,0-3.4c-0.1-0.3-0.2-0.7-0.3-0.9c0.5-2.6,0.5-4.6,0.1-6.7c-0.3-0.1-0.6-0.3-0.9-0.3
	c-1.7-0.2-3.4,0-5.2,0c-0.1,0.3-0.3,0.6-0.3,0.9c-0.2,1.9-0.5,3.8-0.4,5.7c0,1,0.1,2.1,0.1,3.1s-0.1,2,0.2,2.9c0.1,0.2,0,0.6,0,0.9
	c0,0.9,0,1.8,0,2.7c-0.2,0.6-0.4,1.1-0.6,1.6c0.2,1,0.3,2.1,0.5,3.1c0.2,1.2,0.3,2.3,0,3.2c0.1,2.3,0.3,4.4,0.4,6.6
	c-0.2,0.4-0.4,0.8-0.6,1.2c0,0.3,0,0.6,0,0.9c0,1.7-0.1,3.3,0.3,5c0.2,0.7,0,1.5-0.1,2.2c-0.1,1-0.2,3.5,0,4.4
	c0.2,0.8,0.2,1.5,0,2.2c-0.2,1-0.3,2-0.1,2.9c0.3,1.1,0.3,2.2-0.2,3.2c0.5,0.9,0.4,1.9,0.4,2.9c0,0.5,0,0.9,0,1.4s0,1,0,1.6
	c0,0.4,0,0.9,0,1.4c0.4,0.2,0.8,0.1,1.2,0c1.3-0.3,2.5-0.3,3.8,0c0.4,0.1,0.9,0.2,1.3-0.2c0.4-1.3,0.6-2.7,0.3-4
	c-0.4-1.5-0.4-3-0.1-4.4c0.1-0.6,0.2-1.2,0-1.7c-0.3-1-0.2-2.1-0.1-3.1s0.1-2,0.3-2.9c0.1-0.8-0.1-1.6-0.3-2.1c0-0.9-0.1-1.6,0-2.2
	c0.4-1.8,0.5-3.5,0.2-5.3c-0.1-0.5,0-1,0.5-1.5c0.2,0,0.4-0.1,0.6-0.1c1,0,2-0.1,2.9,0c2.1,0.2,4.1-0.1,6.2-0.1
	c1.1-0.5,2.3-0.3,3.4-0.2c0.3,0,0.7,0,1-0.1c1-0.2,2.1,0,3.1,0.1c0.6,0.1,1.3,0.2,1.9,0.1c2.3-0.5,4.6,0,6.9,0
	c1.4-0.5,3-0.2,4.5-0.1c0,0.4,0.1,0.7,0.1,1.1c0,1.1,0,2.2,0,3.3c0,1.6,0,3.2,0.3,4.8c0.2,1.1,0.3,2.3-0.1,3.4c-0.3,1-0.3,2,0.1,3
	c0.3,0.9,0.6,1.9,0.3,2.9c-0.3,1.1-0.2,2.2-0.3,3.3c0,1.5-0.2,3-0.5,4.4c0.1,0.4,0.2,0.8,0.3,1.2c0.4,0.2,0.7,0.3,0.9,0.4
	c0.5-0.1,0.9-0.2,1.2-0.3c1.5,0.5,2.9,0.7,4.5,0.4c0.6-1.6,0.2-3.1-0.4-4.6c0.5-0.7,0.6-1.5,0.5-2.3c0-0.7,0-1.4,0-2.1
	c0-2.5,0-5.1,0-7.6c0-0.8,0-1.6,0-2.4c0-0.9,0.2-1.8-0.2-2.7c-0.1-0.3-0.1-0.6,0-0.9c0.1-1,0.2-1.9,0-2.9c0-0.3,0-0.6,0.1-0.9
	c0.1-0.7,0.3-1.4,0.4-2.1c-0.4-1-0.7-2.1-0.6-3.2c0.2-0.7,0.5-1.4,0.4-1.9c-0.2-1.6-0.4-3.2-0.3-4.8c0-0.6-0.2-1.3-0.3-1.8
	c0.2-0.6,0.4-1,0.4-1.5c0.1-0.6,0.1-1.1,0.1-1.7c0-2.2,0-4.5,0-6.7c0-1.1,0-2.2-0.3-3.2c0.5-1.1,0.1-2.1,0-3.1
	C300.5,252.1,300.8,251.1,300.5,249.8z"/>
<path class="st1" d="M209.8,309.1c-1.1,0.2-1.7,1.2-2.7,2c-1.6,0.5-3.2,0.9-4.9,1.4c-0.1,0-0.2,0.1-0.3,0.1
	c-2.6,0.1-5.3,0.7-7.9,0.4c-0.3,0-0.6,0-0.9,0c-1.6,0.1-3.1-0.1-4.6-0.7c-0.6-0.2-1.3-0.4-2-0.4c-0.5,0-1.1-0.1-1.5-0.4
	c-0.8-0.6-1.9-0.9-2.6-1.6c-0.2-0.2-0.5-0.3-0.7-0.4c-1.1-0.4-2-1-2.6-1.8c-0.5-0.2-0.9-0.3-1.3-0.5c-0.2-0.1-0.3-0.2-0.3-0.3
	c-1.6-2.1-3.1-4.1-4.7-6.2c-0.2-0.3-0.5-0.5-0.6-0.8c-0.3-1.3-1.2-2.2-1.7-3.4c-0.9-2.2-1.8-4.4-2-6.8c-0.1-1.2-0.4-2.3-0.7-3.4
	c-0.4-1.1-0.5-2.2-0.3-3.4c0.2-1.3,0.2-2.5-0.1-3.8c-0.3-1.1-0.2-2.3,0.3-3.4c0.3-0.6,0.3-1.2,0.4-1.8c0.1-1,0.2-1.9,0.4-2.9
	c0.2-0.8,0.3-1.6,0.2-2.4s0.1-1.6,0.6-2.3c0.1-0.2,0.3-0.4,0.3-0.6c0.1-1.1,0.9-1.8,1.3-2.8c0.6-1.3,1.5-2.5,1.7-3.9
	c0.1-0.5,0.4-1,0.7-1.4c0.7-1,1.5-2,2.3-3c1.1-1.3,2.3-2.4,3.8-3.2c1-0.6,1.9-1.2,2.7-2.2c0.6-0.1,1.1-0.2,1.7-0.3
	c0.1-0.1,0.2-0.1,0.3-0.2c1.5-1.1,1.5-1.1,3.1-1.4c1.7-0.4,3.4-0.7,5.1-1c1.1-0.2,2.3-0.1,3.4-0.2c0.7,0,1.5-0.1,2.2-0.2
	c0.5-0.1,1,0,1.5,0.1c2.8,0.6,5.4,1.7,7.9,2.8c0.9,0.4,1.8,1,2.7,1.6c0.7,0.4,1.3,1,2.1,1.2c0.6,0.2,1,0.7,1.3,1.3
	c0.4,1.1,1.1,2,2,2.8c1.6,1.4,1.4,3.1,0.8,5c-0.7,0.3-1.4,0.4-1.9,0.8s-1,0.7-1.5,0.9c-1.4,1.6-3.5,2.1-5,3.4
	c-0.7-0.2-0.9-0.6-1.1-1.1c-0.1-0.6-0.3-1.1-0.4-1.6c-0.5-0.2-0.8-0.3-1.3-0.5c-0.7-0.9-1.5-1.8-2.5-2.5c-0.4-0.3-0.7-0.7-1.1-1.1
	c-1.4,0.1-2.6-0.2-3.9-0.5c-1.1-0.3-2.3-0.3-3.4-0.3c-0.6,0-1.3,0.1-1.9,0.4c-1,0.4-1.9,0.7-3,0.8c-1.1,0.1-2.1,0.6-2.9,1.3
	c-2.6,2.2-2.1,1.2-3.7,4.4c-0.6,1.2-1.2,2.4-1.5,3.6c-0.1,0.5-0.3,1-0.3,1.5c0,0.9-0.2,1.8-0.4,2.7c-0.5,1.8-0.7,3.6-0.6,5.5
	c0,0.2,0.1,0.5,0,0.7c-0.6,2,0.2,3.9,0.2,5.8c0,0.8,0.3,1.6,0.5,2.3c0.2,0.8,0.4,1.5,0.4,2.4c-0.1,1.2,0.3,2.3,1.2,3.2
	c0.2,0.2,0.4,0.4,0.5,0.7c1.1,1.6,2.2,3.2,3.3,4.8c0.3,0.1,0.7,0.3,1,0.4c0.4,0.2,0.9,0.3,1.2,0.6c1.2,0.9,2.6,1.5,4.1,1.5
	c0.3,0,0.6,0,0.8,0.1c0.8,0.4,1.7,0.3,2.5,0.2c1.4-0.2,2.8-0.5,4.2-0.8c1.1-0.2,2.2-0.7,3.1-1.4c0.5-0.4,1-0.8,1.4-1.2
	c0.9-0.9,1.8-1.8,2.7-2.8c0.2-1.4,0.5-2.9,0.7-4.3c0.1-0.8,0-0.9-0.5-1.4c-0.9,0.1-1.8,0.2-2.6,0.2c-0.9,0-1.7,0-2.6,0
	c-0.9,0.1-1.7,0.2-2.7,0.4c-0.4-0.3-0.8-0.7-1.2-1c-0.2-1.2-0.3-2.2-0.4-3.3c0-0.4,0-0.8,0-1.2c0.1-1,0.3-2,0.3-3.1
	c0-0.7,0.3-1.3,0.4-1.8c0.6-0.9,1.4-1.2,2.1-1.7c0.4,0,0.8,0,1.2,0.1c1.3,0.5,2.6,0.4,3.9,0.1c1.6-0.3,3.2-0.3,4.8,0
	c1,0.2,1.9,0.3,2.9-0.1c0.2-0.1,0.4-0.1,0.7-0.1c1.8,0,3.7,0,5.6,0c0.2,0.4,0.4,0.7,0.4,1.1c0.2,0.7,0.3,1.5,0.4,2.3
	C220,282,220,283,220,284c0.1,0.9-0.1,1.8-0.2,3c0.1,0.3,0.2,0.9,0.3,1.5c-0.1,0.5-0.4,0.9-0.4,1.3c0,1-0.2,1.9-0.6,2.8
	c-0.1,0.2-0.1,0.3-0.1,0.5c0,2.1-0.9,3.9-1.5,5.8c-0.1,0.3-0.2,0.5-0.3,0.8c-0.6,2.2-1.9,3.9-3.5,5.5c-0.4,0.4-0.8,0.8-1.3,1.2
	C211.8,307.3,210.9,308.1,209.8,309.1z M199.3,303.3c-0.5,0.2-0.8,0.5-1.2,0.6s-1,0.3-1.3,0.1c-1.2-0.5-2.5-0.3-3.8-0.3
	c-1.4,0-2.8,0-4-0.8c-0.2-0.2-0.6-0.2-0.8-0.3c-1.3-0.7-2.6-1.5-3.9-2.3c-0.1-0.1-0.2-0.2-0.2-0.2c-0.9-1.2-1.7-2.4-2.6-3.6
	c-0.9-1.2-1.5-2.7-2.4-4c-0.8-1.3-1.1-2.8-1.2-4.3c0-0.4,0-0.8-0.1-1.2c-0.2-1.8-0.2-3.6-0.6-5.3c-0.2-0.8-0.2-1.6-0.1-2.4
	c0.1-1.4,0.4-2.7-0.1-4.1c0.6-0.6,0.4-1.4,0.5-2.1c0.2-0.4,0.5-0.7,0.5-0.7c0.3-1.5,0.4-2.7,0.7-3.9c0.3-1,0.6-2,0.6-3.1
	c0.5-0.5,1-0.9,1.4-1.5s0.7-1.3,1-1.9c0.4-0.3,0.8-0.6,1.1-0.8c0.3-0.6,0.6-1.1,0.8-1.6c0.5-0.2,1-0.4,1.4-0.5
	c1.1-1.2,2.4-1.6,3.8-2c0.4-0.1,0.8-0.1,1.1-0.3c1.5-0.9,3.2-0.8,4.8-1.3c0.2-0.1,0.5,0,0.7,0c1.5,0.3,3.1,0.5,4.6,0.8
	c0.8,0.2,1.6,0.2,2.3,0.7c0.8,0.7,1.7,1.4,2.6,2c0.5,0.4,1,0.8,1.3,1.4c0.6,1.2,1.7,1.8,3,2c1-0.4,1.7-1.1,2.5-1.6
	c0.9-0.5,1.8-1,2.7-1.5c0-0.4,0-0.7-0.1-1c-0.2-0.7-0.7-1.2-1.2-1.7c-0.7-0.6-1.3-1.3-1.6-2.2c-1.1-0.7-2.2-1.3-3.3-1.9l-0.1,0.1
	c-0.4-0.5-0.7-0.9-1-1.3c-1-0.1-1.7-0.3-2.5-0.4c-0.8-0.1-1.6-0.3-2.3-0.7c-0.5-0.2-0.9-0.5-1.3-0.7c-0.2,0-0.3-0.1-0.4,0
	c-1.2,0.1-2.4,0.1-3.5-0.6c-0.6-0.3-1.4-0.3-2-0.1c-0.8,0.3-1.6,0.3-2.4,0.1c-0.6-0.1-1.2-0.2-2-0.1c-0.8,0.8-1.8,1-2.9,1
	c-1,0.5-1.9,1.2-3,1.1c-0.3,0.2-0.4,0.3-0.6,0.4c-1,0.4-1.9,1-2.7,1.9c-0.1,0.1-0.3,0.2-0.4,0.3c-1.4,0.9-2.4,2.1-3.4,3.4
	c-0.8,1.2-1.6,2.4-2.9,3.1c-0.1,0.4-0.2,0.7-0.3,1.1c-0.4,1.3-0.8,2.5-1.6,3.6c-0.3,0.4-0.5,1-0.7,1.6c-0.3,1.3-0.7,2.5-1.4,3.6
	c0.4,1.4-0.1,2.7,0,4c-0.4,0.9-0.3,1.8-0.3,2.7c0,0.5-0.1,0.9-0.2,1.4c0.1,0.3,0.3,0.7,0.2,1.1c-0.2,1.1-0.4,2.1-0.6,3.1
	c0.3,1.6,0.9,3.2,0.6,4.7c0.2,0.4,0.4,0.8,0.5,1.2c0.1,0.4,0.1,0.8,0.1,1.2c0.1,0.7,0.2,1.4,0.5,2c0.6,1.2,1,2.6,1.4,3.9
	c0.2,0.8,0.6,1.5,1.2,2.1c0.8,0.8,1.3,1.7,1.7,2.8c0.4,1,0.8,2,1.6,2.8c0.3,0.3,0.5,0.6,0.7,1c0.4,0.7,1,1.2,1.7,1.7
	c1.9,1.1,3.8,2.2,5.6,3.3c0.2,0.1,0.5,0.3,0.8,0.4c0.8,0.4,1.7,0.6,2.7,0.7c1.4,0.1,2.8,0.2,4.2,0.3c1.2,0.9,2.4,0.9,3.8,0.5
	c0.9-0.3,1.9-0.4,2.9-0.4c2.3-0.2,4.4-0.7,6.2-2.1c0.3-0.1,0.5-0.2,0.7-0.2c0.9-0.1,1.4-0.6,2-1.2c0.4-0.5,1-1,1.5-1.4
	c1.5-1,2.6-2.5,3.7-3.8c0.3-0.3,0.4-0.8,0.6-1.2c0.2-0.5,0.3-1,0.4-1.6c1.1-1.1,1.4-2.5,1.1-4.1c1.1-0.8,1.3-1.9,1.2-3.1
	c-0.1-0.7,0-1.5,0.2-2.2c0.1-0.4,0.2-0.9,0-1.3c-0.2-0.7-0.1-1.4,0-2c0.2-1.7,0.3-3.3,0.1-5.1c-0.4-0.3-0.8-0.6-1.1-0.9
	c-1.2,0.6-1.2,0.6-2,0.5c-2-0.1-4,0-6,0.3c-1.2,0.2-2.3,0.1-3.4-0.2c-1.4-0.4-2.9-0.3-4.1,0.6c-0.2,1.4-0.2,4,0,5.4
	c1.1,0.6,2.2,0.7,3.4,0.4c0.9-0.2,1.7-0.2,2.5,0.1c1.1-0.6,2.3-0.3,3.4-0.3c0.2,0,0.5,0.2,0.7,0.3c0.3,0.7,0.2,1.2,0,1.8
	c-0.1,0.6-0.3,1.2-0.5,1.8c-0.3,1.3-0.7,2.7-0.8,4c-0.2,1.5-0.7,3-2.2,3.9c-0.5,0.3-0.8,0.8-1.1,1.3c-0.5,0.7-1.1,1.2-1.8,1.6
	c-0.9,0.5-1.9,0.7-2.8,1.4c-0.2,0.2-0.6,0.2-1,0.2C200.2,303.3,199.7,303.3,199.3,303.3z"/>
<path class="st1" d="M223.3,118c0.3,0.2,0.6,0.4,0.9,0.6c0.5,0.3,0.8,0.7,0.9,1.2c0.1,0.7,0.4,1.3,0.8,1.9c0.1,0.1,0.2,0.3,0.3,0.5
	c0.3,0.6,0.5,1.3,0.3,2c-0.2,0.8-0.5,1.5-1.6,1.9c-1.2-0.1-2.5,0.3-4,0.2c-0.4,0.2-0.9,0.4-1.5,0.6c-0.6-0.1-1.2-0.2-1.9-0.4
	c-0.9,0.1-1.7,0.2-2.6,0.2c-0.4,0-0.8-0.1-1.2-0.2c-0.2-0.3-0.4-0.7-0.6-1c-0.1-0.3-0.2-0.5-0.3-0.8c-0.6-1.4-1.3-2.6-2.6-3.2
	c-1.3-2.2-2-4.5-3.4-6.5c-0.4-0.3-0.8-0.6-1.3-0.9c-0.1-0.3-0.2-0.7-0.4-1.1s-0.4-0.9-0.7-1.1c-1-0.7-1.4-1.8-2.1-2.7
	c-0.3-0.5-0.4-1.2-0.7-1.9c-1-0.5-1.1-1.9-2-2.7c-0.8-0.8-1.3-1.9-1.9-2.8c-0.6-0.4-1.2-0.5-1.8-0.4c-0.4,0.1-0.9,0.1-1.4,0.1
	c-0.8,0-1.6,0.1-2.4,0.4c-0.5,0.2-1.1,0.3-1.7,0.3c-1.1,0-2.2,0-3.3,0s-2,0.3-3.1,0.5c-0.1,0-0.2,0.2-0.4,0.4
	c0.1,0.4,0.3,0.8,0.4,1.3c0.1,1,0.3,1.9,0.3,2.9c0.1,1,0,2,0.3,2.9c0.1,0.2,0.1,0.3,0.1,0.5c-0.3,1.4,0.2,2.6,0.7,3.9
	c-0.3,1-0.5,2-0.2,3c0.2,0.6,0.2,1.2,0.3,1.9c0.1,0.6,0.1,1.1,0.2,1.7c0.1,1.2,0,2.4,0.7,3.4c-0.1,1.2-0.3,2.3-0.4,3.5
	c-0.5,0.9-0.5,0.9-1.9,1.7c-0.2,0-0.4,0-0.6,0c-0.2,0-0.5,0-0.7,0c-0.5,0.2-0.9,0.4-1.4,0.7c-0.9,0.4-1.8,0.6-2.5-0.2
	c-1.3,0.2-2.5,0.5-3.8,0.7c-0.4-0.3-0.9-0.6-1.4-0.9c-0.1-0.4-0.1-0.8-0.3-1.2c-0.3-0.7-0.3-1.5-0.1-2.2c0.3-1.2,0.2-2.3,0-3.4
	c-0.3-1.3-0.5-2.6-1.1-3.9c0.4-1.1,0.3-2.2,0.1-3.3c-0.3-1.9-0.6-3.9-0.5-5.8c0.1-0.9,0-1.9-0.4-2.7c-0.5-1.1-0.4-2.1-0.2-3.2
	c0.1-0.4,0.3-0.8,0.2-1.2c-0.2-0.9,0.1-1.8-0.2-2.7c-0.3-0.8-0.4-1.7-0.5-2.5c-0.1-0.6-0.3-1.2-0.3-1.9c0-0.9-0.2-1.7-0.4-2.6
	s-0.7-1.7-0.4-2.7c0.1-0.2-0.1-0.4-0.2-0.7c-0.1-0.6-0.4-1.2-0.2-1.9c0-0.1,0-0.4-0.1-0.5c-0.7-1.4-0.4-2.9-0.4-4.4
	c0-0.5,0.1-1,0.1-1.5c0.1-1-0.1-1.9-0.7-2.8c0.1-0.8,0.3-1.6-0.2-2.4c-0.1-0.2-0.1-0.4-0.1-0.7c0.1-0.6,0-1.3-0.2-1.9
	c-0.2-0.7-0.2-1.4,0-2c0.1-0.3,0.2-0.7,0.2-1c-0.1-1.3-0.3-2.6-0.4-3.9c0-0.3-0.3-0.6-0.3-0.7c-0.2-1.1-0.2-2-0.4-2.8
	c-0.3-1.3,0-2.4,1-3.2c0.5-0.4,1-0.8,1.5-1.2c0.8-0.1,1.7-0.3,2.7-0.5c0.2,0,0.6,0.1,1,0.1c0.4-0.2,0.9-0.3,1.4-0.5
	c0.9,0,1.8,0,2.7,0c1.2,0,2.3-0.1,3.3-0.7c1.2,0,2.3,0.1,3.9,0.1c0.8-0.3,2-0.5,3.3-0.5c0.7,0,1.5-0.2,2.2-0.5
	c0.7-0.2,1.4-0.3,2.2-0.2c1,0.1,1.9,0,2.9,0c0.3-0.1,0.6-0.3,1-0.4c0.7-0.3,1.4-0.4,2.2-0.2c1,0.2,1.9,0.2,2.9,0
	c0.5-0.2,1.2-0.2,1.7-0.1c0.9,0.2,1.7,0.2,2.6,0.3c0.5,0,0.9,0.2,1.3,0.3c1.6,0.4,3.1,0.8,4.8,1.2c0.6,0.7,1.4,1.1,2.4,1
	c0.2,0.1,0.3,0.2,0.4,0.2c1.1,1.2,2.3,2.3,3.7,3.1c0.3,0.2,0.7,0.5,0.9,0.8c0.8,1.2,1.9,2.2,2.4,3.6c0.1,0.2,0.1,0.5,0.3,0.6
	c0.7,0.6,0.9,1.5,1.1,2.3c0.4,1.4,0.8,2.7,0.9,4.2c0,1.1,0.5,2.1,0.8,3.4c-0.1,0.4-0.2,1-0.3,1.6c0.3,0.6,0.5,1.2,0.8,1.8
	c-0.2,0.5-0.4,1-0.6,1.5c0.4,1.1,0.2,2.1-0.3,3.1S223,87,222,87.7c0.1,1.6-0.9,2.8-1.6,4c-0.1,0.1-0.2,0.3-0.3,0.4
	c-1.5,0.9-2.4,2.4-3.8,3.2c-0.6,0.4-1,0.9-1.6,1.5c-1.1,0.3-2.3,0.8-2.9,2.1c0.2,0.2,0.3,0.5,0.5,0.7c0.5,0.5,0.9,1,1,1.7
	c0.1,0.4,0.4,0.7,0.6,1c0.8,1,1.6,1.9,2.2,3.1c0.3,0.6,0.9,1.1,1.5,1.8c-0.1-0.1,0,0,0,0.1c0.4,1.6,1.2,3,2.2,4.3
	c0.8,1,1.3,2.2,2.1,3.4c0.1,0.1,0.4,0.3,0.8,0.6C222.7,116.5,223,117.2,223.3,118z M220.5,84.6c0.2-0.5,0.5-1.1,0.6-1.6
	c0.1-0.4,0.3-0.9,0.3-1.3c0-1.2,0.2-2.5-0.1-3.6c-0.3-1.3-0.1-2.5-0.3-3.8c-0.1-0.5-0.3-1-0.4-1.5c-0.1-0.3-0.3-0.5-0.3-0.8
	c0-1.5-0.8-2.6-1.3-3.9c-0.1-0.2-0.2-0.3-0.2-0.5c-0.4-0.3-0.7-0.6-0.9-0.8c-1.7-3.4-4.6-5.2-7.5-6.9c-2.1-0.3-4.1-0.5-6-0.7
	c-1.5-0.2-3.1-0.4-4.6-0.3c-1.8,0-3.5,0.6-5.3,0.4c-1.6,0.5-3.1,0.6-4.8,0.6c-0.4,0-0.8,0.2-1.2,0.3c-0.2,0-0.3,0.1-0.5,0.1
	c-0.5-0.1-0.9-0.2-1.4-0.3c-1.4,0.3-2.9,0.6-4.3,0.9c-0.5,0.1-0.9,0.2-1.4,0.1c-2.4-0.2-4.8,0-7.2,0.2c-1.4,0.1-2.8,0.4-4.2,1
	c0.1,0.9-0.2,1.8,0.1,2.6c0.2,0.6,0.2,1.1,0.2,1.7c0,0.9,0,1.7,0.3,2.6c0.1,0.4,0.1,0.9,0.2,1.4c0,0.7,0,1.5,0,2.2
	c0,0.9,0.1,1.8,0.4,2.7c0.6,1.8,0.9,3.7,0.4,5.5c0.6,1.4,0.6,1.4,0.5,2.9c-0.1,2.2,0,4.4,0.7,6.5c0.3,0.9,0.5,1.9,0.7,2.8
	c-0.4,1.9-0.3,3.7-0.3,5.6c0.7,0.9,1,2,1.2,3c-0.2,1.1-0.4,2.2-0.5,3.4c0.4,1.9,0.9,3.8,1.3,5.6c-0.1,0.4-0.3,0.8-0.2,1.1
	c0.2,1.4,0.1,2.7,0.5,4.1c0.4,1.6,0.7,3.3,0.4,5c-0.1,0.5,0,1,0.1,1.5c0.6,2.6,0.6,2.6,0.6,5.3c0,0.5-0.1,0.9,0.3,1.4
	c1,0.2,2.1-0.5,3.2-0.2c1.2-0.6,2.5-0.8,3.4-1.7c0.1-0.6,0.3-1.2,0.3-1.7c0.1-0.6,0.2-1.3,0-1.9c-0.2-0.7-0.2-1.5-0.4-2.2
	c-0.1-0.8-0.4-1.7-0.6-2.7c0.5-1.4,0.5-3-0.1-4.6c-0.2-0.6-0.2-1.2-0.2-1.9c0-0.6,0-1.3,0-1.8c-0.2-0.6-0.4-1.1-0.7-1.7
	c0.7-2,0.3-3.8-0.6-5.5c0.3-1.1,0.2-2.1,0.8-3.1c0.8-0.1,1.6-0.1,2.4-0.1c1.9,0,3.8-0.2,5.6-0.7c1.1-0.3,2.1-0.5,3.1-0.1
	c2-0.6,2-0.6,3.9-0.3c0.7-0.2,1.5-0.6,2.1-0.2c1.1,1.9,2,3.6,3.1,5.2c0.7,1,1.6,2,2,3.2c1.1,0.6,1.5,1.6,1.6,2.8
	c1.3,0.8,2,2,2.6,3.3c0.2,0.5,0.5,0.9,0.9,1.2c0.6,0.4,0.9,1,1.2,1.6c0.5,0.9,1,1.8,1.6,2.6c0.7,0.9,1.2,1.8,1.4,2.9
	c0,0.1,0.1,0.2,0.2,0.3c0.4,0.3,0.8,0.6,1.2,0.8c0.1,0.3,0.2,0.6,0.3,0.9s0.2,0.5,0.3,0.8c0.3,0.1,0.5,0.2,0.8,0.4
	c0.5-0.2,0.9-0.5,1.3-0.5c0.5-0.1,1,0,1.6,0c1.2-0.6,2.4-1,3.7-0.6c0.5-0.2,1.2-0.1,1.3-0.8c-0.5-0.8-1.1-1.5-1.4-2.3
	c-0.6-1.5-1.6-2.8-2.6-4c-0.3-0.3-0.5-0.7-0.8-1.1c-1-1.5-1.5-3.2-2.7-4.6c-0.2-0.2-0.3-0.6-0.4-0.9c-0.2-0.7-0.6-1.3-1.1-1.7
	c-0.9-0.9-1.6-1.9-2.2-3.1c-0.2-0.4-0.3-0.7-0.6-1c-0.4-0.4-0.7-0.9-0.8-1.5c-0.1-0.3-0.3-0.6-0.4-0.9c-0.7-1.1-1.5-2.2-2.2-3.3
	c-0.2-0.3-0.5-0.5-0.3-1c0.3-0.2,0.7-0.4,1-0.6c1.5-0.9,3-1.7,4.5-2.6c0.5-0.3,1.1-0.7,1.5-1.1c0.8-0.9,1.7-1.6,2.7-2
	c0.5-0.8,1.1-1.4,1.5-2.2c0.3-0.4,0.5-0.9,0.7-1.4c0.3-0.7,0.4-1.4,0.7-2.2C220.6,85.1,220.5,84.8,220.5,84.6z"/>
<path class="st1" d="M30.8,160.7c1.1-0.6,1.6-1.5,2.1-2.5c0.4-0.8,0.8-1.5,1.4-2.2c0.3-0.3,0.5-0.8,0.7-1.2c0.4-0.7,0.7-1.4,1.1-2.2
	c0.3-0.7,0.7-1.3,1.3-1.8c0.9-0.7,1.6-1.7,2.1-2.7c0.4-0.9,1-1.7,1.6-2.5c1.3-1.7,2.3-3.6,3.3-5.5c0.5-1,1.1-1.9,2-2.6
	c0.2-1.4,1.5-2.1,2-3.2c1.6-0.8,1.6-0.8,2.8-0.8c1.1,0.5,2.1,0.9,3.3,1.5c0.6,1.4,2.2,1.5,3.4,2.4c0.2,0.3,0.4,0.7,0.5,1
	c0.1,1,0.2,2,0.3,3.1c-0.7,1-1.4,2.1-2.3,3.4c-0.1,0.3-0.3,0.9-0.5,1.6c-0.4,0.4-0.8,0.9-1.3,1.3c-0.5,0.5-0.9,1-1.1,1.7
	c-0.3,1.2-1,2.3-1.4,3.5c-0.2,0.7-0.7,1.2-1.3,1.5c-0.9,0.5-1.5,1.3-2,2.3c-0.7,1.4-1.6,2.8-2.5,4.4c-0.8,0.6-1.4,1.5-1.9,2.6
	c-0.3,0.7-0.8,1.3-1.2,1.9c-0.4,0.6-0.7,1.3-1,2c-0.1,0.2,0,0.4,0,0.7c1.2,0.6,2.2,1.2,3.4,1.7c0.7,0.3,1.3,0.6,1.7,1.1
	c1.2,1.4,2.6,2.3,4.2,2.7c1.2,1.2,1.4,1.3,3.4,2.1c0.6-1,1.3-1.9,2.3-2.4c0.1-0.3,0.2-0.5,0.2-0.7c0.2-1.1,0.7-2.1,1.5-2.8
	c0.1-0.1,0.3-0.2,0.3-0.4c0.4-0.6,0.7-1.2,1.1-1.8c0.3-0.5,0.8-1,1.1-1.5c0.1-0.2,0.2-0.4,0.4-0.6c0.6-0.5,0.9-1.2,1.2-1.9
	c0.3-0.6,0.6-1.1,0.9-1.7c0.3-0.6,0.8-1.1,1.5-1.4c1.2-0.1,2.3,0,3.4,0.8c0.7,0.5,1.5,0.8,2.6,1.3c0.1,0.1,0.4,0.4,0.8,0.8
	c0.4,0.1,0.8,0.2,1.2,0.3c0.7,0.6,1.3,1.2,2.1,1.9c0.1,0.3,0.3,0.9,0.5,1.5c-0.8,1.3-1.5,2.7-2.8,3.6c-0.7,0.5-1.1,1.2-1.3,2
	c-0.1,0.4-0.1,0.8-0.2,1.2c-0.4,0.3-0.9,0.7-1.2,1c-0.1,0.1-0.1,0.2-0.2,0.2c-0.3,1.5-1,2.7-1.9,3.8c-0.7,0.9-1.3,1.9-2,2.8
	c-0.2,0.3-0.4,0.6-0.5,0.8c0.4,0.3,0.8,0.6,1.1,0.9c1.6,1.7,3.6,2.8,5.8,3.7c0.8,0.3,1.5,0.7,2.1,1.4c0.4,0.4,1,0.8,1.5,1.1
	c0.8,0.4,1.5,0.8,2.3,1.2c1.1,0.5,2,1.2,3,2.1c1.3,1.2,2.7,2.2,4.5,2.5c1,1.3,2.5,1.8,3.7,2.7c0.1,0.1,0.1,0.2,0.2,0.2
	c1.1,1.4,0.9,2.7-0.2,4c-1.2,1.3-2,3-2.4,4.6c-0.7,0.7-1.3,1.3-2.1,2.1c-0.6,0-1.4,0.1-2,0.1c-1.6-0.8-2.9-1.6-4.3-2.2
	c-0.7-0.3-1.1-0.8-1.5-1.3c-1.1-0.8-2.6-1-3.3-2.3c-1.4-0.4-2.5-1.1-3.5-2.1c-0.5-0.5-1.1-0.8-1.7-1.1c-0.7-0.5-1.5-0.9-2.2-1.3
	c-0.4-0.2-0.8-0.6-1.2-0.7c-0.9-0.2-1.6-0.7-2.2-1.3c-1.3-1.1-2.7-2-4.1-2.8c-0.5-0.3-1-0.6-1.2-1.1c-0.2-0.4-0.6-0.7-1.1-0.8
	c-1.3-0.3-2.4-1.1-3.5-1.9c-0.5-0.4-1-0.8-1.5-1.1c-1.6-1.1-3.2-2.3-5-3c-1.3-0.5-2.4-1.3-3.4-2.3c-0.8-0.9-1.9-1.3-3.2-1.4
	c-1.2-1.5-2.8-2.4-4.5-3.4c-2.3-1.4-4.5-2.8-6.7-4.2c-0.9-0.6-1.8-1.1-2.4-1.9c-0.3-0.3-0.7-0.6-1-0.8c-0.1-0.2-0.1-0.2-0.1-0.3
	c0-0.9-0.2-1.9,0-2.7c0.2-0.9,0.8-1.6,1.3-2.5c0.9-0.5,1.4-1.3,1.7-2.3c0.1-0.4,0.3-0.8,0.6-1.1C30.1,162.8,30.5,161.9,30.8,160.7z
	 M50.3,135.9c-0.2,0.2-0.4,0.2-0.5,0.4c-0.2,0.2-0.3,0.5-0.4,0.7c-0.4,1-1,1.8-1.6,2.6c-0.4,0.5-0.8,1.1-1.2,1.7
	c-0.6,1.1-1.3,2.2-2,3.2c-0.8,1-1.4,2.3-2.1,3.4c-0.5,0.8-1,1.7-1.6,2.4c-0.7,0.9-1.5,1.8-1.8,2.9c-0.1,0.2-0.2,0.4-0.4,0.6
	c-0.7,0.5-0.8,1.3-1,2.1c-0.6,0.5-1.1,0.9-1.3,1.6c-0.1,0.3-0.3,0.5-0.5,0.7c-0.6,0.5-1,1.1-1.2,1.9c-0.2,0.7-0.6,1.3-1.1,1.7
	c-0.8,0.7-1.3,1.6-1.8,2.5c-0.5,1-1.1,2-1.9,2.8c-0.1,0.5-0.2,0.9-0.2,1.4c-1.1,0.7-1.8,1.6-1.5,3c1.2,1,2.4,2,4,2.1
	c0.6,0.6,0.8,1.5,1.9,1.9c0,0,0.3,0.1,0.6,0.1c0.5,0,1.1,0.2,1.4,0.6c1,1.1,2.2,1.6,3.6,2c0.2,0,0.3,0.2,0.4,0.3
	c0.1,0.3,0.2,0.7,0.2,0.9c0.8,0.8,1.6,1.4,2.7,1.6c0.9,0.2,1.6,0.7,2.3,1.2c0.6,0.4,1.2,0.9,1.8,1.4c0.9,0.7,1.8,1.3,2.9,1.5
	c0.5,0.7,1.2,1.1,1.9,1.4c1,0.5,2.1,1,2.9,1.8c1.1,1.1,2.4,1.8,3.8,2.3c1,0.4,1.9,1,2.8,1.7c1.4,1.2,3,2.2,4.6,3.1
	c1.1,0.6,2.2,1.2,3.4,1.8c0.5,1.2,1.6,1.8,2.8,2.2c0.7,0.2,1.4,0.5,2.1,0.8c0.4,0.2,0.8,0.3,1,0.6c0.7,0.7,1.6,1.2,2.3,1.6
	c0.5,0.6,0.9,1,1.2,1.5c1,0.2,1.8,0.7,2.5,1.3c0.6,0.6,1.3,1.1,2,1.6c0.3,0.2,0.7,0.4,1.1,0.6c0.2-0.2,0.4-0.4,0.4-0.6
	c0.1-0.8,0.6-1.4,1-2c0.5-0.7,1-1.4,1.4-2.2c0.4-0.7,0.9-1.4,1-2.2c-1-0.8-1.9-1.8-3-1.9c-1.6-1-2.9-1.8-4.2-2.7
	c-0.3-0.2-0.7-0.5-1-0.7c-0.9-0.9-2-1.6-3.2-2c-1.6-0.6-2.9-1.5-4.2-2.6c-0.6-0.5-1.3-1-2-1.4c-1.9-0.9-3.6-2-5.4-3
	c-0.8-0.4-1.5-1-2.2-1.5c-0.1-0.3-0.2-0.5-0.2-0.8c0.5-1,1-2.1,1.5-3.1c0.3-0.5,0.8-1,1.2-1.5c0.3-0.3,0.6-0.5,0.9-0.8
	c0.5-1.3,1.2-2.5,1.3-3.8c0.2-0.2,0.3-0.3,0.5-0.4c0.8-0.4,1.3-1.1,1.6-2c0.3-0.9,0.8-1.6,1.2-2.3c0.6-0.4,1-0.8,1.4-1.1
	c0.1-0.8,0.5-1.5,0.3-2.3c-0.6-0.5-1.2-1-1.9-1.6c-0.4,0-1-0.1-1.6-0.2c-0.6-0.8-1.2-1.6-2.4-1.8c-0.2,0.1-0.4,0.3-0.5,0.4
	c-0.6,0.7-1.2,1.4-1.8,2.1c-0.2,0.3-0.4,0.6-0.5,0.9c-0.1,0.3,0,0.7,0,1.1c-0.9,1-1.8,2.1-2.8,3.2c-0.1,1-0.5,1.8-1.1,2.5
	c-0.8,1-1.4,2.1-1.6,3.3c-0.7,0.9-1.4,1.7-2.1,2.6c-0.2,0.2-0.4,0.3-0.7,0.5c-1-1-2-1.6-3.3-2c-0.4-0.1-0.7-0.4-1-0.6
	c-0.3-0.2-0.5-0.5-0.8-0.6c-0.8-0.3-1.4-0.8-1.9-1.4c-0.5-0.6-1.2-1.1-1.8-1.2c-0.5-0.5-0.8-0.9-1.2-1.2c-0.7-0.4-1.5-0.9-2.3-1.1
	c-0.7-0.2-1.2-0.6-1.6-1.2c-0.7-0.9-1.5-1.5-2.7-1.7c-0.1,0-0.2-0.1-0.3-0.2c-0.1-0.1-0.1-0.4-0.2-0.5c0.1-0.1,0.1-0.2,0.1-0.2
	c0.9-0.8,2.1-1.5,2.3-2.8c0.7-0.4,0.9-1.2,1.2-1.8c0.1-0.3,0.3-0.7,0.5-0.9c0.9-0.9,1.4-2.1,2-3.2c0.2-0.5,0.5-0.9,0.8-1.3
	c0.2-0.3,0.5-0.7,0.6-1c0.4-1.1,1.1-1.9,1.9-2.2c0.8-1,1.5-1.8,2.2-2.7c0.5-1.2,1.1-2.5,1.7-3.8c0.2-0.4,0.4-0.8,0.8-1.1
	c0.3-0.2,0.5-0.4,0.8-0.7c0.2-1.2,0.8-2.1,1.4-3.1c0.7-1.1,1.3-2.3,2-3.4c0,0,0.1-0.1,0.1-0.2c0,0,0-0.1-0.1-0.2
	c-1.2-0.7-2.5-1.3-3.5-2.4C52.4,136.3,51.5,135.8,50.3,135.9z"/>
<path class="st1" d="M337.3,181.7c0.2-0.2,0.4-0.3,0.6-0.5c0.8-0.8,1.6-1.4,2.7-1.8c0.9-0.3,1.7-0.9,2.4-1.7
	c1.1-1.2,2.5-1.8,3.8-2.7c0.5-0.3,1.1-0.3,1.7-0.5c0.6-0.5,1.4-1.1,1.9-1.8c0.3-0.4,0.7-0.6,1.1-0.8c0.5-0.3,1.1-0.5,1.6-0.7
	c1-0.5,1.9-1,2.6-1.9c0.3-0.3,0.6-0.5,0.9-0.7c1.1-0.6,2.2-1.2,3.3-1.8c0.3-0.2,0.7-0.4,1-0.7c0.4-0.3,0.8-0.5,1.1-0.8
	c0.6-0.4,1.1-0.8,1.9-1.3c0.1,0,0.5-0.1,0.9-0.2c0.4-0.2,0.7-0.5,1-0.7c0.2,0,0.4,0,0.6-0.1c0.2,0,0.3-0.1,0.4-0.1
	c0.6-0.4,0.9-0.8,1.1-1.4c0.3-0.9,1.1-1.3,1.9-1.5c0.3-0.1,0.6-0.1,0.8-0.2c0.3-0.1,0.6-0.2,0.8-0.4c0.6-0.7,1.4-0.9,2.2-1.4
	c0.7-0.4,1.4-0.9,2-1.3c0.8-0.6,1.6-1.3,2.5-1.8c0.2-0.1,0.3-0.3,0.4-0.4c0.2-0.6,0-1-0.3-1.4c-1.2-1.7-2.5-3.3-3.6-5
	c-0.5-0.7-0.9-1.4-1.3-2.2c-0.5-1-1-2-1.7-2.8c-0.9-1-1.3-2.1-1.9-3.3c-0.3-0.6-0.4-1.3-0.2-2c0.1-0.3,0.2-0.7,0.3-1.2
	c0.9-0.8,1.9-1.6,2.9-2.6c1.6-0.4,2.8-1.5,3.9-2.7c0.6-0.2,1.1-0.1,1.5,0.2c1.8,1.3,3.5,2.6,4.5,4.7c0.8,1.8,1.9,3.4,3.1,5
	c0.9,1.1,1.7,2.4,2.3,3.7c0.8,1.8,1.8,3.3,3.4,4.5c0.1,0.4,0.3,0.8,0.4,1.2c0.3,1,0.8,1.9,1.6,2.6c0.7,0.6,1.1,1.3,1.6,2
	c0.6,1.1,1.4,2.1,1.6,3.4c0,0.2,0.2,0.4,0.3,0.6c0.6,1,1.1,2,1.8,3.1c0.3,0.2,0.7,0.5,1.1,0.9c0.1,0.3,0.3,0.6,0.5,0.9
	c0.9,1.1,1.7,2.3,2.5,3.6c0.4,0.6,0.8,1.1,1.3,1.6c0.6,0.5,1,1.1,1.3,1.8c0.4,0.9,0.8,1.8,1.3,2.7c0,0.7,0,1.5,0,2.2
	c-1.1,0.8-2,1.6-3.1,2.4c-0.5,0.3-1,0.7-1.5,0.8c-1,0.3-1.8,0.7-2.5,1.3c-1.3,0-2.5,0-3.7,0c-0.7-0.8-1.4-1.7-1.7-2.7
	c-0.5-1.6-1.4-2.7-2.8-3.4c-0.1-0.2-0.2-0.3-0.3-0.4c-0.4-1.4-1.1-2.6-2-3.8c-0.5-0.7-0.9-1.5-1.3-2.2c-0.6-0.9-1.1-1.9-1.9-2.6
	c-1.5-0.2-1.9,1.1-2.8,1.9c-0.2,0.1-0.6,0.2-1,0.4c-0.2,0.3-0.5,0.6-0.7,0.9c-0.1,0.1-0.2,0.1-0.3,0.2c-0.2,0.1-0.5,0.1-0.7,0.2
	c-0.6,0.4-1.2,0.8-1.9,1.2c-0.6,0.4-1.3,0.4-1.8,1c-0.1,0.1-0.3,0.2-0.4,0.3c-1.5,0.5-2.5,1.6-3.6,2.6c-1.3,1.3-2.9,2.3-4.8,2.7
	c-0.2,0.3-0.5,0.6-0.7,1c-0.4,0.6-1,1-1.7,1.1c-1.2,0.3-2.3,0.8-3.4,1.5c-0.9,1.7-2.5,2.3-4.4,2.5c-0.3,0.6-0.6,1.1-0.9,1.6
	c-0.2,0.1-0.4,0.2-0.5,0.2c-1,0-1.8,0.3-2.3,1.2c-0.2,0.3-0.6,0.5-1,0.7s-0.7,0.3-1.2,0.5c-0.3,0.4-0.7,0.8-1.1,1.4
	c-0.4,0.2-0.8,0.4-1.3,0.6c-1.5,0.7-2.8,1.6-4,2.7c-0.6,0.6-1.2,1-2,1.3c-0.5,0.1-1,0.4-1.4,0.7c-1.1,0.9-2.2,1.8-3.4,2.7
	c-0.2,0.1-0.4,0.3-0.6,0.4c-0.6,0-1.2,0-1.8,0c-0.6-0.4-1.2-0.9-1.4-1.5c-0.3-0.8-0.9-1.5-1.5-2.1c-0.1-0.2-0.2-0.3-0.2-0.5
	c0-0.9-0.4-1.5-1.1-2.1c-0.9-0.7-1.6-1.7-1.9-2.7c0-0.7,0-1.3,0-2c0.8-0.9,1.9-1.4,2.9-1.8c0.4-0.2,0.9-0.3,1.2-0.6
	C335.1,182.5,336.1,181.9,337.3,181.7z M373.7,136.4c-0.6,0.5-1.3,0.9-1.6,1.7c0.2,0.6,0.4,1.3,0.8,1.8c0.9,1.2,1.6,2.4,2.1,3.8
	c0,0.1,0.1,0.2,0.2,0.3c0.5,0.5,0.7,1.1,0.8,1.7c0.2,0.7,0.6,1.4,1.3,1.8c0.1,0.1,0.1,0.2,0.2,0.3c0.1,0.3,0.1,0.6,0.1,0.8
	c1.7,2.3,3.4,4.5,5,6.7c-0.2,0.5-0.7,0.7-1.1,0.8c-1.2,0.2-2.1,0.9-2.9,1.7c-0.4,0.4-1.1,0.7-1.6,1c-0.5,0.4-0.9,1.1-1.5,1.4
	c-1.6,0.8-3,1.9-4.8,2.3c-0.5,1-1.3,1.5-2.1,2.1c-0.8,0.2-1.4,0.4-2.1,0.6l0.1,0.1c-1.7,1.4-3.4,2.8-5.1,4.2c-0.5,0.1-1,0.3-1.5,0.4
	c-0.6,0.1-1.1,0.4-1.5,0.8c-0.6,0.7-1.3,1.3-2.3,1.4c-0.3,0-0.5,0.2-0.8,0.4c-0.7,0.4-1.3,0.9-2,1.4c-1.4,1-2.6,2.3-4.3,2.8
	c-0.2,0-0.3,0.2-0.4,0.3c-0.9,0.9-1.9,1.2-3.1,1.3c-0.1,0.4-0.2,0.7-0.4,1c-0.2,0.1-0.4,0.3-0.6,0.4c-1.2,0.9-2.5,1.6-3.6,2.6
	c-0.4,0.4-1,0.6-1.5,0.8c-0.6,0.3-1.3,0.6-1.8,1c-1,0.9-2.2,1.5-3.4,1.7c-1.3,1.1-1.3,1.1-1.7,2c0.2,1,1.4,1.2,1.9,2
	c0.3,1.5,1.1,2.8,2.1,3.9c0.6,0.1,1-0.1,1.4-0.4c0.5-0.4,0.9-0.8,1.4-1c1.2-0.5,2.2-1.3,3-2.3c0.7-0.2,1.3-0.3,2-0.5
	c0.9-1.1,2-2,3.3-2.7c0.7-0.3,1.3-0.7,2-1.1c1.1-0.6,2.3-1.1,2.9-2.1c0.5-0.3,1-0.4,1.3-0.7c0.7-0.5,1.5-0.6,2.1-1.2
	c1-0.1,1.5-0.9,2.1-1.5c0.5-0.2,1-0.4,1.5-0.6c0.4-0.2,0.8-0.5,1.1-0.8c0.7-0.6,1.4-1.3,2.2-2c0.4-0.3,0.8-0.6,1.3-0.8
	c1.2-0.3,2.1-1,2.9-1.8c0.5-0.4,1-0.8,1.2-1c0.6-0.2,0.9,0.1,1.2-0.2c0.4-1.3,1.5-1.9,2.9-2.3c0.3-0.1,0.7-0.2,1-0.3
	c0.9-0.2,1.5-0.7,2.2-1.3c1.1-1,2.2-2,3.7-2.4c0.3-0.1,0.5-0.2,0.7-0.4c0.8-0.6,1.6-1.1,2.3-1.9c1-1.1,2.2-1.6,3.5-2.1
	c0.3-0.1,0.7,0,0.9-0.1c0.2,0.2,0.3,0.3,0.4,0.5c0.8,1.3,1.7,2.6,2.7,3.8c0.7,0.8,1.3,1.8,1.7,2.8c0.8,1.8,2,3.3,3,5
	c0.1,0.1,0.2,0.3,0.3,0.4c0.9,0.7,1.5,1.7,1.7,2.7c0.4,0.5,0.8,0.7,1.3,0.7c0.7,0,1.3-0.1,1.8-0.4c0.4-0.2,0.8-0.5,1.2-0.7
	c1.3-0.5,2.1-1.4,2.7-2.6c-0.4-1.3-1-2.5-1.9-3.6c-0.5-0.6-1-1.2-1.3-1.8c-0.6-1.2-1.4-2.2-2.1-2.8c-0.7-1.1-1.1-1.8-1.6-2.5
	c-0.6-0.8-1-1.7-1.4-2.6c-0.8-0.7-1.4-1.6-1.7-2.7c-0.3-1.2-1.1-2.2-2-2.9c-0.4-0.4-0.9-0.7-1.3-1.1c0-0.5,0-0.9-0.1-1.3
	c-1.1-0.8-1.7-2-2.3-3.1c-0.3-0.5-0.6-1-0.9-1.5c-0.4-0.7-0.8-1.4-1.2-2.1c-0.4-0.8-0.9-1.5-1.5-2.1c-0.3-0.2-0.5-0.5-0.8-0.7
	c0-0.4-0.1-0.9-0.1-1.3c-0.7-1.1-1.3-2.3-2.3-3.1c-1-0.9-1.7-2-2.2-3.2c-0.2-0.6-0.4-1.2-0.9-1.6c-0.5-0.2-0.9-0.1-1.3,0.3
	c-0.4,0.4-0.9,0.9-1.3,1.3C374.9,136,374.4,136.2,373.7,136.4z"/>
<path class="st1" d="M365.9,259.5c-0.7,0.9-1.1,1.9-1.3,2.9c0.2,1.1,0.4,2.2,0.6,3.4c-0.2,0.7-0.2,1.5,0,2.4
	c0.3,1.4,0.3,2.7-0.3,4.1c0.2,0.4,0.3,0.8,0.5,1.3c-0.1,1.9-0.3,4-0.4,6c-0.1,1-0.1,2,0,2.9c0,0.5,0.1,1,0.3,1.5
	c0.3,0.7,0.4,1.5,0.2,2.2c-0.6,2.2-0.3,4.3,0.3,6.6c-0.1,0.3-0.3,0.7-0.5,1.2c0.1,0.6,0.1,1.3,0.2,2.1c-0.5,1.1-0.6,2.3-0.6,3.6
	c0,1.7-0.1,3.3,0.3,5c0.1,0.4,0,0.8-0.1,1.2c-0.2,0.6-0.2,1.2-0.1,1.9c0.1,0.4,0.2,0.8,0.2,1.2c0,0.5,0,1,0,1.6
	c-0.3,0.6-0.9,1-1.3,1.5c-1,0.5-2.1,0.6-3.2,0.3c-1-0.3-1.9-0.3-2.9,0.1c-1.1,0.4-2.3,0.3-3.3-0.2c-0.4-0.9-0.8-1.7-1.3-2.5
	c0.3-1.6-0.2-3.2-0.2-5c0.5-0.7,0.5-1.8,0.5-2.8c-0.1-1.6-0.2-3.1-0.3-4.7c0-0.3-0.1-0.7,0.1-1c0.3-0.8,0.1-1.6-0.1-2.3
	c0.2-1,0.6-1.8,0.1-2.8c-0.1-0.2,0.1-0.6,0.1-0.8c0-1.1,0.3-2.3-0.2-3.4c0.3-1,0.4-1.9,0.1-3c-0.3-1,0-2.2,0.3-3.1
	c0-0.8-0.5-1.2-0.8-1.6c0.2-0.2,0.3-0.4,0.4-0.5c0.1-1.3,0.2-2.6,0.3-3.8c0-0.3-0.1-0.7-0.1-1c-0.2-1.5-0.2-3,0.1-4.6
	c-0.4-0.9-0.2-2-0.2-3.2c0.2-0.4,0.4-0.8,0.6-1.2c-0.3-1.7-0.9-3.3-0.3-4.9c-0.4-0.9-0.4-0.9-1.1-1.3c-1.1,0.1-2.1,0.4-3.2,0.4
	c-1,0.1-2,0-2.9,0s-1.8-0.2-2.8-0.2c-0.4,0-0.8-0.1-1.2,0.1c-1.2,0.5-2.4,0.3-3.6,0.2c-0.9-0.1-1.8-0.2-2.7-0.3
	c-0.5,0-0.9-0.1-1.2-0.7c0.1-0.4,0.3-0.8,0.4-1.2c0-1.2,0-2.3,0-3.5c-0.1-0.1-0.2-0.4-0.3-0.8c0.1-1.3,0.2-2.6,0.2-3.9
	c0.1-0.7,0.5-1.1,1.3-1.5c1.2,0,2.7-0.1,4.1-0.1c0.4,0,0.9,0.2,1.4,0.3c1.8-0.7,3.9,0,5.7-0.6c1.7,0.2,3.2,0.3,5,0.5
	c0.5-0.1,1.2-0.3,2-0.3c0.7,0,1.4,0.4,2.3,0.6c2.6-0.8,5.4-0.7,8.3-0.4c0.8,0.1,1.6-0.2,2.4-0.3c0.3,0,0.5-0.2,0.9-0.3
	c0.4,0.1,0.8,0.3,1.3,0.5c1.5,0,3,0,4.6-0.3c0.9-0.2,1.8-0.1,2.8,0.3c1.1-0.4,2.2-0.4,3.4-0.1c0.4,0.1,0.9,0.1,1.4,0.2
	c1.4,0.2,2.1,1.2,1.8,2.6c-0.1,0.5-0.3,1-0.4,1.4c0.3,0.5,0.5,1,0.8,1.5c-0.1,0.3-0.2,0.7-0.4,0.9c-0.4,0.6-0.5,1.3-0.2,2
	c0.4,1.1,0.2,2-0.4,3.1c-1.3,0.5-2.7,0.7-4.2,0.4c-1.1-0.2-2.2-0.2-3.3-0.2c-1.9,0-3.8,0-5.7-0.1
	C368.1,258.9,367.5,258.9,365.9,259.5z M362.6,257.1c3-0.3,5.9-0.6,8.8-0.5c0.9,0,1.7-0.1,2.6-0.1c1.3-0.1,2.5-0.2,3.8,0.1
	c0.7,0.1,1.4,0.2,2.1,0.2c0.5,0,0.9-0.1,1.1-0.7c-0.3-1-0.3-2,0-3c0.3-0.9,0.4-1.9-0.1-2.8c-1.1-0.5-2.2-0.8-3.4-0.3
	c-0.3,0.1-0.7,0.2-1,0.1c-1.3-0.3-2.6-0.1-4-0.1c-0.8,0-1.6,0.1-2.6,0.1c-1.1-0.8-2.4,0.2-3.7,0.3c-0.2,0-0.5-0.1-0.8-0.2
	c-1.5-0.2-2.9-0.6-4.4-0.1c-0.3,0.1-0.7,0-1,0c-1.2-0.4-2.3-0.2-3.4,0.1c-0.4,0.1-0.8,0.2-1.2,0.4c-1.6-0.6-3.2-0.5-4.9-0.4
	c-1,0-2,0-2.9,0.1c-1.1,0-2.3,0.1-3.7,0.2c-0.2-0.1-0.7-0.2-1.2-0.4c-0.6-0.2-1.2-0.3-1.7-0.1c-1,0.3-1.9,0.4-2.9,0
	c-0.1,0.4-0.2,0.8-0.2,1.1c0.1,1.5,0.2,3,0.3,4.5c0,0.3,0.2,0.7,0.2,1c0.4,0,0.7,0.1,1.1,0.1c0.7,0,1.5-0.1,2.2-0.1
	c2.5,0,5-0.1,7.4-0.1c1.3,0,2.6-0.1,3.9,0.4c1-0.1,1.9-0.5,2.9,0c0.1,0.2,0.2,0.5,0.2,0.8s-0.1,0.6,0,0.8c0.4,1.1,0.2,2.1,0,3.2
	c-0.2,1.4-0.2,2.7,0.1,4.1c0.3,1.5,0.4,3-0.1,4.4c-0.1,0.4-0.1,0.8-0.1,1.2c0,3.2,0,6.3,0,9.5c0,1,0,2-0.3,2.9
	c-0.1,0.4-0.2,0.9-0.1,1.4c0.1,0.7,0.3,1.3,0.4,2s-0.3,1.4-0.1,2.2c0.2,0.7,0.2,1.5,0.3,2.3c-0.1,0.5-0.2,1-0.2,1.5s0.2,1,0.3,1.5
	c0.1,0.3,0,0.7,0,1c0,0.7,0,1.5-0.1,2.2c0,0.7-0.1,1.4-0.2,2.1c0.1,0.3,0.1,0.6,0.2,0.9c-0.5,1.7-0.9,3.4-0.4,5.1
	c0.1,0.3,0.1,0.7,0.1,1c0,0.9,0.2,1.7,0.4,2.4c0.4,0.6,0.9,0.7,1.5,0.5c0.8-0.3,1.7-0.2,2.6-0.2c0.6,0,1.1,0.2,1.7-0.1
	c0.4-0.4,0.4-0.8,0.4-1.3c0-1.6,0-3.2-0.1-4.8c0-0.7,0-1.4,0-2.1c0.1-1.1,0.2-2.2,0.2-3.3c0-1.4-0.5-2.8-0.2-4.3
	c0-0.1-0.1-0.2-0.1-0.3c0-0.5,0-1,0-1.5c0-0.3,0.1-0.6,0-0.8c-0.2-0.7-0.2-1.4,0.1-2c0.2-0.7,0.3-1.4,0.1-2c-0.4-1.4-0.2-2.7-0.2-4
	c0.2-0.4,0.4-0.8,0.5-1.1c0-0.2-0.1-0.4-0.1-0.6c-0.3-1.6-0.6-3.2-0.3-4.8c0.2-1.2,0.3-2.5-0.2-3.7c0.1-0.3,0.2-0.6,0.3-0.9
	c-0.5-2.2-0.6-4.4,0.4-6.5c-0.2-0.8-0.2-1.5-0.4-2.1c-0.3-1.1-0.3-2.2,0.4-3.1C362.5,259.2,361.8,258.2,362.6,257.1z"/>
<path class="st1" d="M46.1,257.1c0.8-3.1,0.8-3.1,0.1-5.3c0.1-1.3,0.4-2.5,1-3.7c0.7-0.3,1.3-0.6,2.1-1c0.1,0,0.4,0.1,0.6,0.1
	c2.6-0.2,5.1,0.5,7.7,0.1c0.2,0,0.3,0.1,0.6,0.1c0.5,1.1,0.8,2.2,0.3,3.5c-0.6,1.7-0.6,3.4,0,5.1c0.3,0.8,0.3,1.6,0.1,2.5
	c-0.2,0.8-0.1,1.7-0.2,2.7c-0.1,0.3-0.4,0.7-0.6,1.1c0.3,1.8,0.6,3.5,1,5.3c-0.1,0.3-0.2,0.7-0.2,1.1c-0.3,1.4-0.4,2.8-0.1,4.3
	c0.2,0.9,0.1,2,0,2.9c-0.1,1.1-0.4,2.2-0.6,3.4c0.2,0.8,0.6,1.8,0.1,2.6c0.2,0.7,0.4,1.3,0.6,1.9c-0.2,0.5-0.3,0.9-0.5,1.4
	c0.4,1,0.2,2.1,0.2,3.2c0,0.5,0.1,0.9,0.2,1.4c0.3,1.2,0.4,2.4,0,3.4c0.3,2.4,0.5,4.6-0.1,6.9c1.1,0.4,2.1,0.6,3.2,0.4
	c1.4-0.2,2.8-0.2,4.1-0.2c1.4,0,2.8,0,4.1-0.1c0.6,0,1.3,0,1.9,0.2c0.5,0.1,1,0.1,1.5,0c1-0.2,1.9-0.1,2.9,0
	c1.6,0.1,3.2,0.2,4.8,0.2c1.4,0,2.9,0,4.3-0.1c0.8,0,1.6,0,2.4-0.2s1.5,0,2.1,0.7c0,1.3,0,2.7,0,4c0,1.1,0,2.2,0.3,3.3
	c0.3,1.5-0.3,2.7-1.2,3.8c-0.8,0-1.5,0-2.2,0s-1.4,0.1-2.1,0c-0.6-0.1-1.2,0-1.9,0c-1.5,0.1-3.1,0.2-4.6-0.2
	c-1.2-0.3-1.3-0.2-2.8,0.3c-1-0.5-2.1-0.3-3.3-0.1c-1.3,0.3-2.8,0.2-4.1-0.1c-1-0.2-2.1-0.2-3.1,0c-0.6,0.1-1.3,0.2-1.9,0.2
	c-2.2,0-4.4,0-6.6,0c-1.2,0-2.3,0-3.5,0c-1.3,0-2.6,0-4,0.3c-0.7,0.2-1.4,0.2-2,0c0.1-1.3-0.3-2.5-0.5-3.9c0.3-0.8,0.3-1.6,0-2.6
	c-0.3-0.9-0.3-1.8,0-2.7c0.4-1.7,0.2-3.3-0.2-4.9c0-0.2-0.1-0.3-0.1-0.6c1.2-2,0.8-4.3,0.5-6.5c-0.1-1-0.2-2,0-3.1s0.2-2.2-0.1-3.3
	c-0.2-1.1-0.3-2.2,0-3.2c0.1-0.4,0.1-0.9,0.2-1.4c0.1-0.8,0.2-1.6,0.3-2.4c0.1-0.7,0.1-1.5-0.1-2.2c-0.6-2.4-0.6-4.9-0.4-7.4
	c0-0.3,0.1-0.6,0.1-0.9c-0.2-2.1,0.2-4.1,0.2-6.2C46.5,259.9,46.5,258.5,46.1,257.1z M49.2,250.2c-0.2,0.9-0.4,1.7-0.3,2.6
	c0.1,1.2,0.2,2.4,0.1,3.6c-0.2,1.4-0.3,2.8,0,4.3c0.2,0.9,0.2,1.7-0.1,2.6s-0.3,1.8,0,2.7c0.4,1.6,0.3,3.2,0.1,4.8
	c-0.2,1-0.2,2.1,0,3.1c0.1,0.6,0.1,1.1,0,1.7c-0.1,0.5-0.1,1-0.1,1.5c0.3,1.8,0.3,3.6,0,5.3c-0.1,0.7-0.1,1.5,0.1,2.2
	c0.2,0.9,0.2,1.7,0,2.6c-0.3,1-0.2,2.1,0.1,3c0,0.3-0.1,0.5-0.1,0.7c-0.1,0.9-0.3,1.9-0.1,2.7c0.3,1.2,0.2,2.5,0.5,3.7
	c0.3,0.9,0.2,1.9-0.2,2.9c-0.4,0.9-0.4,1.9-0.4,2.9c0,2,0.1,3.9,0.2,5.9c0,0.1,0.2,0.3,0.3,0.5c1.1,0,2.3,0.1,3.4-0.2
	c0.4-0.1,0.8-0.1,1.2-0.1c1.5,0.2,3.1,0.4,4.6,0.5c0.3,0,0.7-0.1,1-0.1c1.5-0.2,3.1-0.3,4.6,0c1.1,0.2,2.3,0.2,3.4,0
	c0.7-0.1,1.5-0.2,2.2-0.2c1.5,0.1,3,0,4.5-0.2c0.9-0.1,1.8-0.2,2.7,0.1c0.5,0.2,1,0.1,1.5,0.1c1.3,0,2.6,0,4,0c1,0,2,0,2.9-0.1
	c0.4,0,0.7-0.2,1-0.3c0.5-0.8,0.6-1.6,0.4-2.3c-0.3-1.3-0.3-2.5,0-3.8c-0.8-0.3-1.6-0.1-2.3-0.2c-0.8-0.1-1.6-0.2-2.6-0.3
	c-0.6,0.2-1.4,0.4-2.2,0.6c-0.6,0.1-1.1,0.3-1.7,0.1c-1.5-0.5-3-0.4-4.5-0.3c-0.8,0-1.7,0.1-2.4-0.1c-1.5-0.4-2.8-0.3-4.2,0.5
	c-1.3-0.1-2.6-0.2-3.9-0.3c-0.5,0-1,0.1-1.5,0.1c-1,0-2,0.2-2.9,0s-1.8-0.2-2.8,0.1c-0.1-0.4-0.2-0.7-0.2-1.1c0-1,0.1-2,0.2-2.9
	c0.1-1,0.1-1.9,0-2.9c-0.1-0.7,0-1.5,0.1-2.2c0.2-1,0.2-2,0-3.1c-0.1-0.5-0.2-1-0.1-1.5c0-1,0-2.1-0.2-3.1c-0.1-0.5-0.1-1,0-1.5
	c0.3-1.1,0.2-2.2,0-3.3c-0.1-0.4-0.1-0.8-0.1-1.2c0-2,0-4,0-6c0-0.4,0.2-0.8,0.3-1.2c0.1-0.6,0.2-1.1,0.1-1.7
	c-0.1-1.6-0.1-3.2-0.1-4.8c0-1.5,0-3,0-4.5c0-0.4-0.1-0.8-0.2-1.2c-0.3-1-0.3-1.9-0.1-2.9s0.2-1.9,0.2-2.9c-0.1-1.3-0.1-2.7,0.2-4
	c0.1-0.5,0-0.9-0.3-1.4c-0.4-0.1-0.8-0.3-1.3-0.4C52.8,250.2,51,250.1,49.2,250.2z"/>
<path class="st1" d="M122.3,249.4c0.4-0.5,0.7-0.9,1.1-1.3c0.3,0,0.7-0.1,1-0.1c1.8-0.2,3.5-0.4,5.3-0.6c0.3,0,0.5-0.2,0.8-0.2
	c0.8-0.2,1.5-0.1,2.3,0.3c0.4,0.4,0.9,0.9,1.4,1.5c0.3,1.3,0.2,2.6,0,3.9c-0.2,1.4-0.3,2.7,0,4.1c0.1,0.8,0.2,1.6-0.1,2.4
	c-0.3,0.9-0.2,1.8,0,2.7c0.2,0.9,0.3,1.8,0.2,2.7c-0.1,1.2-0.1,2.3,0.2,3.4c0.1,0.5,0.2,1.2,0.1,1.7c-0.3,0.9-0.2,1.8-0.2,2.7
	c0,0.5-0.1,1-0.2,1.5c-0.3,1-0.2,2,0,3.1c0.3,1.2,0.6,2.3,0.2,3.6c-0.1,0.5-0.1,1.1,0,1.7c0,0.7-0.1,1.3-0.5,1.8
	c0.1,0.5,0.2,1,0.2,1.6c-0.1,1.7,0,3.3,0.2,5c0.1,1.1,0.2,2.2-0.2,3.3c-0.1,0.3-0.1,0.6,0,0.9c0.3,1-0.1,2.1-0.1,3.1
	c0,1.2,0,2.4,0.2,3.6c0.2,1.7,0.2,3.3,0.2,5c0,1.1,0.1,2.3,0.1,3.6c-0.2,0.2-0.6,0.5-1,0.6c-1.1,0.4-2.3,0.8-3.4,1.1
	c-1.2,0.4-2.4,0.4-3.6,0.2c-0.8-0.2-1.6-0.2-2.3,0.1c-0.5-0.2-1-0.3-1.4-0.4c-0.1,0-0.2-0.1-0.3-0.2c-0.3-0.8,0.2-1.5,0.1-2.4
	c-0.1-0.4-0.3-0.9-0.5-1.5c0.1-0.5,0.2-1,0.4-1.5c0.2-0.7,0.2-1.4,0.1-2.1c-0.1-1.1-0.2-2.2-0.3-3.3c0-0.5,0-0.9-0.1-1.4
	c-0.2-1.1-0.1-2.2-0.1-3.3c0.1-1.4,0.2-2.8,0.3-4.1c0-0.3,0-0.6-0.1-0.9c-0.4-0.8-0.3-1.7-0.1-2.5c0.1-0.5,0.1-1,0.1-1.5
	c-0.1-1.1,0-2.2,0.2-3.3c0.2-0.7,0.1-1.5,0.1-2.2c-0.1-0.9-0.2-1.8-0.2-2.8c0-0.6,0-1.1-0.2-1.7c-0.3-1-0.1-2.1,0-3.1
	c0.1-0.7,0-1.5,0-2.2c-0.1-2.1-0.2-4.1,0.2-6.2c0.1-0.7,0.2-1.5,0.3-2.2c0.1-0.8,0.1-1.6-0.1-2.4c-0.2-0.7-0.3-1.4,0-2
	c0.2-0.7,0.2-1.4,0.1-2c-0.1-0.9-0.1-1.7,0-2.6c0.1-1,0.1-2.1-0.1-3.1C122.2,250.7,122.3,250.1,122.3,249.4z M131.3,309.6
	c0.6-1.3,0.8-1.8,0.5-2.8c-0.5-1.7-0.3-3.4-0.1-5.1c0.1-0.7,0.1-1.5,0-2.2c-0.2-1-0.2-2.1,0-3.1c0.1-0.4,0-0.8,0-1.2
	c0-0.5,0-0.9,0-1.4c0-1.1,0.2-2.2,0-3.3c-0.2-1-0.3-2-0.2-3.1c0-0.7,0.1-1.4-0.1-2.1c-0.2-0.8-0.2-1.5-0.1-2.2
	c0.2-1.3,0.3-2.6,0-3.9c-0.1-0.7-0.1-1.4,0-2.1c0.2-1.6,0.5-3.2,0.2-4.8c0-0.3,0-0.6,0-0.9c-0.1-0.9-0.2-1.8-0.3-3
	c0.5-1.6,0.3-3.6,0.1-5.5c-0.1-0.9-0.2-1.7-0.1-2.6c0.2-0.9,0.2-1.7,0.2-2.6c0-0.6,0.1-1.1,0.2-1.7c0.3-2,0.1-3.9-0.3-5.8
	c0-0.2-0.3-0.3-0.5-0.4c-0.5,0.2-0.9,0.3-1.4,0.5c-1.1-0.4-2.2-0.3-3.4-0.3c-0.5,0-0.9,0.1-1.2,0.5c-0.4,0.9,0,1.7,0.2,2.5
	c-0.2,0.5-0.4,0.9-0.6,1.3c0.4,1.4,0.4,1.7,0.1,3.2c-0.1,0.4-0.1,0.9-0.2,1.2c0.3,0.6,0.5,1.1,0.7,1.6c-0.4,1.2-0.3,2.4-0.3,3.6
	c0,0.9,0,1.8-0.2,2.7c-0.1,0.4-0.2,0.8-0.1,1.2c0.3,1.3,0.2,2.6,0.2,4c0,1.5-0.1,3,0.3,4.5c0.1,0.4,0,0.8,0,1.2
	c-0.2,2.7-0.4,5.4-0.6,8.1c-0.1,0.8,0,1.6,0.4,2.3c0.1,0.2,0.2,0.5,0.4,0.8c-0.1,0.5,0,1-0.2,1.5c-0.4,1.3-0.4,2.6-0.1,3.9
	c0.1,0.6,0.1,1.1,0,1.7c-0.1,0.9-0.3,1.8-0.3,2.7c0,2,0.1,4,0.2,6c0.1,1.2,0,2.4-0.5,3.6c-0.1,0.2-0.1,0.4-0.1,0.6
	c0.2,0.5,0.6,0.7,1,0.7c0.7,0,1.5,0.1,2.2-0.1c1-0.2,1.9-0.4,2.9,0.1C130.6,309.7,130.9,309.6,131.3,309.6z"/>
<path d="M375,356.6c0.5,0,1.1-0.1,1.6,0c1.4,0.2,2.7,0.1,4.1-0.2c0.9-0.2,1.8-0.1,2.7-0.2c1.2,0,2.4,0.1,3.6,0
	c1.5-0.1,3,0.2,4.4,0.4c0.5,0.1,1,0.3,1.4,0.6c1.2,0.8,2.1,1.7,2.6,3.2c0.1,1.5-0.4,2.9-1.6,4.1c0.3,0.2,0.6,0.3,0.8,0.4
	c0.6,0.3,1.2,0.5,1.7,0.7c1.1,0.5,2,1.4,2.5,2.6c0.1,0.3,0.3,0.6,0.4,0.8c0,0.8,0,1.5,0,2.1c-0.3,0.3-0.6,0.6-0.8,0.9
	c-0.6,1.1-1.6,1.6-2.7,2c-1.2,0.4-2.5,0.7-3.9,0.7c-2.9,0-5.9,0-8.8,0c-0.6,0-1.3,0.1-1.9,0.1c-1.7,0-3.3,0-5-0.1
	c-0.6,0-1.1-0.2-1.7-0.4c-0.2-0.3-0.5-0.7-0.6-1c-0.1-0.9-0.4-1.8-0.2-2.7c0.1-0.8,0-1.7,0-2.6c0-0.5-0.1-0.9-0.1-1.4
	c0.2-1.5,0-3,0-4.5c0-1.4,0.2-2.7,0.3-4.1C374,357.6,374.3,357.1,375,356.6z M378.4,371.4c0.3,0,0.6,0.1,0.9,0.1c0.7,0,1.4,0,2.1,0
	c1.7,0,3.3,0,5-0.1c1.4-0.1,2.7-0.2,4.1-0.2c1.2,0,2.4-0.3,3.3-0.9c0.4-0.5,0.5-0.9,0.4-1.4s-0.4-0.8-0.8-1.1
	c-0.5-0.2-0.9-0.4-1.4-0.6c-1-0.4-2-0.4-3.1-0.4c-1.7,0-3.4-0.1-5.2-0.1c-1.3,0-2.5,0.1-3.8,0.2c-0.6,0-1.3,0.1-1.8,0.6
	C378.1,368.8,377.9,370.1,378.4,371.4z M390.7,360.7c-0.9-0.1-1.6-0.3-2.3-0.3c-1.4-0.1-2.8-0.1-4.1-0.1c-1,0-1.9-0.1-2.9-0.1
	c-1.1,0-2.2,0-3.1,0.6c-0.2,1-0.2,1.9,0.5,2.8c1.2,0.5,2.5,0.5,3.8,0.2c0.6-0.1,1.2-0.2,1.9,0c1.3,0.3,2.5,0.2,3.8,0.1
	c0.9-0.1,1.8-0.2,2.6-0.6C391,362.3,390.8,361.6,390.7,360.7z"/>
<path d="M234.1,370.2c0.1-0.4,0.3-0.8,0.5-1.2c-0.2-0.2-0.3-0.3-0.4-0.4c-1.1-0.5-2.3-0.8-3.5-0.6c-0.3,0-0.6,0.1-0.9,0
	c-0.8-0.1-1.6,0-2.3,0.3c-0.8-0.2-1.5-0.3-2.2-0.4c-1.1-0.7-0.8-1.7-0.9-2.7c0.2-0.3,0.4-0.5,0.5-0.8c0.2,0,0.3-0.1,0.4-0.1
	c0.3,0.1,0.6,0.2,1,0.1c0.3-0.1,0.6-0.1,0.8,0c1.7,0.5,3.4,0.1,5.2,0.3c0.6,0.1,1.3,0,1.9,0c0.9,0,1.7-0.1,2.6,0.2
	c0.4,0.1,0.9,0.1,1.4,0.1c0.3,0.2,0.6,0.4,0.9,0.6c0.8,2,0.8,2.3,0.2,4.9c-1.3,2.2-3.4,3.3-5.9,4c-1.2,0.3-2.5,0.6-3.7,0.6
	c-0.9,0-1.8,0.3-2.7,0.5c-1.2,0.2-2.4,0.1-3.6-0.1c-1-0.1-1.9-0.4-2.9-0.5c-0.8-0.1-1.6-0.4-2.3-0.7c-0.5-0.2-1-0.3-1.7-0.6
	c-0.3-0.2-0.8-0.5-1.3-0.9c-1.1-1-2-2.3-2.4-3.7c-0.5-2-1-4-0.7-6c0.5-0.9,0.9-1.6,1.4-2.6c0.5-0.5,1.3-1.1,2-1.7
	c0.3-0.2,0.6-0.4,0.9-0.5c1.3-0.5,2.6-1,3.8-1.5c0.2-0.1,0.4-0.2,0.7-0.2c2.9-0.3,5.7-0.5,8.6-0.4c0.3,0,0.7,0.1,1,0.1
	c1.1,0.2,2.3,0.4,3.4,0.5c1.7,0.2,3.1,0.8,4.2,2c0.1,0.9,0.1,0.9-0.4,1.8c-0.6,0.3-1.2,0.2-1.8,0.2c-0.5,0-1-0.1-1.6,0
	c-1.6,0.1-3.2-0.2-4.8-0.5c-0.3-0.1-0.6-0.1-0.8-0.2c-1.6-0.4-3.2-0.2-4.8,0.1c-0.9,0.1-1.7,0.2-2.6,0.2c-1.7-0.1-3,0.6-3.9,2.1
	c-0.4,0.6-0.6,1.2-1,1.9c0,1.5,0.4,2.9,0.9,4.4c0.2,0.6,0.6,1.1,1.2,1.4c0.7,0.4,1.4,0.8,2.2,0.9c1.2,0.2,2.5,0.6,3.7,0.8
	c1.1,0.1,2.2,0,3.3-0.1c0.9-0.1,1.8-0.3,2.7-0.1c0.5,0.1,1,0,1.5-0.3C232.7,370.9,233.3,370.6,234.1,370.2z"/>
<path d="M83.4,372c0.5-0.4,0.8-0.8,1.2-1.2c1.1-0.1,2.2-0.2,3.5-0.3c0.2,0.1,0.6,0.2,1,0.3c0.3,0.1,0.7,0.3,1,0.3
	c1.1,0,2,0.4,3.1,0.5c2.9,0.3,5.9,0.4,8.6-1.2c0.3-0.2,0.6-0.4,0.8-0.6c0.1-0.6-0.1-1.1-0.5-1.5c-0.1-0.1-0.3-0.2-0.4-0.2
	c-1.8-0.4-3.6-0.4-5.4-0.8c-0.1,0-0.2,0-0.3,0c-1.5,0.4-3.1,0-4.6,0c-1.7,0-3.4-0.5-5.1-0.9c-0.4-0.1-0.7-0.3-1.1-0.6
	c-0.5-0.4-1-0.8-1.6-1.3c-0.7-1.3-0.4-2.9-0.3-4.4c0.5-0.6,0.8-1.3,1.4-1.7c1-0.9,2-1.9,3.5-2c0.9,0,1.8-0.2,2.7-0.3
	c0.2,0,0.5,0,0.7,0c1.9-0.5,3.9-0.2,5.9-0.2c0.9,0,1.7,0.1,2.6,0.3c1.7,0.4,3.3,0.9,5.1,1.4c0,0.5,0.1,0.9,0.1,1.3
	c-0.5,0.6-0.8,1.2-1.6,1.6c-0.8,0.1-1.7,0.1-2.6-0.1c-1-0.2-2-0.3-3.1-0.4c-0.5-0.1-1-0.2-1.5-0.3c-0.2,0-0.3-0.1-0.5-0.1
	c-2.6-0.1-5.2,0-7.7,0.9c-0.2,0.3-0.4,0.7-0.6,1.1c0.3,0.4,0.5,0.7,0.7,1c0.3,0.1,0.4,0.2,0.5,0.2c1,0.1,1.9,0.2,2.9,0.5
	c0.9,0.2,1.8,0.3,2.7,0.3c0.2,0,0.5,0,0.7,0c1.2,0.5,2.5,0.4,3.8,0.3c1.5-0.1,2.8,0.3,4.2,0.6c1.2,0.3,2.1,1,3,1.6
	c0.2,0.1,0.4,0.3,0.5,0.5c0.6,1,0.6,2.1,0.7,3.2c0,0.8-0.4,1.4-0.8,2c-1.2,1.6-2.8,2.5-4.8,2.8c-0.7,0.1-1.5,0.3-2.2,0.5
	c-2.3,0.8-4.5,0.6-6.8,0.4c-0.6-0.1-1.2-0.2-1.9-0.2c-0.9-0.1-1.8-0.2-2.7-0.6c-0.4-0.2-0.8-0.2-1.2-0.3c-0.9-0.2-1.8-0.4-2.6-0.6
	c-0.2-0.1-0.4-0.2-0.6-0.4C83.5,372.9,83.4,372.5,83.4,372z"/>
<path d="M174.8,358.1c0.4-0.4,0.7-0.7,1.2-1.1c1.2-0.1,2.4-0.1,3.6,0.1c0.5,0.1,1.1,0.2,1.4,0.5c1.3,1,2.7,1.7,3.9,2.9
	c0.1,0.1,0.3,0.2,0.4,0.4c1.1,1.4,2.5,2.4,4,3.3c0.5,1.1,1.5,1.8,2.6,2.5c0.5,0.9,1.1,1.7,2.2,2c0.7,0.2,1,0.7,1.3,1.3
	c0.2,0.3,0.3,0.7,0.7,0.7c0.3-0.5,0.2-1.1,0.2-1.7c0-1.7,0-3.5-0.1-5.2c0-0.8-0.3-1.6-0.3-2.4s0.3-1.6,0.3-2.4c0-0.7,0-1.4,0-1.9
	c0.3-0.6,0.7-0.9,1.3-0.8c0.6,0,1.3,0.1,1.9,0.2c0.5,0,0.9,0.3,1.2,0.7c0.2,0.6,0.1,1.2-0.1,1.8c-0.3,1.5-0.3,3-0.2,4.5
	c0.1,0.7,0.3,1.3,0.6,2.2c-0.3,1.1-0.6,2.5,0.1,3.8c-0.1,0.9-0.2,1.7-0.4,2.5c-0.1,0.6-0.2,1.1,0,1.7c0.2,0.5-0.1,1-0.4,1.4
	c-2,0.5-4,0.3-6.1,0.1c-0.3-0.3-0.6-0.7-1-1.2c-0.2-0.1-0.5-0.2-0.8-0.4c0-0.2-0.1-0.3-0.1-0.5c-0.1-0.7-0.5-1.2-1.1-1.4
	c-0.8-0.3-1.4-1-1.9-1.7c-0.8-1-1.7-2.1-2.9-2.7c-0.3-0.2-0.6-0.4-0.8-0.7c-0.4-0.9-1.3-1.5-1.8-2.3c-0.3-0.4-0.7-0.8-1.1-1
	c-0.6-0.4-1.3-0.8-1.8-1.3c-0.4-0.3-0.9-0.5-1.5-0.3c-0.4,0.9-0.4,1.9-0.2,2.8c0.4,1.9,0.4,2.5-0.1,4.3c0.1,0.3,0.1,0.7,0.2,1.1
	c-0.3,1.9-0.3,1.9,0.3,4.8c-0.4,0.5-1,0.6-1.7,0.6c-0.8,0-1.6,0-2.8-0.1c-0.2,0-0.6-0.3-0.8-1c0.1-0.5,0.3-1,0.5-1.6
	c-0.2-0.4-0.3-0.9-0.5-1.3c0.3-0.7,0.3-1.5,0.3-2.4c-0.1-1-0.1-2.1,0.2-3.1c0.2-0.6,0.1-1.3,0.1-1.9c0-1.1,0-2.2,0-3.3
	C174.7,359.7,174.7,358.9,174.8,358.1z"/>
<path d="M118.7,356.9c1.6-0.6,3-0.2,4.4-0.4c0.1,0.4,0.2,0.7,0.2,0.9c-0.1,1.8-0.3,3.6-0.4,5.3c0,0.3,0.1,0.5,0.1,0.9
	c0.9,0.2,1.8,0.1,2.6,0.1c2.1-0.2,4.2-0.4,6.4,0c0.4,0.1,0.8,0.1,1.2,0c1.8-0.3,3.7-0.3,5.5,0c0.3,0.1,0.7,0,1,0
	c0.6-0.8,0.8-1.6,0.7-2.5c-0.1-0.7-0.2-1.4-0.3-2c-0.2-0.8-0.1-1.6,0.3-2.4c1.3-0.2,2.7-0.2,4-0.2c0.6,0.8,0.7,1.6,0.6,2.5
	c-0.1,1-0.3,1.9,0,2.9c0.1,0.2,0,0.5,0,0.7c-0.1,0.6-0.2,1.3-0.2,1.9s0.2,1.1,0.3,1.8c-0.5,1.5-0.4,3.2-0.3,4.9
	c0.1,1.3-0.3,2.5-0.5,3.8c0,0.1-0.2,0.3-0.3,0.4c-1,0.2-2-0.3-3-0.3c-0.6-1.3-0.8-2.6-0.4-3.7c-0.1-1.3-0.2-2.4-0.3-3.5
	c-0.5-0.5-1-0.4-1.4-0.4c-2.5,0-5,0-7.4,0c-0.7,0-1.5-0.1-2.2-0.1c-0.1,0-0.1,0-0.2,0c-1.6,0.4-3.2,0-4.8,0.2
	c-0.3,0-0.6,0.2-0.9,0.3c-0.3,0.7-0.2,1.4,0,2.1s0.2,1.5,0,2.2c-0.3,0.8,0.1,1.6,0.1,2.4c-1.3,0.4-2.7,0.6-4.1,0.5
	c-0.1-0.3-0.3-0.5-0.3-0.8c0-0.9,0-1.7,0-2.6c0-0.6,0.1-1.1-0.2-1.7c-0.1-0.1-0.1-0.4-0.1-0.5c0.2-1,0-1.9,0-2.9
	c0-0.5,0-1.1,0.1-1.5c0.3-1.1,0.3-2.3,0.2-3.4C118.5,360.2,118.7,358.6,118.7,356.9z"/>
<path d="M358.3,374c-1.7,0.7-3.4,1.1-5.2,1.4c-0.5,0.1-0.9,0.2-1.4,0.2c-0.9,0-1.8-0.3-2.7-0.2c-0.9,0.1-1.8,0-2.7-0.1
	c-1.8,0-3.5-0.7-5.2-1.2s-2.7-1.7-3.8-2.8c-0.1-0.1-0.2-0.3-0.3-0.4c-0.3-1.1-0.9-2.1-0.6-3.3c0-0.2,0-0.4-0.1-0.7
	c-0.1-0.6-0.2-1.1-0.2-1.7c0-2,0.1-4,0.1-6.2c0.1-0.2,0.3-0.6,0.6-1.1c0.6-0.2,1.2-0.4,1.8-0.6c0.3,0.1,0.5,0.3,0.7,0.4
	s0.5,0.3,0.8,0.5c0.2,1.2,0.7,2.3,0.2,3.5c0,0.1,0,0.2,0,0.3c0.4,1.9,0.2,3.8,0.3,5.7c0.1,1.5,1.1,2.8,2.6,3
	c0.9,0.1,1.7,0.4,2.5,0.6c0.7,0.2,1.5,0.3,2.2,0.4c0.3-0.1,0.6-0.3,0.9-0.4c2.4,0.5,4.6-0.3,6.7-0.9c1.7-1.3,2.3-2.9,2.3-4.8
	c0-1.7,0-3.3,0-5c0-1,0.1-2,0.4-2.9c0.1-0.3,0.3-0.5,0.5-0.7c1.2-0.2,2.3-0.1,3.5,0c0.1,0.4,0.2,0.7,0.2,1.1
	c-0.1,1.6-0.1,3.2-0.3,4.8c-0.3,1.8-0.6,3.6-0.1,5.5c0.1,0.3,0,0.7,0,0.9c0,0.2-0.1,0.2-0.1,0.3c-0.4,0.8-0.7,1.6-1.2,2.3
	c-0.5,0.6-1.2,1-1.8,1.5C358.7,373.5,358.5,373.8,358.3,374z"/>
<path d="M291.5,358.6c-0.5,1-1,1.7-1.6,2.3c-0.8,0.3-1.6,0.2-2.2-0.2c-0.9-0.5-1.9-0.7-3-0.6c-0.9,0.1-1.8,0-2.7,0.2
	c-0.5,0.1-1,0-1.5,0c-0.3,0-0.6-0.1-0.9-0.1s-0.6,0-0.9,0.1c-1.2,0.4-2.5,0.2-3.7,0.7c-1.5,0.7-2.6,1.8-2.8,3.4
	c-0.2,1.4-0.2,2.7,0,4.2c0.2,0.2,0.5,0.4,0.8,0.7c1.4,1.3,3,2.1,4.9,2.2c0.7,0.1,1.4,0.2,2.3,0.3c0.3-0.1,0.7-0.3,1.3-0.5
	c0.7,0.2,1.5,0.4,2.1,0.6c1.2-0.1,2.2-0.5,3.2-1c0.4-0.2,0.9-0.4,1.3-0.4c1,0.1,2-0.1,3.1-0.2c0.2,0,0.3,0,0.5,0.1
	c0.6,0.9,0.6,0.9,0.6,2.3c-0.3,0.7-0.9,1.2-1.4,1.4c-1.1,0.2-2,0.5-2.9,0.6c-1,0.1-1.9,0.1-2.9,0.1c-0.9,0-1.7,0-2.5,0.2
	c-1.2,0.3-2.5,0.3-3.8,0.4c-0.4,0-0.8-0.1-1.2-0.2c-1-0.4-2-0.6-3-0.4c-0.6-0.2-1.1-0.5-1.6-0.7c-1-0.3-1.9-0.8-2.5-1.7
	c-0.3-0.4-0.7-0.6-1.1-0.9s-0.8-0.7-1.1-0.9c-0.3-1.3-0.7-2.5-0.8-3.7c-0.2-1.8,0-3.7,1-5.3c0.6-0.9,1.1-1.7,1.5-2.4
	c1.4-1.1,2.9-1.4,4.2-2.1c0.2-0.1,0.6-0.1,0.8-0.2c0.7-0.1,1.4-0.1,2-0.3c1.2-0.3,2.4-0.3,3.6-0.1c0.8,0.2,1.7,0.1,2.6,0.1
	s1.8,0,2.7,0.3c0.6,0.2,1.2,0.1,1.9,0.1C289.3,356.9,290.6,357.2,291.5,358.6z"/>
<path d="M37.3,367.6c-0.9,0.3-1.3,1-1.3,1.8c0,0.9,0.1,1.8,0.1,3.1c-0.1,0.3-0.3,0.9-0.5,1.4c-0.4,0.5-1,0.7-1.5,0.9
	c-0.8-0.2-1.6-0.4-2.4-0.8c-0.3-1.8-0.3-6.8,0-8.4c-0.2-1.1-0.4-2.3-0.6-3.6c0.1-0.3,0.3-0.7,0.6-1.2c-0.5-1.2-0.4-2.5-0.1-3.8
	c1.2-1.1,2.5-0.8,3.8-0.5c0.9-0.2,1.7-0.2,2.7,0c1.4,0.3,2.8,0.1,4.2-0.1c0.4,0.1,0.8,0.1,1.2,0.2c1.2,0.6,2.5,0.4,3.7,0.2
	c0.6-0.1,1.1-0.1,1.7,0c0.6,0.1,1.3,0.1,1.9,0.1c1.2,0,2.4,0.1,3.6,0.1c0.5,1.1,0.1,2.2,0.3,3.3c-1,0.7-2,0.4-2.9,0.5
	c-1,0.1-1.8-0.3-2.7-0.7c-1.8,0.2-3.6,0.4-5.4,0.6c-0.9,0.1-1.8,0.1-2.7,0c-1.3-0.2-2.7-0.2-4.1-0.2c-0.1,0-0.2,0.1-0.4,0.1
	c-0.1,0.2-0.3,0.5-0.3,0.8c0.1,0.7,0.2,1.5,0.3,2.2c0.3,0.4,0.7,0.6,1.2,0.6c1.8,0,3.6,0.2,5.3-0.1c1-0.2,2.1,0,3.1,0.4
	c0.5,0.9,0.9,1.8,0.5,3c-0.2,0.1-0.4,0.3-0.6,0.5c-1.3-0.2-2.6-0.3-3.9,0.1c-0.3,0.1-0.7,0.1-1,0C39.7,367.4,38.5,367.7,37.3,367.6z
	"/>
<path d="M259.8,129c0.1,0.2,0.2,0.3,0.3,0.4c-0.1,0.1-0.2,0.2-0.3,0.2c-1.5,0.2-3,0.3-4.5,0.4c-1.7,0.2-3.4,0.5-5.1,0.7
	c-1.9,0.3-3.9,0.6-5.8,0.9c-1.1,0.2-2.1,0.4-3.2,0.6c-1,0.2-1.9,0.3-2.9,0.5c-2.1,0.5-4.1,0.9-6.2,1.5c-0.7,0.2-1.5,0.3-2.2,0.4
	c-0.2,0-0.3,0-0.5,0.1c-2.2,0.6-4.3,1.2-6.5,1.8c-2.1,0.6-4.2,1.3-6.3,1.9c-1.8,0.5-3.6,1-5.4,1.7c-0.3,0.1-0.5,0.2-0.8,0.3
	c-1.5,0.2-2.9,0.8-4.3,1.3c-1.6,0.6-3.2,1-4.8,1.5s-3.1,1.1-4.7,1.7c-2,0.7-3.9,1.3-5.9,2c-1.3,0.4-2.6,0.9-3.9,1.3
	c-1.6,0.5-3.2,1-4.7,1.6c-1.7,0.6-3.6,0.9-5.2,1.7c-0.3,0.1-0.5,0.2-0.8,0.3c-0.7,0-1.2,0.4-1.8,0.5c-2.2,0.6-4.2,1.5-6.4,1.9
	c-0.2,0-0.5,0.1-0.7,0.2c-2.5,0.8-5,1.3-7.5,1.9c-2.1,0.5-4.3,0.9-6.4,1.3c-0.7,0.1-1.5,0.2-2.2,0.3c-3.4,0.5-6.7,0.9-10.1,0.9
	c-1.3,0-2.5,0.2-3.8,0.2c-1.2,0.1-2.3,0-3.4-0.2c-0.3-0.1-0.7-0.1-1-0.1c-1.6,0.1-3.1-0.2-4.6-0.3c-2.9-0.2-5.7-0.9-8.3-2.2
	c-1.6-0.7-2.7-2-3.3-3.6c-0.4-1-0.5-2.2,0-3.2c0.9-2,1.8-4,3.1-5.7c1-1.3,2-2.5,3-3.9c0.3,0.3,0.4,0.5,0.6,0.7
	c-0.6,1.2-1.5,2.1-2.2,3.1c-0.9,1.2-1.7,2.5-2.5,3.7c-0.8,1.3-1,2.7-1,4.1c0,0.3,0,0.7,0.2,1c0.7,1.4,1.6,2.5,3.1,3.1
	c2.3,1,4.7,1.6,7.2,1.8c1.7,0.5,3.4,0.1,5.1,0.6c0.2,0,0.3,0,0.5,0c2.5,0,5,0,7.4,0c0.6,0,1.3-0.1,1.9-0.2c1.2-0.1,2.4-0.2,3.6-0.3
	c0.5,0,0.9,0,1.4-0.1c2.5-0.4,5-0.8,7.5-1.3c3.5-0.7,7-1.4,10.4-2.5c1.4-0.5,2.9-0.8,4.3-1.2c3.4-0.9,6.7-2,10-3.1
	c1.8-0.6,3.6-1.2,5.4-1.8c0.8-0.3,1.5-0.5,2.3-0.7c0.8-0.3,1.5-0.6,2.3-0.8c1.4-0.4,2.7-0.9,4.1-1.5c2.4-0.9,4.8-1.6,7.2-2.4
	c2.2-0.8,4.5-1.5,6.7-2.3c3.7-1.2,7.3-2.4,11-3.5c2.5-0.7,5.1-1.4,7.6-2.1c2.9-0.8,5.9-1.4,8.8-2.3c0.6-0.2,1.1-0.2,1.7-0.3
	c1.3-0.3,2.6-0.5,3.9-0.8c0.3-0.1,0.6-0.2,0.8-0.2c2.3-0.2,4.5-0.7,6.8-1c2-0.3,4.1-0.8,6.2-0.8c0.4,0,0.8-0.1,1.2-0.2
	C257.3,129,258.5,129,259.8,129z"/>
<path d="M149.5,188.8c-0.2-0.6-0.4-1.1-0.6-1.6c0.2-1.3,1.2-1.7,2.3-2.2c0.7-0.9,0.8-2.1,0.9-3.4c0.3-0.3,0.8-0.7,1.2-1
	c0.8-0.2,1.4-0.6,2.3-0.3c0,0.2,0.1,0.4,0.2,0.6c-1,0.3-2.1,0.3-2.4,1.7c0.1,0.3,0.3,0.7,0.5,1.1c0.5,0.1,0.9,0.3,1.4,0.4
	c0.1,0.2,0.1,0.4,0.2,0.6c-1,0.5-1.8,0-2.8-0.2c-0.2,0.3-0.3,0.5-0.5,0.7c0.2,0.3,0.3,0.6,0.5,1c0.4,0.9,0.3,1.7-0.5,2.3
	c-0.3,0.2-0.6,0.4-0.8,0.5c-0.6,0.7-0.8,1.5-1.1,2.2c-1,2.4-2.1,4.7-3.1,7.1c-0.4,0.9-0.8,1.9-1.2,2.9c-0.2,0.5-0.3,1-0.6,1.4
	c-1.2,2.5-1.9,5.2-2,8c0,0.5-0.1,1-0.2,1.5c0.1,0.8,0.4,1.6,0.9,2.2c0.5,0.8,1.2,1.2,2.2,1.2c1.4,0,2.6-0.5,3.3-1.8
	c0.2-0.4,0.4-0.7,0.6-1.1c-0.2-0.4-0.5-0.9-0.7-1.4c1.6-1.6,2.5-3.7,3.9-5.5c0.2,0,0.3,0,0.5,0c0.3,0.5,0.2,0.9,0.1,1.4
	c-0.1,0.6-0.3,1.1-0.3,1.7c0,1.4-0.4,2.6-1,3.8c-0.7,1.4-1.4,2.9-2.6,4c-0.2,0.2-0.4,0.4-0.7,0.6c-0.7,0.1-1.4,0.2-2.1,0.3
	c-1.4-0.2-2.6-0.6-3.7-1.4c-1.1-0.8-1.3-2.1-1.7-3.4c-0.8,0.5-1,1.4-1.2,2.1c-0.3,0.7-0.4,1.6-1,2.3c-0.2,0-0.6,0.1-0.9,0.1
	c-0.1-0.2-0.3-0.4-0.3-0.6c0-0.2,0-0.3,0-0.4c0.4-1,0.8-2,1.2-3.1c0.1-0.3,0.2-0.7-0.2-1c-0.5,0.2-1,0.4-1.6,0.6
	c-0.7,0.3-1.4,0.4-2.2,0.1c-0.3-0.1-0.5-0.2-0.8-0.3c-2-0.5-3.3-2-3.5-4c-0.1-0.9,0.1-1.7,0.3-2.5c0.2-0.7,0.4-1.3,0.6-2
	c0.1-0.4,0.3-0.8,0.5-1.1c1-1.6,2-3.2,3.2-4.7c0.1-0.1,0.2-0.1,0.3-0.1c0,0.2,0.1,0.3,0,0.5c-0.4,2-0.7,4-1.1,6.1
	c-0.5,0.1-0.9,0.1-1.5,0.2c-0.2,0.4-0.4,0.8-0.6,1.2c-0.2,0.4-0.2,0.9-0.4,1.4c0.1,0.5,0.2,1,0.4,1.7c0.5,0.4,1,0.9,1.5,1.3
	c1.4,0.9,3,0.8,4.3-0.3c1.2-1.1,2.3-2.2,2.9-3.8c0.2-0.6,0.6-1.1,0.9-1.6c0.3-0.4,0.6-0.9,0.7-1.4c0.3-1.3,0.9-2.3,1.4-3.5
	c1.4-3.3,2.7-6.6,4.1-9.9C149.2,189.8,149.3,189.3,149.5,188.8z M152,187.3c-0.2-0.7-0.6-1.1-1.5-1c-0.2,0.3-0.4,0.6-0.5,0.9
	c0.1,0.6,0.4,0.9,0.9,1.1C151.3,188.2,151.8,188,152,187.3z"/>
<path d="M224.8,232c-0.4,0.3-0.6,0.5-0.9,0.7c-0.4,0.3-0.7,0.6-1.1,0.8c-1.5,0.8-3,0.7-4.5,0c-1.4-0.7-2.4-1.7-2.7-3.4
	c-0.3-2.2,0-4.3,0.6-6.5c0.1-0.2,0.2-0.4,0.3-0.6c0.4-0.9,0.8-1.8,1.2-2.7c0.2-0.3,0.4-0.7,0.7-1.1c0.1,0.3,0.3,0.4,0.3,0.5
	c0,1-0.1,2.1,0,3.1c0.2,1,0.2,1.9,0.2,2.9c0,0.2,0,0.5,0,0.7c-0.3,0.2-0.6,0.5-1,0.8c-0.4,0.6-0.5,1.3-0.3,2.1
	c0.3,1,0.8,1.9,1.8,2.6c0.3,0.1,0.6,0.1,0.9,0.2c1.6,0.2,2.8-0.6,3.6-1.9c0.5-0.9,1.2-1.8,1.6-2.8c0.6-1.4,1.2-2.9,1.2-4.4
	c0-0.2,0.1-0.5,0.1-0.7c0.6-2,0.9-4,1-6.1c0-0.2,0-0.5,0.1-0.7c0.6-2.2,0.6-4.6,1.2-6.8c0.2-0.8,0.1-1.5-0.1-2.2
	c-0.4-1.2-0.4-1.2-0.2-2.4c0.4-0.3,0.8-0.6,1.2-0.9c0.4-0.7,0.7-1.3,0.5-2.2c-0.5-0.6-1.3-1.1-1.5-2c0.2-0.5,0.2-0.5,0.7-0.9
	c0.4,0.5,0.8,1,1.3,1.6c0.4-0.2,0.8-0.3,1.1-0.5c0.1-0.4,0.3-0.8,0.4-1.2c0.2,0,0.4,0,0.6-0.1c0.5,1.5-0.4,2.3-1.4,3
	c-0.1,0.7-0.3,1.3-0.3,1.7c0,1,0.7,1.3,1.1,2c0.4,1.4-0.7,2.1-1.5,2.9c-0.3,1.5-0.8,3.1-0.9,4.6c-0.1,2.2-0.6,4.3-1.1,6.4
	c0,0.1-0.1,0.2-0.1,0.3c-0.2,1.5-0.3,3-0.5,4.5c-0.1,1.2-0.2,2.4-0.3,3.6c-0.1,0.9-0.1,1.8,0.3,2.7c0.2,0.5,0.3,1,0.4,1.5
	c0.6,2.3,2.7,2.8,4.4,2.7c0.6,0,1.2-0.4,1.6-0.9c0.3-0.3,0.5-0.6,0.7-1c0.2-0.7,0.3-1.4,0.5-2.2c-0.4-0.3-0.7-0.6-1.1-0.9
	c0-0.3,0-0.6,0.1-0.8c0.8-1.8,1.5-3.6,2.3-5.4c0.1,0.1,0.3,0.1,0.3,0.2c0.1,1.3,0.3,2.6,0.3,3.9c0,2.1-0.5,4.1-1.2,6.1
	c-0.6,1.6-1.8,2.4-3.3,2.7c-1.8,0.4-3.3-0.2-4.7-1.2c-0.5-0.3-0.7-1-1.2-1.5c-0.1,0-0.3,0-0.5-0.1c-0.8,1.3-0.4,3-1.1,4.3
	c-0.1,0-0.2,0.2-0.3,0.2c-0.3,0-0.5,0-0.8-0.1c-0.3-0.8,0-1.4,0-2.1c0.1-0.8,0.3-1.6,0.4-2.4C225,232.5,224.9,232.3,224.8,232z
	 M230.7,206.2c0.5-0.4,0.7-0.9,0.4-1.5c-0.3-0.5-0.7-0.7-1.3-0.5c-0.4,0.3-0.7,0.6-0.6,1.2c0.2,0.2,0.4,0.5,0.7,0.8
	C230.2,206.2,230.5,206.2,230.7,206.2z"/>
<path d="M308.9,371c0.6,0.3,1,0.1,1.5,0c0.7-0.2,1.5-0.2,2.2-0.1c0.2,0,0.3,0.1,0.5,0.1c1.5-0.2,3,0.2,4.4,0.2c1.7,0,3.5,0,5.2,0
	c1,0,1.9,0.1,2.9,0.3c0.7,1.1,0.8,2.2,0.2,3.4c-2.1,0.1-4-0.3-5.7,0.3c-0.9-0.1-1.6-0.3-2.3-0.3c-2.9,0-5.9,0-8.8,0.1
	c-0.8,0-1.6,0.1-2.4,0.2c-0.7,0.1-1.5,0.1-2.2-0.4c-0.3-0.8-0.1-1.6-0.2-2.4c0-1.1-0.1-2.3-0.1-3.4c-0.1-1.1-0.2-2.3,0.1-3.4
	c0.1-0.4,0.1-0.9,0.1-1.4c0-1.7-0.1-3.4-0.1-5.2c0-0.6,0.1-1.1,0.2-1.6c0.7-0.9,1.5-0.6,2.3-0.7c0.7,0,1.2,0.2,1.7,0.9
	c0,0.5,0,1.1,0.1,1.6c0.1,2.1,0.2,4.2,0.2,6.4c0,1.1,0,2.2-0.1,3.3C308.5,369.5,308.3,370.3,308.9,371z"/>
<path d="M285.7,184.7c0.7-0.7,1.7-0.7,2.4-1.5c-0.4-0.4-0.8-0.7-1.2-1.1c0.2-0.3,0.5-0.6,0.6-0.9c0.1-0.3,0.2-0.6,0.3-0.9
	c-0.5-0.5-1-0.9-1.4-1.2c0-0.4,0.2-0.5,0.4-0.5c0.8-0.1,1.5,0.3,1.9,0.9c0.3,0.4,0.4,0.8,0.7,1.2c0.2,0.2,0.4,0.4,0.7,0.6
	c0.9-0.9,1.9-1.6,3.2-2c0.3,0,0.8,0,1.2,0c0.7-0.5,1.3-0.9,1.9-1.3c1-0.5,1.8-1.2,2.6-2c0.7-0.7,1.6-1.3,2.4-1.9
	c2.4-1.9,4.4-4,6.2-6.5c0.9-1.2,1.8-2.4,2.6-3.6c0.5-0.8,0.9-1.6,1.3-2.4c0.3-0.6,0.5-1.3,0.8-1.9c0.8-1.7,1.3-3.5,1.5-5.4
	c0.1-0.7,0.3-1.5,0.5-2.6c0-0.6-0.2-1.6-0.1-2.7c0.1-0.8-0.2-1.6-0.5-2.3c-0.2-0.6-0.5-1.3-0.7-2c-0.1-0.4-0.3-0.9-0.6-1.3
	c-0.3-0.6-0.7-1.1-1-1.6c-0.6-0.9-1.3-1.7-2.1-2.5c-1.6-1.6-3.4-3.1-5.5-4.1c-1.9-0.9-3.8-1.7-5.7-2.4c-1.8-0.7-3.7-1.2-5.6-1.7
	c-1.5-0.4-3-0.8-4.6-0.9c-1.3-0.1-2.5-0.3-3.8-0.5c-0.6-0.1-1.3-0.1-1.9-0.1c-0.8,0-1.6-0.2-2.3-0.5c-0.1,0-0.2-0.2-0.4-0.5
	c0.8,0,1.5,0,2.2,0c0.4,0,0.8,0.1,1.2,0.1c1.7,0.1,3.3,0.5,5,0.6c1.1,0,2.2,0.2,3.2,0.5c2.5,0.6,4.9,1.1,7.3,2c2.8,1,5.4,2.2,8,3.6
	c0.8,0.4,1.5,1,2.2,1.7c0.2,0.2,0.5,0.5,0.8,0.7s0.7,0.4,1,0.7c0.6,0.6,1.1,1.3,1.6,2c0.9,1.2,1.7,2.4,2.3,3.9c0.8,2,1.3,4,1.3,6.2
	c0,1.3,0.1,2.5-0.3,3.8c-0.1,0.3-0.1,0.7-0.1,1c-0.1,0.4-0.1,0.8-0.2,1.2c-0.6,1.7-1.1,3.5-1.8,5.2c-0.1,0.2-0.2,0.4-0.4,0.6
	c-0.3,0.4-0.5,0.8-0.7,1.2c-1.1,2.1-2.7,3.9-4.1,5.8c-1,1.3-2.1,2.4-3.3,3.5c-1,1-2,2-3.2,2.9c-1.7,1.2-3.1,2.7-5,3.6
	c-1,0.5-1.6,1.3-2.1,2.2c-1.4,0.8-2.8,1.2-4.3,1.2c-0.8,1.3-1.7,2.4-3.3,3.1c-0.3-0.1-0.6-0.2-0.9-0.3
	C285.7,185.1,285.7,184.9,285.7,184.7z"/>
<path d="M158.5,356.7c0.8-0.1,1.6-0.1,2.3-0.2c1.1,0.5,1.3,1.2,1.1,2c-0.1,0.3-0.2,0.7-0.2,1c0,0.5-0.2,1,0,1.4
	c0.4,1.3,0.2,2.6-0.1,4c0.1,0.5,0.3,1.1,0.5,1.9c-0.5,1.3-0.2,2.8-0.2,4.3c0,1,0,2.1,0,3.1c-0.5,0.4-1,0.8-1.4,1.2
	c-1,0.1-2,0.2-3-0.1c-0.1-0.3-0.2-0.5-0.3-0.8c-0.1-1.7-0.2-3.3,0.2-5c0.1-0.3,0.1-0.7,0.1-1c-0.1-2.4-0.1-4.8,0.2-7.2
	c0.1-0.7-0.1-1.4-0.2-2.1C157.3,358.1,157.4,357.9,158.5,356.7z"/>
<path d="M66.1,357.8c0.5-0.8,1.2-0.9,1.9-1c1.3,0.3,1.9,1.3,2.5,2.3c0,0.8,0.1,1.6,0.1,2.4c0,0.3,0,0.7-0.1,1
	c-0.4,1-0.2,1.9-0.1,2.9c0.3,2.8,0.6,5.5,0.5,8.3c0,0.2,0,0.3-0.1,0.5c-0.3,0.6-0.8,1-1.5,1.1c-1,0.1-2,0-2.7-0.7
	c-0.4-0.7-0.5-1.5-0.4-2.4c0.1-1.7,0-3.5-0.2-5.2c0-0.3,0-0.6,0-0.8c0.2-1.4,0.2-2.7-0.1-4.1c-0.1-0.6-0.1-1.1,0-1.7
	c0.1-0.4,0.1-0.8,0.1-1.2C66.1,358.7,66.1,358.2,66.1,357.8z"/>
<path d="M133.4,127.2c-0.3-0.4-0.5-0.7-0.7-1c0.5-2.8-0.5-4.8-3.2-5.7c-0.9-0.1-1.8-0.3-2.7-0.4c-2.1-0.2-4.1-0.1-6.2,0.4
	c-1.3,0.3-2.6,0.6-3.8,0.9c-0.6,0.2-1.2,0.5-1.8,0.7c-2.5,0.6-4.7,1.7-7,2.8c-1.5,0.7-2.8,1.6-4,2.7c-0.4,0.3-0.8,0.7-1.3,0.7
	c-0.3-0.2-0.3-0.5-0.1-0.7c0.3-0.4,0.6-0.8,1-1.1c0.8-0.6,1.6-1.1,2.5-1.6c2.4-1.4,5-2.6,7.7-3.4c0.3-0.1,0.5-0.2,0.8-0.3
	c2.2-0.9,4.6-1.1,6.8-1.7c1.4,0.1,2.7-0.4,4.1-0.1c1.1,0.2,2.2,0.1,3.3,0.1c1.9,0.1,3.4,1,4.5,2.5c0.6,0.8,0.9,1.7,0.9,2.7
	C134.2,125.5,134.2,126.4,133.4,127.2z"/>
<path class="st1" d="M207.9,88.6c-1.5,2-3.7,2.2-5.9,2.2c-1.3,0-2.5,0.1-3.5,0.7c-0.8,0.1-1.6,0.3-2.3,0.4s-1.5,0.2-2.2,0.2
	c-0.8,0-1.6,0.1-2.3,0.4c-1.5-0.2-3-0.4-4.5-0.1c-1,0.2-1.9,0.3-2.9,0.5c-0.4,0.1-0.8,0.2-1.2,0.2c-0.8-0.2-1.5,0-2.2,0.1
	c-0.1,0-0.2-0.1-0.4-0.1c-0.1-0.1-0.2-0.3-0.2-0.4c-0.1-0.9-0.3-1.7-0.3-2.6c-0.1-1.7-0.2-3.4-0.4-5.2c-0.2-1.9-0.4-3.8-0.6-5.7
	c0-0.2-0.1-0.5-0.1-0.7c0-1.1-0.2-2.2-0.5-3.2c-0.2-0.5-0.3-1-0.1-1.5c0.4-1.3,0.1-2.5-0.2-3.7c-0.1-0.4-0.2-0.9-0.2-1.2
	c0.5-0.9,1.1-1,1.8-1c1.3,0,2.5,0,3.8,0c1.2,0,2.3-0.1,3.4-0.6c0.3-0.1,0.7-0.3,1-0.2c1,0.2,1.9-0.1,2.9-0.3
	c0.6-0.1,1.3-0.2,1.9-0.1c1.4,0.2,2.6-0.1,3.9-0.4c0.6-0.1,1.2-0.3,1.8-0.4c1.3,0.3,2.6,0.3,4,0.2c1.1-0.1,2.1,0.1,3.1,0.7
	c0.7,0.4,1.4,0.7,2.2,1c0.9,0.4,1.7,0.9,2.4,1.6c0.4,0.5,0.9,0.8,1.5,1.3c0.1,0.7,0.4,1.4,0.9,2.1s0.7,1.4,0.6,2.3
	c-0.1,1,0,1.9,0.2,2.9c0.2,1.2,0.5,2.4,0.2,3.6c-0.1,0.8-0.4,1.6-1,2.2c-0.5,0.6-0.9,1.3-1.3,2C210.6,87.3,209.6,88.3,207.9,88.6z
	 M210.9,76.9c-0.2-0.8-0.4-1.6-0.5-2.4c-0.2-0.8-0.5-1.4-1-2c-1.1-1.2-2.4-2.3-4-3c-0.8-0.4-1.7-0.6-2.7-0.6c-1.5,0-3,0-4.5,0
	c-0.5,0-0.9,0-1.4,0.1c-2,0.6-4.1,0.3-6.2,0.6c-1.1,0.2-2.3,0.2-3.4,0.4c-1.7,0.4-3.4,0.5-5.1,0.3c-0.5,0-1-0.2-1.6,0.2
	c-0.1,0.2-0.3,0.5-0.2,0.7c0,0.6,0.1,1.3,0.3,1.9c0.8,2,0.9,4,1,6.1c0.1,1.5,0.2,3,0.3,4.5c0,1.1,0.3,2.3,0.2,3.4
	c-0.1,0.8,0.2,1.6,0.3,2.4c0.3,0.4,0.4,1,1.1,1c0.3-0.2,0.6-0.4,0.7-0.5c1,0,1.9,0,2.7,0c1,0,1.9-0.2,2.9-0.2c1.2-0.1,2.3,0,3.5-0.1
	c0.9,0,1.7-0.2,2.5-0.6c0.4-0.2,0.8-0.4,1.2-0.5c1.5,0.5,3,0.2,4.5,0.1c0.3,0,0.6-0.1,0.8-0.3c1.7-1,3.6-1.5,5.4-1.8
	c0.9-0.6,1.4-1.3,2-2.1c0.4-0.5,1.3-3.8,1.3-4.4c0-0.7-0.2-1.4-0.5-2c0-0.1,0-0.2,0-0.3C210.6,77.4,210.7,77.2,210.9,76.9z"/>
<path class="st2" d="M106.7,112.6c-0.2-1.4-1.1-2-2.1-2.8c0-0.6,0-1.3,0-1.8c-0.5-0.9-1-1.6-1.7-2.2c-0.8-0.7-1.4-1.5-1.9-2.4
	c-0.4-0.6-0.8-1.2-1.4-2.1c0-0.1-0.2-0.6-0.3-1c-0.4-0.4-0.8-0.8-1.2-1.2c-0.7-0.7-1.2-1.5-1.4-2.5c-0.3-1.5-0.6-3-0.4-4.6
	c0.6-0.8,1.3-1.3,2.1-1.5c0.8-0.2,1.5-0.7,2-1.2c0.8-0.9,2-1.1,3-1.5c0.4-0.1,0.9-0.1,1.3,0.1c0.7,0.3,1.5,0.7,2.2,1
	c0.8,1.6,1.7,3.3,3.3,4.5c0.1,0.5,0.2,1.1,0.4,1.8c0.6,0.5,1,1.2,1.5,2c0.8,1.5,1.5,3,2.6,4.2c0.4,0.4,0.6,0.9,1.1,1.7
	c-0.1-0.1,0,0.1,0.2,0.1c0.7,0.4,1.1,1,1.2,1.8c0.2,0.9,0.6,1.6,1.2,2.2c1,1.1,1.9,2.1,2.9,3.2c0.5,0.5,0.6,0.8,0.9,2.1
	c0.1,0.1,0.2,0.3,0.4,0.4c0.1,0.1,0.3,0.2,0.4,0.4c0.4,1.2,1,2.2,2,3c0.4,0.3,0.7,0.7,0.5,1.4c-1,0.1-2,0.1-3.1,0
	c-0.2-0.3-0.4-0.6-0.5-0.9c-0.3-0.8-0.6-1.5-1.1-2.1c-0.3-0.4-0.6-0.8-0.7-1.2c-0.3-1.2-1.1-2-2.1-2.7c-0.1-1.1-0.9-1.8-1.6-2.6
	c-0.6-0.7-1.3-1.5-1.6-2.4c-0.2-0.5-0.6-1-0.9-1.5c-1-1.5-2.1-3-2.8-4.7c-0.1-0.3-0.2-0.6-0.5-0.7c-0.8-0.6-1.3-1.5-1.9-2.2
	c-0.8-0.9-1.5-1.9-1.9-3c-0.4-1-1-1.9-1.6-2.9c-0.1-0.2-0.3-0.3-0.5-0.4c-0.2,0-0.4,0-0.5,0.1c-1.3,0.8-2.8,1.3-4.2,1.9
	c-0.6,0.2-1.1,0.6-1.6,0.9c-0.2,0.1-0.3,0.4-0.5,0.6c0.1,1,0.9,1.4,1.3,2.2c0.1,0.3,0.1,0.6,0.2,1c0.1,0.1,0.3,0.3,0.5,0.4
	c0.7,0.4,1.2,1,1.6,1.8c0.3,0.5,0.6,1,1,1.4c0.2,0.3,0.5,0.6,0.7,1c0.4,1.1,1.1,1.9,1.6,2.9c1.1,2,2.5,3.7,3.8,5.5
	c1.1,1.4,1.8,3.1,2.4,4.7c0.3,0.7,0.6,1.3,1.1,1.9c0.9,1,1.8,2,2.7,3c-0.3,0.2-0.4,0.4-0.6,0.4c-0.5,0.1-1,0.2-1.6,0.4
	c-0.2-0.2-0.4-0.5-0.6-0.7c-0.5-0.7-1-1.4-1.5-2.1c-0.4-0.7-0.9-1.3-1.2-2.1C108.7,114.2,108,113.2,106.7,112.6z"/>
<path class="st1" d="M120,133.2c0-1-0.4-1.8-1.3-2.3c-0.2-1.3-0.8-2.3-1.9-2.9c-0.1-0.4-0.2-0.7-0.3-1.2c-0.9-0.6-1.2-1.6-1.6-2.6
	c0.9-0.6,0.9-0.6,2.2-0.8c0.6,0.3,0.6,1.1,1.1,1.7c0.5,0.3,1,0.9,1.2,1.7c0.2,0.7,0.5,1.3,1.2,1.6c0.2,0.5,0.3,0.9,0.5,1.3
	c0.2,0.5,0.4,1,0.8,1.3c1.2,1.2,2,2.6,2.7,4.1c0.1,0.2,0.2,0.3,0.3,0.4c0.3,0.4,0.6,0.7,0.8,1.1c0.2,0.3,0.4,0.7,0.5,1
	c0.5,0.4,0.9,0.8,1.3,1.2c0.3,0.4,0.5,0.9,0.8,1.3c0.2,0.4,0.4,0.7,0.6,1.1c0.2,0.4,0.5,0.8,0.7,1.2s0.3,0.8,0.4,1.2
	c0.6,0.7,1.3,1.4,2,2.1c0.6,0.6,1.1,1.3,1.3,2.2c0.1,0.4,0.3,0.8,0.5,1.1c0.1,0.2,0.4,0.4,0.6,0.7c0.4-0.3,0.8-0.6,1.2-0.9
	c0.3-0.1,0.7-0.1,1.1-0.2c0.2-0.3,0.5-0.7,0.8-1.2c0.4-0.1,0.9-0.2,1.4-0.4c0.7-0.3,1.4-0.7,1.5-1.6c-0.4-1-0.8-2-1.6-2.8
	c-0.3-0.3-0.5-0.7-0.6-1c-0.1-1.1-0.7-1.9-1.6-2.5c-0.6-1.2-1.3-2.2-2-3.3c-1-1.4-1.9-2.9-2.9-4.3c-0.3-0.5-0.5-1-0.7-1.6
	c-1.1-1.2-2.1-2.4-3.2-3.6c0-0.5,0.1-0.8,0.1-1.3c-1-1.1-1.7-2.3-2.4-3.6c0.9-0.2,1.7-0.1,2.3,0c1.5,1.1,2.3,2.7,3.3,4.1
	c0.1,0.1,0.2,0.3,0.3,0.4c0.2,1.4,1.3,2.2,1.9,3.2c0.5,0.9,1.2,1.7,1.7,2.6c0.4,0.8,0.9,1.5,1.4,1.9c1,1.8,1.9,3.3,2.7,4.9
	c0.1,0.2,0.3,0.5,0.4,0.8c0.1,0.5,0.5,0.9,0.9,1.2c0.8,0.6,1.3,1.4,1.8,2.3c0.3,0.6,0.7,1.1,1.2,1.8c0,0.6,0,1.4,0,2.2
	c-1,1-2.2,1.8-3.5,2.4c-1,0.4-1.8,0.9-2.6,1.6c-0.6,0.5-1.2,0.9-1.8,1.3c-0.7,0-1.4,0-2.1,0c-0.7-0.4-1.2-1-1.6-1.7
	c-0.7-1.1-1.4-2.1-2-3.2c-0.5-0.8-0.9-1.7-1.4-2.6c-0.2-0.4-0.3-0.8-0.6-1c-0.6-0.6-1.1-1.3-1.4-2.1c-0.1-0.2-0.2-0.3-0.3-0.4
	c-1.5-1.6-2.5-3.5-3.6-5.2c-0.1-0.2-0.3-0.4-0.3-0.6C121.7,134.6,121,133.8,120,133.2z"/>
<path class="st1" d="M293.2,85.6c0.2-0.4,0.3-0.6,0.4-0.8c0.7-0.2,1.4-0.5,2.1-0.5c1.7,0,3.3,0,5-0.2c0.2,0,0.5,0,0.7,0
	c1.5,1.6,3.3,2.6,5.6,2.6c0.3,0.5,0.7,1,1.1,1.5c1,0.5,2,1.1,3.1,1.7c0.7,0.8,1.4,1.5,2.1,2.3c0.6,0.6,1.1,1.3,1.4,2.2
	c0.6,1.7,1.7,3,2.8,4.3c0.8,0.1,1.4,0,2.1-0.2c1.5-0.6,3-1.1,4.5-1.7c0.1,0,0.2-0.2,0.2-0.3c0.2-0.4,0-0.8-0.2-1.1
	c-0.7-1.2-1.3-2.4-1.6-3.8c-0.1-0.4-0.3-0.7-0.6-1c-0.3-0.4-0.6-0.7-1-1c-1-1-1.8-2.2-2.4-3.5c-1.8-1.4-3.5-3-5.6-4
	c-0.8-0.4-1.4-1-2.2-1.3c-0.5-0.2-0.8-0.6-1.2-1c-0.5-0.5-1-1.1-1.8-1.4c-0.4,0-0.9-0.1-1.3-0.1c-1-0.4-1.9-0.7-2.7-1
	c-0.3,0.1-0.6,0.1-0.8,0.2c-1,0.3-1.9,0.3-2.9,0c-0.3-0.1-0.7-0.1-1-0.3c-1.2-0.5-2.4-0.4-3.5,0.3c-0.4-0.2-0.7-0.3-1.2-0.6
	c-0.2,0.1-0.5,0.3-0.9,0.6c-0.9,0.1-1.9,0.1-2.9,0.2c-1.9,1.1-3.6,2.3-4.9,4.1c-0.2,0.1-0.4,0.2-0.7,0.3c-0.8,0.2-1.3,0.7-1.5,1.5
	c-0.3,0.9-0.7,1.8-1.4,2.6c-0.5,0.6-0.8,1.4-1,2.2c-0.2,0.5-0.4,1.1-0.7,1.9c0.1,1.1-0.9,2.5,0,3.9c-0.2,0.5-0.3,0.9-0.4,1.4
	c0.1,0.3,0.3,0.6,0.5,1c-0.2,1.4-0.1,3,0.9,4.4c2.4,2.4,4.5,5.3,6,8.6c0.3,0.1,0.7,0.3,1.1,0.4c0.5,0.8,1.3,1.3,2.1,1.8
	c1.2,0.8,2.4,1.5,3.2,2.8c0.4,0.7,1.1,1.1,1.7,1.7c1,1.1,2,2.2,3,3.4c0.5,0.7,0.9,1.4,1.6,2.4c0.1,0.1,0.4,0.3,0.7,0.5
	c0.7,0.5,1.1,1.2,1.1,2.1c0,1,0.1,2.1,0,3.1c0,1-0.5,1.9-1,2.6c-0.7,0.1-1.3-0.3-1.9-0.4c0.2-0.6,0.3-1,0.5-1.6
	c-0.1-1.6-0.5-3.1-1-4.7c-0.3-1.1-0.9-2-1.7-2.8c-1-0.9-1.8-1.9-2.8-2.8c-1.3-1.2-2.6-2.3-3.7-3.6c-0.2-0.2-0.5-0.3-0.7-0.5
	c-0.6-0.5-1.2-1-1.8-1.6c-0.6-0.6-1-1.4-1.7-2c-0.6-0.5-1.2-1.1-1.7-1.7c-0.7-0.9-1.5-1.7-2.2-2.6c-0.4,0-0.8,0-1.2,0
	c-0.1-0.1-0.2-0.2-0.2-0.3c-0.1-0.2-0.1-0.3-0.1-0.5c-0.1-1.1-0.6-2.1-1.3-2.8c-0.7-2.2-1.4-4.2-2-6.2c0.1-0.5,0.2-1,0.3-1.5
	c0-0.2-0.1-0.3-0.1-0.5c-0.3-1-0.5-2.1-0.5-3.2c0-1.2,0.3-2.4,1.1-3.4c0.4-0.5,0.8-1,1.2-1.5c0.4-0.5,0.7-0.9,0.8-1.5
	c0.1-1,0.6-1.8,1.2-2.8c1.2-0.4,1.6-1.6,2.3-2.6c0.5-0.8,1-1.4,1.9-1.6c1.4-0.3,2.6-0.9,3.7-1.9c0.3-0.2,0.6-0.4,0.9-0.5
	c1.7-0.6,3.5-1.1,5.3-1.3c1.9-0.1,3.7,0,5.5,0.2c0.9,0.1,1.8,0.1,2.8,0.1c0.3,0.2,0.6,0.4,1,0.6c0.5,0.2,0.9,0.5,1.4,0.7
	c0.8,0.3,1.7,0.6,2.5,1.1c0.5,0,1,0,1.6,0c0.7,0.4,1.4,0.8,2.1,1.3c0.6,0.4,1.2,1,1.8,1.4c0.6,0.4,1.2,0.7,2,1.1
	c0.2,0.3,0.6,0.7,1,1.2c0.6,0.8,1.2,1.4,2.1,1.8c0.8,0.4,1.4,1,1.6,1.9c0.1,0.3,0.3,0.6,0.5,0.9c0.7,0.9,1.4,1.7,2.1,2.5
	c0.7,0.9,1.3,1.7,1.9,2.6c0.2,0.6,0.4,1.2,0.6,1.8c0.3,0.6,0.6,1.1,0.9,1.8c0,0.5,0,1,0,1.6c0,0.9-0.3,1.7-1.3,2.2
	c-0.2,0-0.6,0.1-0.9,0.1c-0.6,0-1.1,0.2-1.6,0.4c-1,0.6-2,1.1-3.1,1.3c-0.8,0.1-1.5,0.6-2.2,0.9c-1.3,0-2.2-0.6-2.8-1.7
	c-0.5-0.9-0.9-1.8-1.2-2.7c-1.1-2.6-2.9-4.5-5-6.3c-0.3-0.2-0.7-0.4-1.1-0.5c-0.3-0.1-0.7-0.2-1-0.3c-0.1,0-0.2-0.1-0.4-0.2
	c-1.1-1.1-2.5-2-4.1-2.6c-0.6-0.3-1.2-0.5-2-0.5c-1,0-2-0.3-2.9-0.4c-1.1,0.6-2,1.1-3,1.6c-1.3,0.7-2.3,1.7-2.8,3.2
	c-0.2,0.7-0.4,1.4-0.6,2.1c0.4,1.4,1,2.6,1.6,3.7c0.4,0.8,0.9,1.4,1.6,2c0.6,0.5,1.2,1.1,1.6,1.8c0.2,0.3,0.4,0.6,0.6,0.8
	c1.4,1.4,2.7,2.8,4.1,4.2c0.3,0.1,0.6,0.2,1,0.3c0.3,0.3,0.5,0.8,0.9,1c1.1,0.7,1.7,1.8,2.6,2.8c0.4,0.4,0.6,1.1,1,1.8
	c0.2,0.1,0.6,0.3,0.9,0.4c0.5,0.5,1,1,1.4,1.5c0.5,0.5,0.9,1,1.2,1.7c0.3,0.7,0.8,1.3,1.3,1.8c0.8,0.9,1.4,1.9,1.4,3.2
	c0,0.4,0.2,0.9,0.4,1.3c0.2,0.4,0.4,0.8,0.7,1.3c0,1,0,2,0,3s0.1,1.9,0.1,3.4c-0.3,1.9-1.1,4.2-2.3,6.4c-0.7-0.5-1.4-1-2.1-1.5
	c0.2-0.4,0.4-0.9,0.6-1.3c0.2-0.5,0.3-1,0.5-1.4c0.2-0.5,0.5-0.9,0.7-1.3c-0.3-1.8-0.3-3.5-0.4-5.2c-0.1-2-0.6-3.9-1.9-5.4
	c-0.4-0.4-0.7-0.9-0.9-1.4c-0.4-1.2-1-2.2-2.1-2.9c-0.1-0.8-0.6-1.4-1.1-2.1c-0.6-0.7-1.1-1.4-1.6-2c-0.7-0.8-1.5-1.6-2.4-2.2
	c-0.7-0.6-1.3-1.1-1.9-1.8c-0.6-0.6-1.2-1.3-1.9-1.8c-1.3-0.9-2.3-2.1-3.1-3.4c-0.4-0.7-0.8-1.3-1.5-1.5c-0.2-0.4-0.4-0.8-0.7-1.2
	c-0.3-0.2-0.7-0.4-1-0.6c-0.1-0.1-0.1-0.2-0.1-0.3c-0.2-1.1-0.5-2.1-1.2-3c-0.5-0.7-0.8-1.6-0.6-2.5c0.1-0.9,0.3-1.8,0.7-2.7
	c0.4-1,1.1-1.9,1.7-2.8c0.3-0.5,0.8-0.9,1.4-1.2C292.4,86.1,292.7,85.9,293.2,85.6z"/>
<path class="st1" d="M262.2,121.6c-0.2,1.3,0,2.4,0.6,3.6c0.8,1.5,1.5,3,2.3,4.4c0.5,1,1.1,1.9,1.8,2.7c0.4,0.5,0.8,1.1,1.2,1.9
	c0.7,0.3,1.4,0.9,2,1.6c2.1,2.2,4.6,3.8,7.3,5.2c2,1,4,2,6,3.1c0.9,0.5,1.8,0.8,2.8,0.6c0.9-0.1,1.8,0,2.7,0.3
	c0.2,0.1,0.4,0.1,0.7,0.2c1.1,0.3,2.3,0.4,3.4,0c0.4-0.1,0.8-0.2,1.2-0.1c1.3,0.3,2.4-0.1,3.5-0.6c1.5-0.6,2.9-1.4,4.3-2.1
	c0.3-0.1,0.5-0.3,0.7-0.5c1-0.9,1.9-1.8,2.9-2.7c1,0.2,1,0.2,1.5,1.1c-0.1,0.7-0.4,1.2-1,1.5c-0.5,0.3-0.8,0.6-1.1,1.1
	c-0.9,1.2-2.1,1.9-3.4,2.5s-2.7,1-3.9,1.8c-0.3,0.2-0.7,0.4-1.1,0.4c-1.3,0.2-2.6,0.3-3.9,0.4c-0.6,0.1-1.2,0-1.9-0.2
	c-0.7-0.2-1.4-0.2-2-0.1c-1.3,0-2.6-0.1-3.9-0.7c-1.4-0.6-2.8-1-4.1-1.8c-0.2-0.1-0.4-0.2-0.6-0.2c-0.9,0-1.5-0.5-2.2-0.8
	c-1-0.5-2-1.1-3-1.7c-0.4-0.2-0.7-0.4-1.1-0.6c-0.3-0.1-0.7-0.1-1-0.2c-0.2-0.1-0.3-0.1-0.3-0.2c-0.8-1.1-1.7-2-3-2.5
	c-0.4-0.2-0.8-0.7-1.1-1.1c-0.5-0.6-0.9-1.2-1.3-1.8c-0.4-0.1-0.8-0.2-1.1-0.3c-0.5-0.3-0.7-0.8-0.8-1.2c-0.5-1.5-1.4-2.8-2.8-3.7
	c-0.2-1.5-0.8-2.7-1.7-3.9c-0.7-1.1-1.2-2.2-1.3-3.5c0-0.4-0.2-0.8-0.3-1.2c-0.1-0.4-0.1-0.8-0.2-1.2c0.5-0.6,1.1-1.1,1.6-1.7
	c1.2-0.3,2.5-0.7,3.7-1.3c0.3-0.2,0.7-0.2,1-0.2c1.1-0.2,2.1-0.5,3.4-0.8c0.1,0,0.5,0.1,0.8,0.1c0.9,0.2,1.5,0.7,1.8,1.5
	c0.3,0.7,0.6,1.4,1,2c0.1,0.1,0.2,0.2,0.2,0.3c0,1.2,0.8,1.9,1.5,2.6c0.6,0.6,0.9,1.3,1.1,2.2c1.2,1.3,2.5,2.5,3.7,3.8
	c0.3,0.3,0.7,0.6,1.1,0.8c1.2,0.4,2.1,1.1,3,1.9c0.3,0.3,0.6,0.5,1,0.8c0.4,0.1,0.8,0.1,1.2,0.2c0.3,0.2,0.7,0.5,1.2,0.9
	c1.1,0.2,2.4,0.6,3.7,0.8c0.9,0.2,1.7,0,2.5-0.4c0.4,0.1,0.8,0.1,1.2,0.2c0.7-0.3,1.4-0.6,2.1-0.9c0.8,0.3,1.7,0.6,2.5,1.1
	c-0.6,0.7-1.2,1.2-2,1.3c-0.2,0-0.4,0.1-0.6,0.3c-0.9,0.7-2,0.8-3.1,0.8c-0.8,0-1.6,0-2.4,0c-1.3,0-2.5,0.1-3.7-0.6
	c-0.2-0.1-0.6-0.1-0.8-0.2c-1.3-0.9-2.6-1.8-4-2.3c-0.2-0.1-0.4-0.1-0.5-0.2c-0.5-0.6-1.2-0.8-2-0.9c-0.6-0.1-1.1-0.4-1.4-0.9
	c-1-1.5-2.3-2.7-3.7-3.8c-0.7-0.5-1.4-1-1.5-2c-1.2-1.2-1.1-3-2.3-4.2c-0.4-0.4-0.5-1-0.7-1.6c-0.6-0.6-1.4-0.5-2.1-0.3
	c-0.9,0.2-1.7,0.6-2.7,0.7C264,121.1,263.1,121.4,262.2,121.6z"/>
<path d="M260,192.3c0.8,0.2,3.5,0.4,4.3,0.5c0.6,0.1,1.3,0.2,1.9,0.3c1.1,0.2,2.2,0.4,3.2,0.8c1.7,0.6,3.4,1.3,5.1,2.1
	c0.9,0.4,1.9,0.6,2.9,0.8c0.4,0.1,0.7,0.2,1.1,0.2c0.1,0,0.3,0,0.5,0c0.1,0,0.1,0,0.2,0l0.1-0.1c0.1-0.1,0.2-0.2,0.2-0.3
	c0.7-1.4,1.5-2.9,1.8-4.6c0.2-1.1,0.6-2.2,1.1-3.4s0.8-2.3,0.9-3.4c0-0.4,0.1-0.8,0.2-1.1l0.1-0.2c0.1-0.2,0.1-0.3,0.2-0.5
	s0.2-0.4,0.2-0.6c0.4-2.1,0.7-3.9,0.9-5.7c0-0.2,0-0.5-0.1-0.8c0-0.2-0.1-0.3-0.1-0.5s0-0.4,0-0.5c0.2-0.7,0.2-1.4,0.2-2.1
	c0-0.4,0-0.8,0-1.2c0.1-1.1-0.2-2-0.6-3c-0.1-0.2-0.1-0.3-0.2-0.4H284c-0.1,0-0.1-0.1-0.2-0.1l-0.3,0.1c-1.2,0.2-2.5,0.4-3.7,0.6
	c-0.5,0.1-1.1,0.3-1.6,0.4c-0.3,0.1-0.6,0.2-1,0.3c-0.7,0.2-1.3,0.3-2,0.5l-0.5,0.1c-0.3,0.1-0.7,0.2-1,0.2l-0.8,0.2
	c-0.4,0.1-0.8,0.2-1.2,0.3c-0.2,0-0.4,0.1-0.6,0.2c-0.4,0.1-0.8,0.2-1.2,0.3c-1.2,0.2-2.4,0.4-3.6,0.6l-2.3,0.4
	c-2.4,0.4-5.2,0.9-8,0.8c-1,0-1.9,0-2.9,0l-4.2-0.4c-0.4,0-0.9,0-1.2,0.1c-0.6,0.1-1.2,0.1-1.8,0c-0.6-0.2-1.3-0.3-1.9-0.4l0.1-0.9
	c0.7,0.1,1.3,0.2,2,0.4c0.5,0.1,0.9,0.1,1.4,0s1-0.1,1.4-0.1l4.2,0.4c1,0,2,0,2.9,0c2.7,0.1,5.5-0.4,7.9-0.8l2.3-0.4
	c1.2-0.2,2.4-0.4,3.6-0.6c0.4-0.1,0.7-0.2,1.1-0.3c0.2-0.1,0.4-0.1,0.6-0.2c0.4-0.1,0.8-0.2,1.2-0.3l0.7-0.2c0.4-0.1,0.7-0.2,1-0.2
	l0.5-0.1c0.7-0.2,1.3-0.3,2-0.5c0.3-0.1,0.6-0.2,0.9-0.3c0.6-0.2,1.1-0.3,1.7-0.4c1.3-0.2,2.5-0.4,3.8-0.6l0.4-0.1
	c0.2,0,0.4,0.1,0.6,0.1c0.1,0,0.1,0.1,0.2,0.1l0.2,0.1l0.1,0.2c0.1,0.2,0.1,0.4,0.2,0.6c0.4,1,0.7,2.1,0.6,3.3c0,0.4,0,0.8,0,1.1
	c0,0.8,0,1.6-0.2,2.4c0,0,0,0.1,0,0.2c0,0.2,0,0.3,0.1,0.5c0.1,0.4,0.1,0.7,0.1,1.1c-0.3,1.8-0.6,3.6-0.9,5.7
	c-0.1,0.3-0.2,0.6-0.2,0.8c-0.1,0.1-0.1,0.3-0.2,0.4l-0.1,0.2c-0.1,0.3-0.2,0.6-0.2,0.9c-0.1,1.2-0.4,2.3-1,3.6
	c-0.5,1.1-0.8,2.2-1.1,3.2c-0.4,1.8-1.2,3.4-1.9,4.8c-0.1,0.2-0.2,0.3-0.4,0.5c-0.1,0.1-0.1,0.1-0.2,0.2l-0.1,0.1h-0.2
	c-0.1,0-0.2,0-0.3,0c-0.2,0-0.4,0.1-0.6,0.1c-0.1,0-0.2,0-0.3,0c-0.4-0.1-0.7-0.2-1.1-0.2c-1-0.2-2-0.4-3-0.9c-1.7-0.7-3.4-1.4-5-2
	c-1-0.4-2.1-0.6-3.1-0.8c-0.6-0.1-1.3-0.2-1.9-0.3c-0.8-0.1-3.1-0.5-3.9-0.6"/>
<path d="M284.8,168.3c-0.3-0.1-0.4-0.2-0.6-0.2c-1.4,0.2-2.7,0.4-4.1,0.7c-0.9,0.2-1.7,0.5-2.6,0.7c-0.9,0.2-1.7,0.4-2.5,0.6
	c-0.4,0-0.7,0.1-1.1,0.2c-0.6,0.1-1.3,0.3-1.9,0.4c-0.6,0.1-1.2,0.3-1.8,0.4c-2,0.3-3.9,0.7-5.9,1c-2.6,0.5-5.2,0.9-7.9,0.8
	c-1,0-1.9,0-2.9,0c-0.5,0-1.1,0-1.6,0.1c-0.5,0.1-1.1,0.1-1.6,0c-0.7-0.2-1.3-0.3-2-0.4c-0.8-0.1-3-0.4-3.8,0.2
	c1.7,1.2,2.7,2,2.9,2.5c1.2,0.8,1.9,1.9,2.8,2.9c0.7,0.8,1.3,1.7,2,2.6c0.1,0.2,0.4,0.4,0.5,0.7c0.5,1.1,1.2,2.1,2,3
	c0.6,0.8,1.3,1.5,1.8,2.3c0.8,1.2,1.6,2.4,2.2,3.6c0.7,1.4,1.8,2.5,3.2,2.4c1.5,0,2.9,0.5,4.3,0.8c1.1,0.2,2.2,0.4,3.2,0.8
	c1.8,0.7,3.4,1.4,5.1,2.1c1.3,0.6,2.7,0.8,4,1.1c0.3,0.1,0.7-0.1,1-0.1c0.2-0.2,0.4-0.4,0.5-0.6c0.8-1.5,1.5-3,1.9-4.7
	c0.3-1.2,0.6-2.2,1.1-3.3c0.5-1.1,0.8-2.3,0.9-3.5c0-0.4,0.2-0.8,0.3-1.2c0.1-0.4,0.3-0.8,0.4-1.2c0.3-1.9,0.6-3.8,0.9-5.7
	c0.1-0.4-0.1-0.9-0.1-1.4c0-0.2,0-0.3,0-0.4c0.3-1.1,0.1-2.3,0.2-3.4C285.8,170.7,285.2,169.5,284.8,168.3z M274.1,184.7
	c-0.5,1-1.1,1.9-2,2.6c-0.9,0.8-3.2,1.6-4.5,1.7c-3.2,0.3-5.1-1.4-6.6-3.9c-0.4-0.5-0.6-1.2-0.8-1.8c-0.4-1.9,0-3.6,0.8-5.3
	c0.2-0.5,0.7-0.9,1.1-1.2c0.7-0.5,1.4-0.8,2.2-1.3c0.4-0.1,0.7-0.1,1.1,0c1.6-0.5,3.1-0.1,4.5,0.3c2.1,0.6,3.4,2.2,4.2,4.2
	c0.1,0.3,0.1,0.6,0.1,0.9C274.2,182.2,274.1,183.4,274.1,184.7z"/>
<path d="M266.5,179.1c0.7,0,1.2,0,1.7,0c0.5,0.4,1,0.8,1.3,1.1c0.8,1.1,0.5,2.1,0.2,3s-1,1.4-2,1.5s-1.9-0.3-2.8-0.8
	c-0.4-0.2-0.6-0.7-0.7-1.1c-0.1-1,0.1-1.9,0.9-2.6C265.6,179.7,266,179.4,266.5,179.1z"/>
</svg>
