<?xml version="1.0" encoding="utf-8"?>
<!-- Generator: Adobe Illustrator 24.0.3, SVG Export Plug-In . SVG Version: 6.00 Build 0)  -->
<svg version="1.1" id="Layer_1" xmlns="http://www.w3.org/2000/svg" xmlns:xlink="http://www.w3.org/1999/xlink" x="0px" y="0px"
	 viewBox="0 0 130.9 33.7" style="enable-background:new 0 0 130.9 33.7;" xml:space="preserve">
<style type="text/css">
	.st0{fill:#F79522;stroke:#F89523;stroke-width:2;stroke-miterlimit:10;}
	.st1{stroke:#000000;stroke-width:2;stroke-miterlimit:10;}
	.st2{stroke:#000000;stroke-miterlimit:10;}
	.st3{fill:none;stroke:#000000;stroke-width:2.5;stroke-miterlimit:10;}
	.st4{fill:none;stroke:#363637;stroke-width:1.5;stroke-miterlimit:10;}
	.st5{fill:#F79522;stroke:#F89523;stroke-miterlimit:10;}
	.st6{fill:none;stroke:#000000;stroke-width:1.5;stroke-miterlimit:10;}
	.st7{fill:#F79522;}
	.st8{fill:#F89523;}
</style>
<g>
	<g>
		<path class="st7" d="M23.3,32.8H0.5V2.2h3.6v27h19.2V32.8z"/>
		<path class="st8" d="M23.8,33.3H0V1.7h4.6v27h19.2V33.3z M1,32.3h21.8v-2.6H3.6v-27H1V32.3z"/>
	</g>
	<g>
		<path class="st7" d="M47.7,32.8H31.3V11.6h3.3v17.8h13.1V32.8z"/>
		<path class="st8" d="M48.2,33.3H30.8V11.1h4.3v17.8h13.1V33.3z M31.8,32.3h15.4v-2.3H34.1V12.1h-2.3V32.3z"/>
	</g>
	<g>
		<path class="st7" d="M75.1,29.4l-3.4,3.3H56.3L53,29.4V15l3.3-3.3h15.4l3.4,3.3V29.4z M71.7,27.8V16.7L70.3,15H57.9l-1.6,1.8v11.1
			l1.6,1.6h12.3L71.7,27.8z"/>
		<path class="st8" d="M71.9,33.3H56.1l-3.6-3.6V14.8l3.6-3.6h15.8l3.7,3.6v14.9L71.9,33.3z M56.5,32.3h15l3.1-3.1v-14l-3.1-3.1h-15
			l-3.1,3.1v14L56.5,32.3z M70.5,29.9H57.7L55.8,28V16.5l1.9-2.1h12.8l1.7,2.1V28L70.5,29.9z M58.1,28.9H70l1.2-1.3V16.9L70,15.5
			H58.2l-1.3,1.5v10.7L58.1,28.9z"/>
	</g>
	<g>
		<path class="st7" d="M92.1,32.8h-3.3v-9.5l-9.4-11.6h4.1l7,8.6l7-8.6h4.1l-9.4,11.6V32.8z"/>
		<path class="st8" d="M92.6,33.3h-4.3v-9.8l-9.9-12.3h5.4l6.7,8.4l6.7-8.4h5.4l-9.9,12.3V33.3z M89.3,32.3h2.3v-9.2l8.8-10.9h-2.8
			l-7.2,8.9l-7.2-8.9h-2.8l8.8,10.9V32.3z"/>
	</g>
	<g>
		<path class="st7" d="M124.7,32.8h-17.4V11.6h17.4l3.5,3.3v14.4L124.7,32.8z M124.8,27.7V16.8l-1.5-1.8h-12.7v14.4h12.7L124.8,27.7
			z"/>
		<path class="st8" d="M124.9,33.3h-18.1V11.1h18.1l3.8,3.6v14.8L124.9,33.3z M107.8,32.3h16.7l3.2-3.1v-14l-3.2-3.1h-16.7V32.3z
			 M123.5,29.9h-13.4V14.5h13.4l1.8,2.2v11.3L123.5,29.9z M111.1,28.9h12l1.3-1.4V17l-1.3-1.5h-12V28.9z"/>
	</g>
	<path d="M26,32.5H1.8V0.4h5.1v27H26V32.5z M3.2,31h21.3v-2.1H5.3v-27H3.2V31z"/>
	<path d="M50.5,32.5H32.5V9.9h4.8v17.8h13.1V32.5z M34,31H49v-1.8H35.9V11.4H34V31z"/>
	<path d="M74,32.5H58l-3.8-3.8V13.7L58,9.9h16l3.8,3.8v15.1L74,32.5z M58.6,31h14.8l2.9-2.9V14.3l-2.9-2.9H58.6l-2.9,2.9v13.8
		L58.6,31z M72.6,29.2h-13l-2.1-2V15.4l2.1-2.2h13l1.9,2.2v11.7L72.6,29.2z M60.2,27.7h11.7l1-1.1V16l-1.1-1.3H60.3L59.1,16v10.5
		L60.2,27.7z"/>
	<path d="M94.9,32.5H90v-10L79.8,9.9h6l6.6,8.2l6.6-8.2h6L94.9,22.5V32.5z M91.5,31h1.8v-9l8.6-10.6h-2.2l-7.3,9.1l-7.3-9.1H83
		L91.5,22V31z"/>
	<path d="M127,32.5h-18.5V9.9H127l4,3.8v15L127,32.5z M110,31h16.4l3.1-3V14.3l-3.1-2.9H110V31z M125.6,29.2h-13.8V13.2h13.8l2,2.3
		V27L125.6,29.2z M113.4,27.7H125l1.1-1.2V16.1l-1.1-1.4h-11.6V27.7z"/>
</g>
</svg>
