<?xml version="1.0" encoding="utf-8"?>
<!-- Generator: Adobe Illustrator 24.0.3, SVG Export Plug-In . SVG Version: 6.00 Build 0)  -->
<svg version="1.1" id="Layer_1" xmlns="http://www.w3.org/2000/svg" xmlns:xlink="http://www.w3.org/1999/xlink" x="0px" y="0px"
	 viewBox="0 0 151.6 33.7" style="enable-background:new 0 0 151.6 33.7;" xml:space="preserve">
<style type="text/css">
	.st0{fill:#F79522;stroke:#F89523;stroke-width:2;stroke-miterlimit:10;}
	.st1{stroke:#000000;stroke-width:2;stroke-miterlimit:10;}
	.st2{stroke:#000000;stroke-miterlimit:10;}
	.st3{fill:none;stroke:#000000;stroke-width:2.5;stroke-miterlimit:10;}
	.st4{fill:none;stroke:#363637;stroke-width:1.5;stroke-miterlimit:10;}
	.st5{fill:#F79522;stroke:#F89523;stroke-miterlimit:10;}
	.st6{fill:none;stroke:#000000;stroke-width:1.5;stroke-miterlimit:10;}
	.st7{fill:#F79522;}
	.st8{fill:#F89523;}
</style>
<g>
	<g>
		<path class="st7" d="M24.1,32.8H1.3V2.2h3.6v27h19.2V32.8z"/>
		<path class="st8" d="M24.6,33.3H0.8V1.7h4.6v27h19.2V33.3z M1.8,32.3h21.8v-2.6H4.4v-27H1.8V32.3z"/>
	</g>
	<g>
		<path class="st7" d="M36.3,32.8H33V11.6h3.3V32.8z"/>
		<path class="st8" d="M36.8,33.3h-4.3V11.1h4.3V33.3z M33.5,32.3h2.3V12.1h-2.3V32.3z"/>
	</g>
	<g>
		<path class="st7" d="M62.4,32.8H44.7v-3.3h16.4l1.3-1.2v-3.1l-1.3-1.4H48.1l-3.3-3.5V15l3.3-3.3h16.8V15H49.6l-1.5,1.5v2.4
			l1.5,1.2h12.8l3.3,3.5v5.7L62.4,32.8z"/>
		<path class="st8" d="M62.6,33.3H44.2v-4.3h16.7l1-0.9v-2.7l-1-1.1h-13l-3.6-3.9v-5.6l3.6-3.6h17.5v4.3H49.8l-1.2,1.2v2l1.1,1h12.9
			l3.6,3.9v6.1L62.6,33.3z M45.2,32.3h17l3.1-3.1v-5.3l-3.1-3.2H49.4l-1.8-1.5v-2.9l1.8-1.8h15v-2.3H48.3l-3.1,3.1V20l3.1,3.2h13.1
			l1.5,1.7v3.5l-1.6,1.5H45.2V32.3z"/>
	</g>
	<g>
		<path class="st7" d="M82.1,32.8h-3.3V15h-7.9v-3.3h19.5V15h-8.3V32.8z"/>
		<path class="st8" d="M82.6,33.3h-4.3V15.5h-7.9v-4.3h20.5v4.3h-8.3V33.3z M79.3,32.3h2.3V14.5h8.3v-2.3H71.4v2.3h7.9V32.3z"/>
	</g>
	<g>
		<path class="st7" d="M118.9,29.4l-3.4,3.3h-15.4l-3.3-3.3V15l3.3-3.3h15.4l3.4,3.3V29.4z M115.6,27.8V16.7l-1.5-1.8h-12.3
			l-1.6,1.8v11.1l1.6,1.6h12.3L115.6,27.8z"/>
		<path class="st8" d="M115.8,33.3H100l-3.6-3.6V14.8l3.6-3.6h15.8l3.7,3.6v14.9L115.8,33.3z M100.4,32.3h15l3.1-3.1v-14l-3.1-3.1
			h-15l-3.1,3.1v14L100.4,32.3z M114.3,29.9h-12.7L99.7,28V16.5l1.9-2.1h12.8l1.7,2.1V28L114.3,29.9z M102,28.9h11.9l1.2-1.3V16.9
			l-1.2-1.4H102l-1.3,1.5v10.7L102,28.9z"/>
	</g>
	<g>
		<path class="st7" d="M148.5,32.8h-3.9l-3.4-8.2h-10.6v8.2h-3.3V11.6h17.9l3.3,3.3v6.5l-3.6,2.7L148.5,32.8z M145.1,19.6v-3
			l-1.7-1.7h-12.9v6.2h12.9L145.1,19.6z"/>
		<path class="st8" d="M149.2,33.3h-5l-3.4-8.2h-9.8v8.2h-4.3V11.1h18.6l3.6,3.6v6.9l-3.5,2.6L149.2,33.3z M144.9,32.3h2.8l-3.5-8.2
			l3.7-2.8v-6l-3.1-3.1h-17.2v20.1h2.3v-8.2h11.4L144.9,32.3z M143.7,21.7h-13.6v-7.2h13.6l2,2v3.4L143.7,21.7z M131.1,20.7h12.2
			l1.4-1.3v-2.6l-1.4-1.4h-12.1V20.7z"/>
	</g>
	<path d="M26.8,32.5H2.5V0.4h5.1v27h19.2V32.5z M4,31h21.3v-2.1H6.1v-27H4V31z"/>
	<path d="M39,32.5h-4.8V9.9H39V32.5z M35.7,31h1.8V11.4h-1.8V31z"/>
	<path d="M64.7,32.5H46v-4.8h16.8l0.8-0.8v-2.5l-0.8-0.9h-13l-3.8-4v-5.8l3.8-3.8h17.8v4.8H51.9l-1,1.1v1.8l1,0.8h12.9l3.8,4v6.3
		L64.7,32.5z M47.5,31h16.6l2.9-2.9V23l-2.9-3.1H51.3l-1.9-1.6v-3.1l1.9-2h14.9v-1.8H50.4l-2.9,2.9v4.6l2.9,3.1h13.1l1.7,1.8v3.7
		l-1.7,1.7h-16V31z"/>
	<path d="M84.9,32.5h-4.8V14.7h-7.9V9.9h21v4.8h-8.3V32.5z M81.6,31h1.8V13.2h8.3v-1.8h-18v1.8h7.9V31z"/>
	<path d="M117.9,32.5h-16l-3.8-3.8V13.7l3.8-3.8h16l3.8,3.8v15.1L117.9,32.5z M102.5,31h14.8l2.9-2.9V14.3l-2.9-2.9h-14.8l-2.9,2.9
		v13.8L102.5,31z M116.5,29.2h-13l-2.1-2V15.4l2.1-2.2h13l1.9,2.2v11.7L116.5,29.2z M104.1,27.7h11.7l1-1.1V16l-1.1-1.3h-11.6
		l-1.2,1.3v10.5L104.1,27.7z"/>
	<path d="M151.6,32.5h-5.5l-3.4-8.2h-9.4v8.2h-4.8V9.9h18.9l3.8,3.8v7.2l-3.5,2.6L151.6,32.5z M147.1,31h2.2l-3.4-8.1l3.8-2.9v-5.8
		l-2.9-2.9H130V31h1.8v-8.2h11.9L147.1,31z M145.8,21h-13.9v-7.7h13.9l2.1,2.1V19L145.8,21z M133.4,19.5h11.8l1.2-1.2V16l-1.2-1.2
		h-11.8V19.5z"/>
</g>
</svg>
