<?xml version="1.0" encoding="utf-8"?>
<!-- Generator: Adobe Illustrator 24.0.3, SVG Export Plug-In . SVG Version: 6.00 Build 0)  -->
<svg version="1.1" id="Layer_1" xmlns="http://www.w3.org/2000/svg" xmlns:xlink="http://www.w3.org/1999/xlink" x="0px" y="0px"
	 viewBox="0 0 212.6 33.7" style="enable-background:new 0 0 212.6 33.7;" xml:space="preserve">
<style type="text/css">
	.st0{fill:#F79522;stroke:#F89523;stroke-width:2;stroke-miterlimit:10;}
	.st1{stroke:#000000;stroke-width:2;stroke-miterlimit:10;}
	.st2{stroke:#000000;stroke-miterlimit:10;}
	.st3{fill:none;stroke:#000000;stroke-width:2.5;stroke-miterlimit:10;}
	.st4{fill:none;stroke:#363637;stroke-width:1.5;stroke-miterlimit:10;}
	.st5{fill:#F79522;stroke:#F89523;stroke-miterlimit:10;}
	.st6{fill:none;stroke:#000000;stroke-width:1.5;stroke-miterlimit:10;}
	.st7{fill:#F79522;}
	.st8{fill:#F89523;}
</style>
<g>
	<g>
		<g>
			<path class="st7" d="M30.8,32.8h-3.6V9.5h-0.1L15.7,30L4.3,9.5H4.2v23.3H0.6V2.2h3.6l11.5,20.7L27.2,2.2h3.6V32.8z"/>
			<path class="st8" d="M31.3,33.3h-4.6v-22l-11,19.8l-11-19.8v22H0.1V1.7h4.4l11.2,20.2L26.9,1.7h4.4V33.3z M27.7,32.3h2.6V2.7
				h-2.8L15.7,23.9L3.9,2.7H1.1v29.6h2.6V9h0.8l0.2,0.3l11,19.8L26.8,9h0.8l0.1,0.5V32.3z"/>
		</g>
		<g>
			<path class="st7" d="M64.1,32.8h-3.8l-3-5H43.9l-2.6,5h-3.8L49,11.6h3.6L64.1,32.8z M50.7,15.6l-4.8,8.9h9.8L50.7,15.6z"/>
			<path class="st8" d="M65,33.3h-5l-3-5H44.3l-2.6,5h-5l12-22.1h4.2L65,33.3z M60.6,32.3h2.7l-11-20.1h-3L38.4,32.3h2.7l2.6-5h14
				L60.6,32.3z M56.6,24.9H45.1l5.6-10.4L56.6,24.9z M46.8,23.9h8.1l-4.1-7.4L46.8,23.9z"/>
		</g>
		<g>
			<path class="st7" d="M78.7,32.8h-3.3V15h-7.9v-3.3H87V15h-8.3V32.8z"/>
			<path class="st8" d="M79.2,33.3h-4.3V15.5H67v-4.3h20.5v4.3h-8.3V33.3z M75.9,32.3h2.3V14.5h8.3v-2.3H68v2.3h7.9V32.3z"/>
		</g>
		<g>
			<path class="st7" d="M103.6,32.8h-3.3V15h-7.9v-3.3h19.5V15h-8.3V32.8z"/>
			<path class="st8" d="M104.1,33.3h-4.3V15.5h-7.9v-4.3h20.5v4.3h-8.3V33.3z M100.8,32.3h2.3V14.5h8.3v-2.3H92.9v2.3h7.9V32.3z"/>
		</g>
		<g>
			<path class="st7" d="M140.9,32.8h-3.3v-9.2h-13.3v9.2h-3.3V11.6h3.3v8.6h13.3v-8.6h3.3V32.8z"/>
			<path class="st8" d="M141.4,33.3H137v-9.2h-12.3v9.2h-4.3V11.1h4.3v8.6H137v-8.6h4.3V33.3z M138,32.3h2.3V12.1H138v8.6h-14.3
				v-8.6h-2.3v20.1h2.3v-9.2H138V32.3z"/>
		</g>
		<g>
			<path class="st7" d="M171.2,32.8h-18.9V11.6h18.9V15h-15.6v5.2h8.5v3.3h-8.5v5.9h15.6V32.8z"/>
			<path class="st8" d="M171.7,33.3h-19.9V11.1h19.9v4.3h-15.6v4.2h8.5V24h-8.5v4.9h15.6V33.3z M152.8,32.3h17.9v-2.3h-15.6V23h8.5
				v-2.3h-8.5v-6.2h15.6v-2.3h-17.9V32.3z"/>
		</g>
		<g>
			<path class="st7" d="M201.2,32.8h-3.6l-5.2-15.7h-0.1l-5.2,15.7h-3.6l-7.4-21.1h3.3l5.9,16.5h0.1l5.4-16.5h3.2l5.6,16.5h0.1
				l5.6-16.5h3.3L201.2,32.8z"/>
			<path class="st8" d="M201.6,33.3h-4.3l-4.9-14.7l-4.9,14.7h-4.3l-7.8-22.1h4.4l5.5,15.6l5.1-15.6h3.9l5.3,15.6l5.3-15.6h4.4
				L201.6,33.3z M198,32.3h2.9l7.1-20.1h-2.3L200,28.7h-0.7l-0.2-0.3l-5.5-16.2h-2.5l-5.4,16.5H185l-0.2-0.3l-5.8-16.2h-2.3
				l7.1,20.1h2.9l5.2-15.7h0.7l0.2,0.3L198,32.3z"/>
		</g>
	</g>
	<g>
		<path d="M33.5,32.5h-5.1V11.2L17.7,30.6L6.9,11.2v21.3H1.8V0.4h4.8l11.1,19.9L28.7,0.4h4.8V32.5z M29.9,31H32V1.9h-2.4L17.7,23.4
			L5.7,1.9H3.3V31h2.1V7.7h1.2l0.3,0.4l10.8,19.4l11-19.8h1.2l0.1,0.8V31z"/>
		<path d="M67.4,32.5h-5.5l-3-5H46.4l-2.6,5h-5.6L50.5,9.9H55L67.4,32.5z M62.7,31h2.1L54.1,11.4h-2.7L40.8,31h2.1l2.6-5h14.3
			L62.7,31z M59,24.2H46.7l6-11.2L59,24.2z M49.2,22.7h7.2l-3.7-6.6L49.2,22.7z"/>
		<path d="M81.5,32.5h-4.8V14.7h-7.9V9.9h21v4.8h-8.3V32.5z M78.1,31H80V13.2h8.3v-1.8h-18v1.8h7.9V31z"/>
		<path d="M106.4,32.5h-4.8V14.7h-7.9V9.9h21v4.8h-8.3V32.5z M103,31h1.8V13.2h8.3v-1.8h-18v1.8h7.9V31z"/>
		<path d="M143.6,32.5h-4.8v-9.2h-11.8v9.2h-4.8V9.9h4.8v8.6h11.8V9.9h4.8V32.5z M140.3,31h1.8V11.4h-1.8V20h-14.8v-8.6h-1.8V31h1.8
			v-9.2h14.8V31z"/>
		<path d="M173.9,32.5h-20.4V9.9h20.4v4.8h-15.6v3.7h8.5v4.8h-8.5v4.4h15.6V32.5z M155,31h17.4v-1.8h-15.6v-7.4h8.5V20h-8.5v-6.7
			h15.6v-1.8H155V31z"/>
		<path d="M203.7,32.5h-4.7l-4.7-14.2l-4.7,14.2H185l-8-22.6h4.9l5.4,15.1l4.9-15.1h4.3l5.1,15.1l5.1-15.1h4.9L203.7,32.5z
			 M200.2,31h2.5l6.9-19.6h-1.8l-5.6,16.5h-1.1l-0.3-0.5l-5.5-16h-2.1l-5.4,16.5h-1.1l-0.3-0.5l-5.7-16h-1.8L186,31h2.5l5.2-15.7
			h1.1l0.3,0.5L200.2,31z"/>
	</g>
</g>
</svg>
